<mxfile host="app.diagrams.net" modified="2023-12-06T09:54:46.676Z" agent="Mozilla/5.0 (Macintosh; Intel Mac OS X 10_15_7) AppleWebKit/537.36 (KHTML, like Gecko) Chrome/119.0.0.0 Safari/537.36" etag="hXhiHhOk-WoXHzAg8h1e" version="22.1.5" type="github" pages="6">
  <diagram name="IntroCi" id="jqjDg9kWaLE52GAI048v">
    <mxGraphModel dx="1770" dy="1205" grid="0" gridSize="10" guides="1" tooltips="1" connect="1" arrows="1" fold="1" page="1" pageScale="1" pageWidth="1169" pageHeight="827" math="0" shadow="0">
      <root>
        <mxCell id="0" />
        <mxCell id="1" parent="0" />
        <mxCell id="49Fpc1A-gP1iFOpOohy6-13" value="CI" style="icon;html=1;image=img/clipart/Gear_128x128.png" vertex="1" parent="1">
          <mxGeometry x="999" y="333" width="60" height="60" as="geometry" />
        </mxCell>
        <mxCell id="49Fpc1A-gP1iFOpOohy6-15" value="" style="html=1;whiteSpace=wrap;shape=isoCube2;backgroundOutline=1;isoAngle=15;" vertex="1" parent="1">
          <mxGeometry x="293" y="322" width="90" height="100" as="geometry" />
        </mxCell>
        <mxCell id="49Fpc1A-gP1iFOpOohy6-16" value="" style="shape=singleArrow;whiteSpace=wrap;html=1;rotation=-180;" vertex="1" parent="1">
          <mxGeometry x="529" y="333" width="338" height="60" as="geometry" />
        </mxCell>
        <mxCell id="49Fpc1A-gP1iFOpOohy6-17" value="" style="shape=image;html=1;verticalLabelPosition=bottom;verticalAlign=top;imageAspect=1;aspect=fixed;image=img/clipart/Gear_128x128.png" vertex="1" parent="1">
          <mxGeometry x="299" y="364" width="33" height="38.71" as="geometry" />
        </mxCell>
        <mxCell id="49Fpc1A-gP1iFOpOohy6-19" value="&lt;span style=&quot;color: rgb(0, 0, 0); font-family: Helvetica; font-size: 14px; font-style: normal; font-variant-ligatures: normal; font-variant-caps: normal; font-weight: 400; letter-spacing: normal; orphans: 2; text-align: center; text-indent: 0px; text-transform: none; widows: 2; word-spacing: 0px; -webkit-text-stroke-width: 0px; background-color: rgb(251, 251, 251); text-decoration-thickness: initial; text-decoration-style: initial; text-decoration-color: initial; float: none; display: inline !important;&quot;&gt;u_cmdb_ds_sstdb&lt;/span&gt;" style="text;whiteSpace=wrap;html=1;fontSize=14;" vertex="1" parent="1">
          <mxGeometry x="283" y="298" width="106" height="36" as="geometry" />
        </mxCell>
        <mxCell id="49Fpc1A-gP1iFOpOohy6-20" value="&lt;span style=&quot;color: rgb(0, 0, 0); font-family: Helvetica; font-size: 14px; font-style: normal; font-variant-ligatures: normal; font-variant-caps: normal; font-weight: 400; letter-spacing: normal; orphans: 2; text-align: center; text-indent: 0px; text-transform: none; widows: 2; word-spacing: 0px; -webkit-text-stroke-width: 0px; background-color: rgb(251, 251, 251); text-decoration-thickness: initial; text-decoration-style: initial; text-decoration-color: initial; float: none; display: inline !important;&quot;&gt;correlation_id&lt;/span&gt;" style="text;whiteSpace=wrap;html=1;fontSize=14;" vertex="1" parent="1">
          <mxGeometry x="423" y="432" width="106" height="36" as="geometry" />
        </mxCell>
        <mxCell id="49Fpc1A-gP1iFOpOohy6-21" value="&lt;span style=&quot;color: rgb(0, 0, 0); font-family: Helvetica; font-size: 14px; font-style: normal; font-variant-ligatures: normal; font-variant-caps: normal; font-weight: 400; letter-spacing: normal; orphans: 2; text-align: center; text-indent: 0px; text-transform: none; widows: 2; word-spacing: 0px; -webkit-text-stroke-width: 0px; background-color: rgb(251, 251, 251); text-decoration-thickness: initial; text-decoration-style: initial; text-decoration-color: initial; float: none; display: inline !important;&quot;&gt;CI_ID&lt;/span&gt;" style="text;whiteSpace=wrap;html=1;fontSize=14;" vertex="1" parent="1">
          <mxGeometry x="867" y="432" width="106" height="36" as="geometry" />
        </mxCell>
      </root>
    </mxGraphModel>
  </diagram>
  <diagram name="CiPath" id="xO-fJI0FFCdMl9LTQsgy">
    <mxGraphModel dx="1221" dy="831" grid="0" gridSize="10" guides="1" tooltips="1" connect="1" arrows="1" fold="1" page="1" pageScale="1" pageWidth="1169" pageHeight="827" math="0" shadow="0">
      <root>
        <mxCell id="y6HC1oknwoSADN_m1p-D-0" />
        <mxCell id="y6HC1oknwoSADN_m1p-D-1" parent="y6HC1oknwoSADN_m1p-D-0" />
        <mxCell id="y6HC1oknwoSADN_m1p-D-2" value="CI_ID" style="icon;html=1;image=img/clipart/Gear_128x128.png" vertex="1" parent="y6HC1oknwoSADN_m1p-D-1">
          <mxGeometry x="1044" y="354" width="60" height="60" as="geometry" />
        </mxCell>
        <mxCell id="y6HC1oknwoSADN_m1p-D-4" value="" style="shape=singleArrow;whiteSpace=wrap;html=1;rotation=-180;" vertex="1" parent="y6HC1oknwoSADN_m1p-D-1">
          <mxGeometry x="860" y="352" width="161" height="60" as="geometry" />
        </mxCell>
        <mxCell id="QfE7_d8JJjclEiBsj3Uo-0" value="u_cmdb_ds_sstdb&lt;br&gt;&lt;br&gt;correlation_id" style="html=1;outlineConnect=0;whiteSpace=wrap;fillColor=#dae8fc;shape=mxgraph.archimate3.businessObject;overflow=fill;strokeColor=#6c8ebf;" vertex="1" parent="y6HC1oknwoSADN_m1p-D-1">
          <mxGeometry x="267" y="361" width="161" height="50" as="geometry" />
        </mxCell>
        <mxCell id="QfE7_d8JJjclEiBsj3Uo-1" value="u_cmdb_ds_sstdb_ci&lt;br&gt;&lt;br&gt;correlation_id" style="html=1;outlineConnect=0;whiteSpace=wrap;fillColor=#dae8fc;shape=mxgraph.archimate3.businessObject;overflow=fill;strokeColor=#6c8ebf;fontStyle=0" vertex="1" parent="y6HC1oknwoSADN_m1p-D-1">
          <mxGeometry x="65" y="361" width="160" height="50" as="geometry" />
        </mxCell>
        <mxCell id="QfE7_d8JJjclEiBsj3Uo-2" value="cmdb_ci" style="html=1;outlineConnect=0;whiteSpace=wrap;fillColor=#dae8fc;shape=mxgraph.archimate3.businessObject;overflow=fill;strokeColor=#6c8ebf;" vertex="1" parent="y6HC1oknwoSADN_m1p-D-1">
          <mxGeometry x="469" y="361" width="161" height="50" as="geometry" />
        </mxCell>
        <mxCell id="QfE7_d8JJjclEiBsj3Uo-4" value="cmdb" style="html=1;outlineConnect=0;whiteSpace=wrap;fillColor=#dae8fc;shape=mxgraph.archimate3.businessObject;overflow=fill;strokeColor=#6c8ebf;" vertex="1" parent="y6HC1oknwoSADN_m1p-D-1">
          <mxGeometry x="671" y="361" width="160" height="51" as="geometry" />
        </mxCell>
      </root>
    </mxGraphModel>
  </diagram>
  <diagram id="-0GjVQ2w-u6F1-nN_Xd9" name="SourceStar">
    <mxGraphModel dx="1711" dy="1205" grid="0" gridSize="10" guides="1" tooltips="1" connect="1" arrows="1" fold="1" page="1" pageScale="1" pageWidth="1169" pageHeight="827" math="0" shadow="0">
      <root>
        <mxCell id="0" />
        <mxCell id="1" parent="0" />
        <mxCell id="1-WOWmvDrKWyMFJxuiMH-1" value="V_CMDB_IP_ADDRESS&lt;br&gt;&lt;br&gt;&lt;font color=&quot;#ff3333&quot;&gt;PK: CI_ID + CODE&amp;nbsp; &amp;nbsp;!!!&lt;/font&gt;" style="html=1;outlineConnect=0;whiteSpace=wrap;fillColor=#dae8fc;shape=mxgraph.archimate3.businessObject;overflow=fill;strokeColor=#6c8ebf;" vertex="1" parent="1">
          <mxGeometry x="443.25" y="193" width="205" height="61" as="geometry" />
        </mxCell>
        <mxCell id="1-WOWmvDrKWyMFJxuiMH-2" value="CI_ID" style="fontSize=12;html=1;endArrow=ERzeroToMany;endFill=1;rounded=0;fillColor=#dae8fc;strokeColor=#FF3333;" edge="1" parent="1" source="1-WOWmvDrKWyMFJxuiMH-3" target="1-WOWmvDrKWyMFJxuiMH-1">
          <mxGeometry width="100" height="100" relative="1" as="geometry">
            <mxPoint x="572.9566210045664" y="120" as="sourcePoint" />
            <mxPoint x="585" y="616" as="targetPoint" />
          </mxGeometry>
        </mxCell>
        <mxCell id="1-WOWmvDrKWyMFJxuiMH-3" value="CMDB_CI&lt;br&gt;&lt;br&gt;PK: CI_ID" style="html=1;outlineConnect=0;whiteSpace=wrap;fillColor=#dae8fc;shape=mxgraph.archimate3.businessObject;overflow=fill;strokeColor=#6c8ebf;" vertex="1" parent="1">
          <mxGeometry x="438" y="328" width="215.5" height="60" as="geometry" />
        </mxCell>
        <mxCell id="1-WOWmvDrKWyMFJxuiMH-4" value="V_CMDB_IP_DEVICE_PRINTER&lt;br&gt;&lt;br&gt;PK: CI_ID" style="html=1;outlineConnect=0;whiteSpace=wrap;fillColor=#dae8fc;shape=mxgraph.archimate3.businessObject;overflow=fill;strokeColor=#6c8ebf;" vertex="1" parent="1">
          <mxGeometry x="129" y="328" width="210" height="60" as="geometry" />
        </mxCell>
        <mxCell id="1-WOWmvDrKWyMFJxuiMH-5" value="CI_ID" style="fontSize=12;html=1;endArrow=ERzeroToOne;endFill=0;rounded=0;fillColor=#dae8fc;strokeColor=#6c8ebf;" edge="1" parent="1" source="1-WOWmvDrKWyMFJxuiMH-3" target="1-WOWmvDrKWyMFJxuiMH-4">
          <mxGeometry width="100" height="100" relative="1" as="geometry">
            <mxPoint x="604" y="424" as="sourcePoint" />
            <mxPoint x="587" y="530" as="targetPoint" />
          </mxGeometry>
        </mxCell>
        <mxCell id="1-WOWmvDrKWyMFJxuiMH-6" value="V_CMDB_IP_DEVICE&lt;br&gt;&lt;br&gt;PK: CI_ID" style="html=1;outlineConnect=0;whiteSpace=wrap;fillColor=#dae8fc;shape=mxgraph.archimate3.businessObject;overflow=fill;strokeColor=#6c8ebf;" vertex="1" parent="1">
          <mxGeometry x="129" y="523" width="210" height="61" as="geometry" />
        </mxCell>
        <mxCell id="1-WOWmvDrKWyMFJxuiMH-7" value="CI_ID" style="fontSize=12;html=1;endArrow=ERzeroToOne;endFill=0;rounded=0;fillColor=#dae8fc;strokeColor=#6c8ebf;" edge="1" parent="1" source="1-WOWmvDrKWyMFJxuiMH-3" target="1-WOWmvDrKWyMFJxuiMH-6">
          <mxGeometry width="100" height="100" relative="1" as="geometry">
            <mxPoint x="518" y="233" as="sourcePoint" />
            <mxPoint x="631" y="470" as="targetPoint" />
          </mxGeometry>
        </mxCell>
        <mxCell id="1-WOWmvDrKWyMFJxuiMH-8" value="V_CMDB_PHONECONTRACT&lt;br&gt;&lt;br&gt;&lt;font color=&quot;#ff3333&quot;&gt;PK: CI_ID +&amp;nbsp;TKANLAGE_GLOBAL_ID&lt;/font&gt;" style="html=1;outlineConnect=0;whiteSpace=wrap;fillColor=#dae8fc;shape=mxgraph.archimate3.businessObject;overflow=fill;strokeColor=#6c8ebf;" vertex="1" parent="1">
          <mxGeometry x="440.75" y="522" width="210" height="61" as="geometry" />
        </mxCell>
        <mxCell id="1-WOWmvDrKWyMFJxuiMH-9" value="V_CMDB_PHONEGROUP&lt;br&gt;&lt;br&gt;PK: CI_ID" style="html=1;outlineConnect=0;whiteSpace=wrap;fillColor=#dae8fc;shape=mxgraph.archimate3.businessObject;overflow=fill;strokeColor=#6c8ebf;" vertex="1" parent="1">
          <mxGeometry x="844" y="522" width="210" height="61" as="geometry" />
        </mxCell>
        <mxCell id="1-WOWmvDrKWyMFJxuiMH-10" value="CI_ID" style="fontSize=12;html=1;endArrow=ERzeroToOne;endFill=0;rounded=0;fillColor=#dae8fc;strokeColor=#6c8ebf;" edge="1" parent="1" source="1-WOWmvDrKWyMFJxuiMH-3" target="1-WOWmvDrKWyMFJxuiMH-9">
          <mxGeometry width="100" height="100" relative="1" as="geometry">
            <mxPoint x="551" y="233" as="sourcePoint" />
            <mxPoint x="874" y="393" as="targetPoint" />
          </mxGeometry>
        </mxCell>
        <mxCell id="1-WOWmvDrKWyMFJxuiMH-16" value="V_CMDB_PHONE_GRPMBR" style="html=1;outlineConnect=0;whiteSpace=wrap;fillColor=#dae8fc;shape=mxgraph.archimate3.businessObject;overflow=fill;strokeColor=#6c8ebf;" vertex="1" parent="1">
          <mxGeometry x="887" y="603" width="202" height="55" as="geometry" />
        </mxCell>
        <mxCell id="twIGyOFzCb9MJOZK3sOc-1" value="V_CMDB_MOBILE_DEVICES&lt;br&gt;&lt;br&gt;PK: CI_ID" style="html=1;outlineConnect=0;whiteSpace=wrap;fillColor=#dae8fc;shape=mxgraph.archimate3.businessObject;overflow=fill;strokeColor=#6c8ebf;" vertex="1" parent="1">
          <mxGeometry x="844" y="328" width="210" height="61" as="geometry" />
        </mxCell>
        <mxCell id="twIGyOFzCb9MJOZK3sOc-2" value="CI_ID" style="fontSize=12;html=1;endArrow=ERzeroToOne;endFill=0;rounded=0;fillColor=#dae8fc;strokeColor=#6c8ebf;" edge="1" parent="1" source="1-WOWmvDrKWyMFJxuiMH-3" target="twIGyOFzCb9MJOZK3sOc-1">
          <mxGeometry width="100" height="100" relative="1" as="geometry">
            <mxPoint x="664" y="368" as="sourcePoint" />
            <mxPoint x="780" y="368" as="targetPoint" />
          </mxGeometry>
        </mxCell>
        <mxCell id="twIGyOFzCb9MJOZK3sOc-3" value="V_CMDB_BASIC_WORKPLACES&lt;br&gt;&lt;br&gt;PK: CI_ID" style="html=1;outlineConnect=0;whiteSpace=wrap;fillColor=#dae8fc;shape=mxgraph.archimate3.businessObject;overflow=fill;strokeColor=#6c8ebf;" vertex="1" parent="1">
          <mxGeometry x="844" y="187" width="210" height="61" as="geometry" />
        </mxCell>
        <mxCell id="twIGyOFzCb9MJOZK3sOc-4" value="CI_ID" style="fontSize=12;html=1;endArrow=ERzeroToOne;endFill=0;rounded=0;fillColor=#dae8fc;strokeColor=#6c8ebf;" edge="1" parent="1" source="1-WOWmvDrKWyMFJxuiMH-3" target="twIGyOFzCb9MJOZK3sOc-3">
          <mxGeometry width="100" height="100" relative="1" as="geometry">
            <mxPoint x="664" y="368" as="sourcePoint" />
            <mxPoint x="780" y="368" as="targetPoint" />
          </mxGeometry>
        </mxCell>
        <mxCell id="twIGyOFzCb9MJOZK3sOc-5" value="CI_ID" style="fontSize=12;html=1;endArrow=ERzeroToMany;endFill=1;rounded=0;fillColor=#dae8fc;strokeColor=#FF3333;" edge="1" parent="1" source="1-WOWmvDrKWyMFJxuiMH-3" target="1-WOWmvDrKWyMFJxuiMH-8">
          <mxGeometry width="100" height="100" relative="1" as="geometry">
            <mxPoint x="596" y="399" as="sourcePoint" />
            <mxPoint x="556" y="264" as="targetPoint" />
          </mxGeometry>
        </mxCell>
        <mxCell id="twIGyOFzCb9MJOZK3sOc-6" value="CMDB_CI&lt;br&gt;&lt;br&gt;join LOCAL_ID" style="html=1;outlineConnect=0;whiteSpace=wrap;fillColor=#dae8fc;shape=mxgraph.archimate3.businessObject;overflow=fill;strokeColor=#6c8ebf;" vertex="1" parent="1">
          <mxGeometry x="495.75" y="709" width="100" height="60" as="geometry" />
        </mxCell>
        <mxCell id="twIGyOFzCb9MJOZK3sOc-7" value="T_VOIPPROFIL&lt;br&gt;&lt;br&gt;TKANLAGE_ID" style="html=1;outlineConnect=0;whiteSpace=wrap;fillColor=#dae8fc;shape=mxgraph.archimate3.businessObject;overflow=fill;strokeColor=#6c8ebf;" vertex="1" parent="1">
          <mxGeometry x="469" y="630" width="100" height="60" as="geometry" />
        </mxCell>
      </root>
    </mxGraphModel>
  </diagram>
  <diagram name="SourceStarPrinter" id="5n0v99sd2csnKgw8HSSp">
    <mxGraphModel dx="1711" dy="1205" grid="0" gridSize="10" guides="1" tooltips="1" connect="1" arrows="1" fold="1" page="1" pageScale="1" pageWidth="1169" pageHeight="827" math="0" shadow="0">
      <root>
        <mxCell id="u8an3EuGELjMrUbO22-0-0" />
        <mxCell id="u8an3EuGELjMrUbO22-0-1" parent="u8an3EuGELjMrUbO22-0-0" />
        <mxCell id="u8an3EuGELjMrUbO22-0-2" value="V_CMDB_IP_ADDRESS&lt;br&gt;&lt;br&gt;&lt;font color=&quot;#ff3333&quot;&gt;PK: CI_ID + CODE&amp;nbsp; &amp;nbsp;!!!&lt;/font&gt;" style="html=1;outlineConnect=0;whiteSpace=wrap;fillColor=#ffe6cc;shape=mxgraph.archimate3.businessObject;overflow=fill;strokeColor=#d79b00;" vertex="1" parent="u8an3EuGELjMrUbO22-0-1">
          <mxGeometry x="443.25" y="193" width="205" height="61" as="geometry" />
        </mxCell>
        <mxCell id="u8an3EuGELjMrUbO22-0-3" value="CI_ID" style="fontSize=12;html=1;endArrow=ERzeroToMany;endFill=1;rounded=0;fillColor=#ffe6cc;strokeColor=#d79b00;" edge="1" parent="u8an3EuGELjMrUbO22-0-1" source="u8an3EuGELjMrUbO22-0-4" target="u8an3EuGELjMrUbO22-0-2">
          <mxGeometry width="100" height="100" relative="1" as="geometry">
            <mxPoint x="572.9566210045664" y="120" as="sourcePoint" />
            <mxPoint x="585" y="616" as="targetPoint" />
          </mxGeometry>
        </mxCell>
        <mxCell id="u8an3EuGELjMrUbO22-0-4" value="CMDB_CI&lt;br&gt;&lt;br&gt;PK: CI_ID" style="html=1;outlineConnect=0;whiteSpace=wrap;fillColor=#ffe6cc;shape=mxgraph.archimate3.businessObject;overflow=fill;strokeColor=#d79b00;" vertex="1" parent="u8an3EuGELjMrUbO22-0-1">
          <mxGeometry x="438" y="328" width="215.5" height="60" as="geometry" />
        </mxCell>
        <mxCell id="u8an3EuGELjMrUbO22-0-5" value="V_CMDB_IP_DEVICE_PRINTER&lt;br&gt;&lt;br&gt;PK: CI_ID" style="html=1;outlineConnect=0;whiteSpace=wrap;fillColor=#ffe6cc;shape=mxgraph.archimate3.businessObject;overflow=fill;strokeColor=#d79b00;" vertex="1" parent="u8an3EuGELjMrUbO22-0-1">
          <mxGeometry x="129" y="328" width="210" height="60" as="geometry" />
        </mxCell>
        <mxCell id="u8an3EuGELjMrUbO22-0-6" value="CI_ID" style="fontSize=12;html=1;endArrow=ERzeroToOne;endFill=0;rounded=0;fillColor=#ffe6cc;strokeColor=#d79b00;" edge="1" parent="u8an3EuGELjMrUbO22-0-1" source="u8an3EuGELjMrUbO22-0-4" target="u8an3EuGELjMrUbO22-0-5">
          <mxGeometry width="100" height="100" relative="1" as="geometry">
            <mxPoint x="604" y="424" as="sourcePoint" />
            <mxPoint x="587" y="530" as="targetPoint" />
          </mxGeometry>
        </mxCell>
        <mxCell id="u8an3EuGELjMrUbO22-0-7" value="V_CMDB_IP_DEVICE&lt;br&gt;&lt;br&gt;PK: CI_ID" style="html=1;outlineConnect=0;whiteSpace=wrap;fillColor=#ffe6cc;shape=mxgraph.archimate3.businessObject;overflow=fill;strokeColor=#d79b00;" vertex="1" parent="u8an3EuGELjMrUbO22-0-1">
          <mxGeometry x="129" y="523" width="210" height="61" as="geometry" />
        </mxCell>
        <mxCell id="u8an3EuGELjMrUbO22-0-8" value="CI_ID" style="fontSize=12;html=1;endArrow=ERzeroToOne;endFill=0;rounded=0;fillColor=#dae8fc;strokeColor=#6c8ebf;" edge="1" parent="u8an3EuGELjMrUbO22-0-1" source="u8an3EuGELjMrUbO22-0-4" target="u8an3EuGELjMrUbO22-0-7">
          <mxGeometry width="100" height="100" relative="1" as="geometry">
            <mxPoint x="518" y="233" as="sourcePoint" />
            <mxPoint x="631" y="470" as="targetPoint" />
          </mxGeometry>
        </mxCell>
        <mxCell id="u8an3EuGELjMrUbO22-0-9" value="V_CMDB_PHONECONTRACT&lt;br&gt;&lt;br&gt;&lt;font color=&quot;#ff3333&quot;&gt;PK: CI_ID +&amp;nbsp;TKANLAGE_GLOBAL_ID&lt;/font&gt;" style="html=1;outlineConnect=0;whiteSpace=wrap;fillColor=#dae8fc;shape=mxgraph.archimate3.businessObject;overflow=fill;strokeColor=#6c8ebf;" vertex="1" parent="u8an3EuGELjMrUbO22-0-1">
          <mxGeometry x="440.75" y="522" width="210" height="61" as="geometry" />
        </mxCell>
        <mxCell id="u8an3EuGELjMrUbO22-0-10" value="V_CMDB_PHONEGROUP&lt;br&gt;&lt;br&gt;PK: CI_ID" style="html=1;outlineConnect=0;whiteSpace=wrap;fillColor=#dae8fc;shape=mxgraph.archimate3.businessObject;overflow=fill;strokeColor=#6c8ebf;" vertex="1" parent="u8an3EuGELjMrUbO22-0-1">
          <mxGeometry x="793" y="522" width="210" height="61" as="geometry" />
        </mxCell>
        <mxCell id="u8an3EuGELjMrUbO22-0-11" value="CI_ID" style="fontSize=12;html=1;endArrow=ERzeroToOne;endFill=0;rounded=0;fillColor=#dae8fc;strokeColor=#6c8ebf;" edge="1" parent="u8an3EuGELjMrUbO22-0-1" source="u8an3EuGELjMrUbO22-0-4" target="u8an3EuGELjMrUbO22-0-10">
          <mxGeometry width="100" height="100" relative="1" as="geometry">
            <mxPoint x="551" y="233" as="sourcePoint" />
            <mxPoint x="874" y="393" as="targetPoint" />
          </mxGeometry>
        </mxCell>
        <mxCell id="u8an3EuGELjMrUbO22-0-12" value="V_CMDB_PHONE_GRPMBR" style="html=1;outlineConnect=0;whiteSpace=wrap;fillColor=#dae8fc;shape=mxgraph.archimate3.businessObject;overflow=fill;strokeColor=#6c8ebf;" vertex="1" parent="u8an3EuGELjMrUbO22-0-1">
          <mxGeometry x="836" y="603" width="202" height="55" as="geometry" />
        </mxCell>
        <mxCell id="u8an3EuGELjMrUbO22-0-13" value="V_CMDB_MOBILE_DEVICES&lt;br&gt;&lt;br&gt;PK: CI_ID" style="html=1;outlineConnect=0;whiteSpace=wrap;fillColor=#dae8fc;shape=mxgraph.archimate3.businessObject;overflow=fill;strokeColor=#6c8ebf;" vertex="1" parent="u8an3EuGELjMrUbO22-0-1">
          <mxGeometry x="793" y="328" width="210" height="61" as="geometry" />
        </mxCell>
        <mxCell id="u8an3EuGELjMrUbO22-0-14" value="CI_ID" style="fontSize=12;html=1;endArrow=ERzeroToOne;endFill=0;rounded=0;fillColor=#dae8fc;strokeColor=#6c8ebf;" edge="1" parent="u8an3EuGELjMrUbO22-0-1" source="u8an3EuGELjMrUbO22-0-4" target="u8an3EuGELjMrUbO22-0-13">
          <mxGeometry width="100" height="100" relative="1" as="geometry">
            <mxPoint x="664" y="368" as="sourcePoint" />
            <mxPoint x="780" y="368" as="targetPoint" />
          </mxGeometry>
        </mxCell>
        <mxCell id="u8an3EuGELjMrUbO22-0-15" value="V_CMDB_BASIC_WORKPLACES&lt;br&gt;&lt;br&gt;PK: CI_ID" style="html=1;outlineConnect=0;whiteSpace=wrap;fillColor=#dae8fc;shape=mxgraph.archimate3.businessObject;overflow=fill;strokeColor=#6c8ebf;" vertex="1" parent="u8an3EuGELjMrUbO22-0-1">
          <mxGeometry x="793" y="187" width="210" height="61" as="geometry" />
        </mxCell>
        <mxCell id="u8an3EuGELjMrUbO22-0-16" value="CI_ID" style="fontSize=12;html=1;endArrow=ERzeroToOne;endFill=0;rounded=0;fillColor=#dae8fc;strokeColor=#6c8ebf;" edge="1" parent="u8an3EuGELjMrUbO22-0-1" source="u8an3EuGELjMrUbO22-0-4" target="u8an3EuGELjMrUbO22-0-15">
          <mxGeometry width="100" height="100" relative="1" as="geometry">
            <mxPoint x="664" y="368" as="sourcePoint" />
            <mxPoint x="780" y="368" as="targetPoint" />
          </mxGeometry>
        </mxCell>
        <mxCell id="u8an3EuGELjMrUbO22-0-17" value="CI_ID" style="fontSize=12;html=1;endArrow=ERzeroToMany;endFill=1;rounded=0;fillColor=#ffe6cc;strokeColor=#d79b00;" edge="1" parent="u8an3EuGELjMrUbO22-0-1" source="u8an3EuGELjMrUbO22-0-4" target="u8an3EuGELjMrUbO22-0-9">
          <mxGeometry width="100" height="100" relative="1" as="geometry">
            <mxPoint x="596" y="399" as="sourcePoint" />
            <mxPoint x="556" y="264" as="targetPoint" />
          </mxGeometry>
        </mxCell>
      </root>
    </mxGraphModel>
  </diagram>
  <diagram id="qOJfmeMptNHJs6J1GD0c" name="Vision">
    <mxGraphModel dx="1711" dy="1205" grid="0" gridSize="10" guides="1" tooltips="1" connect="1" arrows="1" fold="1" page="1" pageScale="1" pageWidth="1169" pageHeight="827" math="0" shadow="0">
      <root>
        <mxCell id="0" />
        <mxCell id="1" parent="0" />
        <mxCell id="ngETcyTxvMbDPHaEo8yi-1" value="u_cmdb_ds_sstdb" style="html=1;outlineConnect=0;whiteSpace=wrap;fillColor=#dae8fc;shape=mxgraph.archimate3.businessObject;overflow=fill;strokeColor=#6c8ebf;" vertex="1" parent="1">
          <mxGeometry x="761" y="140" width="180" height="61" as="geometry" />
        </mxCell>
        <mxCell id="ngETcyTxvMbDPHaEo8yi-2" value="u_cmdb_ds_sstdb_ci" style="html=1;outlineConnect=0;whiteSpace=wrap;fillColor=#e1d5e7;shape=mxgraph.archimate3.businessObject;overflow=fill;strokeColor=#9673a6;dashed=1;" vertex="1" parent="1">
          <mxGeometry x="786" y="159" width="130" height="30" as="geometry" />
        </mxCell>
        <mxCell id="ngETcyTxvMbDPHaEo8yi-3" value="cmdb_ci" style="html=1;outlineConnect=0;whiteSpace=wrap;fillColor=#dae8fc;shape=mxgraph.archimate3.businessObject;overflow=fill;strokeColor=#6c8ebf;" vertex="1" parent="1">
          <mxGeometry x="969" y="55" width="75" height="97" as="geometry" />
        </mxCell>
        <mxCell id="ngETcyTxvMbDPHaEo8yi-4" value="u_cmdb_ds_sstdb_accounting" style="html=1;outlineConnect=0;whiteSpace=wrap;fillColor=#fff2cc;shape=mxgraph.archimate3.businessObject;overflow=fill;strokeColor=#d6b656;dashed=1;" vertex="1" parent="1">
          <mxGeometry x="756" y="55" width="185" height="40" as="geometry" />
        </mxCell>
        <mxCell id="ngETcyTxvMbDPHaEo8yi-5" value="Account Asset" style="fontSize=12;html=1;endArrow=ERzeroToMany;endFill=1;rounded=0;fillColor=#dae8fc;strokeColor=#6c8ebf;" edge="1" parent="1" source="ngETcyTxvMbDPHaEo8yi-1" target="ngETcyTxvMbDPHaEo8yi-4">
          <mxGeometry width="100" height="100" relative="1" as="geometry">
            <mxPoint x="909" y="114" as="sourcePoint" />
            <mxPoint x="861" y="591" as="targetPoint" />
          </mxGeometry>
        </mxCell>
        <mxCell id="ngETcyTxvMbDPHaEo8yi-6" value="u_cmdb_ds_sstdb_ci" style="html=1;outlineConnect=0;whiteSpace=wrap;shape=mxgraph.archimate3.businessObject;overflow=fill;dashed=1;" vertex="1" parent="1">
          <mxGeometry x="486.5" y="141" width="240" height="61" as="geometry" />
        </mxCell>
        <mxCell id="ngETcyTxvMbDPHaEo8yi-7" value="u_cmdb_ds_sstdb_accounting" style="html=1;outlineConnect=0;whiteSpace=wrap;shape=mxgraph.archimate3.businessObject;overflow=fill;dashed=1;" vertex="1" parent="1">
          <mxGeometry x="486.5" y="55" width="240" height="41" as="geometry" />
        </mxCell>
        <mxCell id="ngETcyTxvMbDPHaEo8yi-8" value="cmdb" style="html=1;outlineConnect=0;whiteSpace=wrap;fillColor=#dae8fc;shape=mxgraph.archimate3.businessObject;overflow=fill;strokeColor=#6c8ebf;" vertex="1" parent="1">
          <mxGeometry x="1067" y="55" width="79" height="97" as="geometry" />
        </mxCell>
        <mxCell id="ngETcyTxvMbDPHaEo8yi-9" value="u_cmdb_ds_sstdb_ip_device" style="html=1;outlineConnect=0;whiteSpace=wrap;fillColor=#dae8fc;shape=mxgraph.archimate3.businessObject;overflow=fill;strokeColor=#6c8ebf;" vertex="1" parent="1">
          <mxGeometry x="486.5" y="282" width="241.5" height="43" as="geometry" />
        </mxCell>
        <mxCell id="ngETcyTxvMbDPHaEo8yi-10" value="u_cmdb_ds_sstdb_phonecontract" style="html=1;outlineConnect=0;whiteSpace=wrap;fillColor=#dae8fc;shape=mxgraph.archimate3.businessObject;overflow=fill;strokeColor=#6c8ebf;" vertex="1" parent="1">
          <mxGeometry x="486.5" y="394" width="241.5" height="41" as="geometry" />
        </mxCell>
        <mxCell id="ngETcyTxvMbDPHaEo8yi-11" value="u_cmdb_ds_sstdb_phonegroup" style="html=1;outlineConnect=0;whiteSpace=wrap;fillColor=#dae8fc;shape=mxgraph.archimate3.businessObject;overflow=fill;strokeColor=#6c8ebf;" vertex="1" parent="1">
          <mxGeometry x="485" y="451" width="241.5" height="43" as="geometry" />
        </mxCell>
        <mxCell id="ngETcyTxvMbDPHaEo8yi-12" value="u_cmdb_ds_sstdb_ip_address" style="html=1;outlineConnect=0;whiteSpace=wrap;fillColor=#dae8fc;shape=mxgraph.archimate3.businessObject;overflow=fill;strokeColor=#6c8ebf;fontStyle=0" vertex="1" parent="1">
          <mxGeometry x="486.5" y="220" width="241.5" height="45" as="geometry" />
        </mxCell>
        <mxCell id="ngETcyTxvMbDPHaEo8yi-13" value="u_cmdb_ds_sstdb_ip_device_printer&lt;br&gt;&lt;br&gt;&lt;b&gt;&lt;font color=&quot;#ff3333&quot;&gt;???&lt;/font&gt;&lt;/b&gt;" style="html=1;outlineConnect=0;whiteSpace=wrap;fillColor=#dae8fc;shape=mxgraph.archimate3.businessObject;overflow=fill;strokeColor=#6c8ebf;" vertex="1" parent="1">
          <mxGeometry x="486.5" y="338" width="241.5" height="43" as="geometry" />
        </mxCell>
        <mxCell id="ngETcyTxvMbDPHaEo8yi-14" value="u_cmdb_ds_sstdb_phonegroup_member&lt;br&gt;&lt;br&gt;&lt;b style=&quot;border-color: var(--border-color);&quot;&gt;&lt;font style=&quot;border-color: var(--border-color);&quot; color=&quot;#ff3333&quot;&gt;???&lt;/font&gt;&lt;/b&gt;" style="html=1;outlineConnect=0;whiteSpace=wrap;fillColor=#dae8fc;shape=mxgraph.archimate3.businessObject;overflow=fill;strokeColor=#6c8ebf;" vertex="1" parent="1">
          <mxGeometry x="485.75" y="576" width="241.5" height="43" as="geometry" />
        </mxCell>
        <mxCell id="ngETcyTxvMbDPHaEo8yi-15" value="u_cmdb_ds_sstdb_mobile_device" style="html=1;outlineConnect=0;whiteSpace=wrap;fillColor=#dae8fc;shape=mxgraph.archimate3.businessObject;overflow=fill;strokeColor=#6c8ebf;" vertex="1" parent="1">
          <mxGeometry x="485.75" y="514" width="241.5" height="44" as="geometry" />
        </mxCell>
        <mxCell id="ngETcyTxvMbDPHaEo8yi-16" value="u_cmdb_ds_acat_software" style="html=1;outlineConnect=0;whiteSpace=wrap;fillColor=#dae8fc;shape=mxgraph.archimate3.businessObject;overflow=fill;strokeColor=#6c8ebf;fontStyle=0" vertex="1" parent="1">
          <mxGeometry x="485" y="956" width="241.5" height="43" as="geometry" />
        </mxCell>
        <mxCell id="7oC0EhshWbzqOsgAs2XE-1" value="DB Office 365" style="html=1;outlineConnect=0;whiteSpace=wrap;fillColor=#d5e8d4;shape=mxgraph.archimate3.businessObject;overflow=fill;strokeColor=#82b366;fontStyle=0" vertex="1" parent="1">
          <mxGeometry x="192" y="956" width="241.5" height="43" as="geometry" />
        </mxCell>
        <mxCell id="7oC0EhshWbzqOsgAs2XE-2" value="Other Products and Services" style="html=1;outlineConnect=0;whiteSpace=wrap;fillColor=#d5e8d4;shape=mxgraph.archimate3.businessObject;overflow=fill;strokeColor=#82b366;fontStyle=0" vertex="1" parent="1">
          <mxGeometry x="192" y="1007" width="241.5" height="43" as="geometry" />
        </mxCell>
        <mxCell id="7oC0EhshWbzqOsgAs2XE-3" value="Software" style="html=1;outlineConnect=0;whiteSpace=wrap;fillColor=#d5e8d4;shape=mxgraph.archimate3.businessObject;overflow=fill;strokeColor=#82b366;fontStyle=0" vertex="1" parent="1">
          <mxGeometry x="192" y="1061" width="241.5" height="43" as="geometry" />
        </mxCell>
        <mxCell id="7oC0EhshWbzqOsgAs2XE-4" value="Web Conferences" style="html=1;outlineConnect=0;whiteSpace=wrap;fillColor=#d5e8d4;shape=mxgraph.archimate3.businessObject;overflow=fill;strokeColor=#82b366;fontStyle=0" vertex="1" parent="1">
          <mxGeometry x="192" y="1123" width="241.5" height="43" as="geometry" />
        </mxCell>
        <mxCell id="7oC0EhshWbzqOsgAs2XE-5" value="Basic Workplaces" style="html=1;outlineConnect=0;whiteSpace=wrap;fillColor=#d5e8d4;shape=mxgraph.archimate3.businessObject;overflow=fill;strokeColor=#82b366;" vertex="1" parent="1">
          <mxGeometry x="485" y="636" width="241.5" height="44" as="geometry" />
        </mxCell>
        <mxCell id="7oC0EhshWbzqOsgAs2XE-6" value="IP Ports" style="html=1;outlineConnect=0;whiteSpace=wrap;fillColor=#d5e8d4;shape=mxgraph.archimate3.businessObject;overflow=fill;strokeColor=#82b366;" vertex="1" parent="1">
          <mxGeometry x="485" y="703" width="241.5" height="44" as="geometry" />
        </mxCell>
        <mxCell id="7oC0EhshWbzqOsgAs2XE-7" value="Networkboxes" style="html=1;outlineConnect=0;whiteSpace=wrap;fillColor=#d5e8d4;shape=mxgraph.archimate3.businessObject;overflow=fill;strokeColor=#82b366;" vertex="1" parent="1">
          <mxGeometry x="485.75" y="767" width="241.5" height="44" as="geometry" />
        </mxCell>
        <mxCell id="7oC0EhshWbzqOsgAs2XE-8" value="Video Conferencing" style="html=1;outlineConnect=0;whiteSpace=wrap;fillColor=#d5e8d4;shape=mxgraph.archimate3.businessObject;overflow=fill;strokeColor=#82b366;" vertex="1" parent="1">
          <mxGeometry x="486.5" y="829" width="241.5" height="44" as="geometry" />
        </mxCell>
        <mxCell id="7oC0EhshWbzqOsgAs2XE-9" value="Web Conferences" style="html=1;outlineConnect=0;whiteSpace=wrap;fillColor=#d5e8d4;shape=mxgraph.archimate3.businessObject;overflow=fill;strokeColor=#82b366;" vertex="1" parent="1">
          <mxGeometry x="485.75" y="889" width="241.5" height="44" as="geometry" />
        </mxCell>
      </root>
    </mxGraphModel>
  </diagram>
  <diagram name="VisionPrinter" id="gkPyweVs2RL9VKJvZZtX">
    <mxGraphModel dx="1711" dy="1205" grid="0" gridSize="10" guides="1" tooltips="1" connect="1" arrows="1" fold="1" page="1" pageScale="1" pageWidth="1169" pageHeight="827" math="0" shadow="0">
      <root>
        <mxCell id="YX8aRbytLqZ86VxBtwbp-0" />
        <mxCell id="YX8aRbytLqZ86VxBtwbp-1" parent="YX8aRbytLqZ86VxBtwbp-0" />
        <mxCell id="YX8aRbytLqZ86VxBtwbp-2" value="u_cmdb_ds_sstdb" style="html=1;outlineConnect=0;whiteSpace=wrap;fillColor=#dae8fc;shape=mxgraph.archimate3.businessObject;overflow=fill;strokeColor=#6c8ebf;" vertex="1" parent="YX8aRbytLqZ86VxBtwbp-1">
          <mxGeometry x="761" y="140" width="180" height="61" as="geometry" />
        </mxCell>
        <mxCell id="YX8aRbytLqZ86VxBtwbp-3" value="u_cmdb_ds_sstdb_ci" style="html=1;outlineConnect=0;whiteSpace=wrap;fillColor=#e1d5e7;shape=mxgraph.archimate3.businessObject;overflow=fill;strokeColor=#9673a6;dashed=1;" vertex="1" parent="YX8aRbytLqZ86VxBtwbp-1">
          <mxGeometry x="786" y="159" width="130" height="30" as="geometry" />
        </mxCell>
        <mxCell id="YX8aRbytLqZ86VxBtwbp-4" value="cmdb_ci" style="html=1;outlineConnect=0;whiteSpace=wrap;fillColor=#dae8fc;shape=mxgraph.archimate3.businessObject;overflow=fill;strokeColor=#6c8ebf;" vertex="1" parent="YX8aRbytLqZ86VxBtwbp-1">
          <mxGeometry x="969" y="55" width="75" height="97" as="geometry" />
        </mxCell>
        <mxCell id="YX8aRbytLqZ86VxBtwbp-5" value="u_cmdb_ds_sstdb_accounting" style="html=1;outlineConnect=0;whiteSpace=wrap;fillColor=#fff2cc;shape=mxgraph.archimate3.businessObject;overflow=fill;strokeColor=#d6b656;dashed=1;" vertex="1" parent="YX8aRbytLqZ86VxBtwbp-1">
          <mxGeometry x="756" y="55" width="185" height="40" as="geometry" />
        </mxCell>
        <mxCell id="YX8aRbytLqZ86VxBtwbp-6" value="Account Asset" style="fontSize=12;html=1;endArrow=ERzeroToMany;endFill=1;rounded=0;fillColor=#dae8fc;strokeColor=#6c8ebf;" edge="1" parent="YX8aRbytLqZ86VxBtwbp-1" source="YX8aRbytLqZ86VxBtwbp-2" target="YX8aRbytLqZ86VxBtwbp-5">
          <mxGeometry width="100" height="100" relative="1" as="geometry">
            <mxPoint x="909" y="114" as="sourcePoint" />
            <mxPoint x="861" y="591" as="targetPoint" />
          </mxGeometry>
        </mxCell>
        <mxCell id="YX8aRbytLqZ86VxBtwbp-7" value="u_cmdb_ds_sstdb_ci" style="html=1;outlineConnect=0;whiteSpace=wrap;shape=mxgraph.archimate3.businessObject;overflow=fill;dashed=1;" vertex="1" parent="YX8aRbytLqZ86VxBtwbp-1">
          <mxGeometry x="486.5" y="141" width="240" height="61" as="geometry" />
        </mxCell>
        <mxCell id="YX8aRbytLqZ86VxBtwbp-8" value="u_cmdb_ds_sstdb_accounting" style="html=1;outlineConnect=0;whiteSpace=wrap;shape=mxgraph.archimate3.businessObject;overflow=fill;dashed=1;" vertex="1" parent="YX8aRbytLqZ86VxBtwbp-1">
          <mxGeometry x="486.5" y="55" width="240" height="41" as="geometry" />
        </mxCell>
        <mxCell id="YX8aRbytLqZ86VxBtwbp-9" value="cmdb" style="html=1;outlineConnect=0;whiteSpace=wrap;fillColor=#dae8fc;shape=mxgraph.archimate3.businessObject;overflow=fill;strokeColor=#6c8ebf;" vertex="1" parent="YX8aRbytLqZ86VxBtwbp-1">
          <mxGeometry x="1067" y="55" width="79" height="97" as="geometry" />
        </mxCell>
        <mxCell id="YX8aRbytLqZ86VxBtwbp-10" value="u_cmdb_ds_sstdb_ip_device" style="html=1;outlineConnect=0;whiteSpace=wrap;fillColor=#dae8fc;shape=mxgraph.archimate3.businessObject;overflow=fill;strokeColor=#6c8ebf;" vertex="1" parent="YX8aRbytLqZ86VxBtwbp-1">
          <mxGeometry x="486.5" y="282" width="241.5" height="43" as="geometry" />
        </mxCell>
        <mxCell id="YX8aRbytLqZ86VxBtwbp-11" value="u_cmdb_ds_sstdb_phonecontract" style="html=1;outlineConnect=0;whiteSpace=wrap;fillColor=#dae8fc;shape=mxgraph.archimate3.businessObject;overflow=fill;strokeColor=#6c8ebf;" vertex="1" parent="YX8aRbytLqZ86VxBtwbp-1">
          <mxGeometry x="486.5" y="394" width="241.5" height="41" as="geometry" />
        </mxCell>
        <mxCell id="YX8aRbytLqZ86VxBtwbp-12" value="u_cmdb_ds_sstdb_phonegroup" style="html=1;outlineConnect=0;whiteSpace=wrap;fillColor=#dae8fc;shape=mxgraph.archimate3.businessObject;overflow=fill;strokeColor=#6c8ebf;" vertex="1" parent="YX8aRbytLqZ86VxBtwbp-1">
          <mxGeometry x="485" y="451" width="241.5" height="43" as="geometry" />
        </mxCell>
        <mxCell id="YX8aRbytLqZ86VxBtwbp-13" value="u_cmdb_ds_sstdb_ip_address" style="html=1;outlineConnect=0;whiteSpace=wrap;fillColor=#dae8fc;shape=mxgraph.archimate3.businessObject;overflow=fill;strokeColor=#6c8ebf;fontStyle=0" vertex="1" parent="YX8aRbytLqZ86VxBtwbp-1">
          <mxGeometry x="486.5" y="220" width="241.5" height="45" as="geometry" />
        </mxCell>
        <mxCell id="YX8aRbytLqZ86VxBtwbp-14" value="u_cmdb_ds_sstdb_ip_device_printer&lt;br&gt;&lt;br&gt;&lt;b&gt;&lt;font color=&quot;#ff3333&quot;&gt;???&lt;/font&gt;&lt;/b&gt;" style="html=1;outlineConnect=0;whiteSpace=wrap;fillColor=#dae8fc;shape=mxgraph.archimate3.businessObject;overflow=fill;strokeColor=#6c8ebf;" vertex="1" parent="YX8aRbytLqZ86VxBtwbp-1">
          <mxGeometry x="486.5" y="338" width="241.5" height="43" as="geometry" />
        </mxCell>
        <mxCell id="YX8aRbytLqZ86VxBtwbp-15" value="u_cmdb_ds_sstdb_phonegroup_member&lt;br&gt;&lt;br&gt;&lt;b style=&quot;border-color: var(--border-color);&quot;&gt;&lt;font style=&quot;border-color: var(--border-color);&quot; color=&quot;#ff3333&quot;&gt;???&lt;/font&gt;&lt;/b&gt;" style="html=1;outlineConnect=0;whiteSpace=wrap;fillColor=#dae8fc;shape=mxgraph.archimate3.businessObject;overflow=fill;strokeColor=#6c8ebf;" vertex="1" parent="YX8aRbytLqZ86VxBtwbp-1">
          <mxGeometry x="485.75" y="576" width="241.5" height="43" as="geometry" />
        </mxCell>
        <mxCell id="YX8aRbytLqZ86VxBtwbp-16" value="u_cmdb_ds_sstdb_mobile_device" style="html=1;outlineConnect=0;whiteSpace=wrap;fillColor=#dae8fc;shape=mxgraph.archimate3.businessObject;overflow=fill;strokeColor=#6c8ebf;" vertex="1" parent="YX8aRbytLqZ86VxBtwbp-1">
          <mxGeometry x="485.75" y="514" width="241.5" height="44" as="geometry" />
        </mxCell>
        <mxCell id="YX8aRbytLqZ86VxBtwbp-17" value="u_cmdb_ds_acat_software" style="html=1;outlineConnect=0;whiteSpace=wrap;fillColor=#dae8fc;shape=mxgraph.archimate3.businessObject;overflow=fill;strokeColor=#6c8ebf;fontStyle=0" vertex="1" parent="YX8aRbytLqZ86VxBtwbp-1">
          <mxGeometry x="485" y="956" width="241.5" height="43" as="geometry" />
        </mxCell>
        <mxCell id="YX8aRbytLqZ86VxBtwbp-18" value="DB Office 365" style="html=1;outlineConnect=0;whiteSpace=wrap;fillColor=#d5e8d4;shape=mxgraph.archimate3.businessObject;overflow=fill;strokeColor=#82b366;fontStyle=0" vertex="1" parent="YX8aRbytLqZ86VxBtwbp-1">
          <mxGeometry x="192" y="956" width="241.5" height="43" as="geometry" />
        </mxCell>
        <mxCell id="YX8aRbytLqZ86VxBtwbp-19" value="Other Products and Services" style="html=1;outlineConnect=0;whiteSpace=wrap;fillColor=#d5e8d4;shape=mxgraph.archimate3.businessObject;overflow=fill;strokeColor=#82b366;fontStyle=0" vertex="1" parent="YX8aRbytLqZ86VxBtwbp-1">
          <mxGeometry x="192" y="1007" width="241.5" height="43" as="geometry" />
        </mxCell>
        <mxCell id="YX8aRbytLqZ86VxBtwbp-20" value="Software" style="html=1;outlineConnect=0;whiteSpace=wrap;fillColor=#d5e8d4;shape=mxgraph.archimate3.businessObject;overflow=fill;strokeColor=#82b366;fontStyle=0" vertex="1" parent="YX8aRbytLqZ86VxBtwbp-1">
          <mxGeometry x="192" y="1061" width="241.5" height="43" as="geometry" />
        </mxCell>
        <mxCell id="YX8aRbytLqZ86VxBtwbp-21" value="Web Conferences" style="html=1;outlineConnect=0;whiteSpace=wrap;fillColor=#d5e8d4;shape=mxgraph.archimate3.businessObject;overflow=fill;strokeColor=#82b366;fontStyle=0" vertex="1" parent="YX8aRbytLqZ86VxBtwbp-1">
          <mxGeometry x="192" y="1123" width="241.5" height="43" as="geometry" />
        </mxCell>
        <mxCell id="YX8aRbytLqZ86VxBtwbp-22" value="Basic Workplaces" style="html=1;outlineConnect=0;whiteSpace=wrap;fillColor=#d5e8d4;shape=mxgraph.archimate3.businessObject;overflow=fill;strokeColor=#82b366;" vertex="1" parent="YX8aRbytLqZ86VxBtwbp-1">
          <mxGeometry x="485" y="636" width="241.5" height="44" as="geometry" />
        </mxCell>
        <mxCell id="YX8aRbytLqZ86VxBtwbp-23" value="IP Ports" style="html=1;outlineConnect=0;whiteSpace=wrap;fillColor=#d5e8d4;shape=mxgraph.archimate3.businessObject;overflow=fill;strokeColor=#82b366;" vertex="1" parent="YX8aRbytLqZ86VxBtwbp-1">
          <mxGeometry x="485" y="703" width="241.5" height="44" as="geometry" />
        </mxCell>
        <mxCell id="YX8aRbytLqZ86VxBtwbp-24" value="Networkboxes" style="html=1;outlineConnect=0;whiteSpace=wrap;fillColor=#d5e8d4;shape=mxgraph.archimate3.businessObject;overflow=fill;strokeColor=#82b366;" vertex="1" parent="YX8aRbytLqZ86VxBtwbp-1">
          <mxGeometry x="485.75" y="767" width="241.5" height="44" as="geometry" />
        </mxCell>
        <mxCell id="YX8aRbytLqZ86VxBtwbp-25" value="Video Conferencing" style="html=1;outlineConnect=0;whiteSpace=wrap;fillColor=#d5e8d4;shape=mxgraph.archimate3.businessObject;overflow=fill;strokeColor=#82b366;" vertex="1" parent="YX8aRbytLqZ86VxBtwbp-1">
          <mxGeometry x="486.5" y="829" width="241.5" height="44" as="geometry" />
        </mxCell>
        <mxCell id="YX8aRbytLqZ86VxBtwbp-26" value="Web Conferences" style="html=1;outlineConnect=0;whiteSpace=wrap;fillColor=#d5e8d4;shape=mxgraph.archimate3.businessObject;overflow=fill;strokeColor=#82b366;" vertex="1" parent="YX8aRbytLqZ86VxBtwbp-1">
          <mxGeometry x="485.75" y="889" width="241.5" height="44" as="geometry" />
        </mxCell>
        <mxCell id="fcbu2P2p9YJt0vswSHqb-0" value="" style="shape=image;verticalLabelPosition=bottom;labelBackgroundColor=default;verticalAlign=top;aspect=fixed;imageAspect=0;image=data:image/png,iVBORw0KGgoAAAANSUhEUgAAA6oAAAHjCAYAAAAqtOKTAAAAAXNSR0IArs4c6QAAAERlWElmTU0AKgAAAAgAAYdpAAQAAAABAAAAGgAAAAAAA6ABAAMAAAABAAEAAKACAAQAAAABAAADqqADAAQAAAABAAAB4wAAAACrSeqOAABAAElEQVR4AeydB3hURReGP3pLCCVA6L333iO99yZF2k8TBFQUFJVeBERQRBBRFBRUpChVQKR3FKV3Qg+99/bPmeXe7CabZNO3fMNzc+dOn3fCZs89Z87Ee6ECGEiABEiABEiABEiABEiABEiABEjASQjEd5JxcBgkQAIkQAIkQAIkQAIkQAIkQAIkoAlQUOUvAgmQAAmQAAmQAAmQAAmQAAmQgFMRoKDqVMvBwZAACZAACZAACZAACZAACZAACSQkAhIgARIgARIgARIgARJwBQL9Jq93hWFyjCTg9AS+eLua04+RgqrTLxEHSAIkQAIkQAIkQAIkYBDo376qEY3V+62b13H1yiVkzJQVyVN4xWrfsdnZxQtnkdY3PRInThJutw8e3MeFc6eRJm06pE7jG275qBS4d/cOLgWeR6Ys2ZE0abKoNBUndZ89fYqzZ04habJkSJ8hE+LHj7hh680b1xBP1fPxSR2lOUyZtylK9WOrcsQJxdbI2A8JkAAJkAAJkAAJkAAJRJHAsPfeQPPaZUO00qdLC3Rr1yBEevCE40cP6vplC6RH/apFUSJ3Koz+6G08ffJEFy2ZJzXy+SXE3Tu3bap+PXWCTp/7/XSd3sC/mH6WsnLVqVwIX0wcabZz4tghm3wpI3X+/GOJTbv2Hub/+E2Iuu2bVoOM3Tpcu3pZl3u9UzPrZB2f+9003d8rpXKiSLYUED4njx/WeeeVMCrjOXXiiH6+desG3urZDsVzptRMyhfy0ywvB14I0a51gjCpWCSTdRL8S+ZAp1a1zbT79+7qvpb/9otOO33qOFrWqwDhXK9KERTL4a3Li0At4dmzZyHmLmVljmdPn9Rlfvv1R81bP7z8MXH0B7re5vVrsG3TXyHakPrbt6w368s4wwrjRgzSbez/72+bYiKgfjlpNApmSYo6lQrq+dauWAD/7Nqmyz18+CBE38bvyMqlC3SZrRvXouur9VCuYAaUzZ8ObZv4Y92a5Tb9uOMDBVV3XFXOiQRIgARIgARIgARIQBOo36Q1DuzbgzMBJ0wid27f0gJg4+btzDR7kRvXr6J1g8ooUboC/j56DYfOPcTPSzdh4c/f48vJY2yqbFq/2uZ56aKfLM8vT4J8+uwpBgwehW37L2DVlgNo0qId5n3/FT58p5cuZ5wYuWbbYew+chUb/jmFYiXLaoFRNJdhBambI3c+XW/XkStYvfUQbt64jjFDBthU+2PZQqTw8sZfq5fh+rUrZt7fO7ZgxOD+GDr2cz3H39bsxlMlYA3s28VSxuo0S+mrd6fmCFTazbU7juJo4FM9n3tKwOzbrbXZpr1ImfJVIcLy+bMBOlsE38CL57B98zqIgCph/95/9L1k2Yq4cukimqmXDLny5Mfmf8/ovv7aeQyJEiVCizrlzTpSYco3v2i2wnfByq04duSgyRZqzCIwGkGEVBGa5yxYgyrVaqtsy2mdW/ae021IH6IlfrtXe0s9lf/kyWOjeoi7vLT45YeZmu2K33+1yZ/22Vj8OGsa5v2+HkcuPoH08UrN+lqwFxZG39O+Wwjp1/qqpsrJ2ndpUxeVX6mF/07e0r8XZcpVQa+OTSEvDNw5UFB159Xl3EiABEiABEiABEjAwwmULV9Fm7KutdJMblq3SlOpUbdxmHREkPT29sGHoybBO6UPEiRMiFJKgPpk6mxlfprUrFuidHn8scSi/ZJE0QIeObgP+QsVNctIRNoQs9qcufOj7ztDdDuL58/BOWUSagQpk9InlTYxrlGnkU5+8jh0IcmolzBBQl1PzEJz5MqLSv41Ieay1mHB3FkY+NHHegxrVvxmZp0OOK7jBYuW0HMspO7vD5+A6rUbmmWMyK7tm7B7x2Z8PHkmsmbPpZNlPqM++QpFS5TFg/v3jKIh7kWKl9Jpe//dre/bNq1D1ep1dDvSpoR//96unzNlzoaf5nyt+Y/+dAbS+1k0sVmy5cTEL+dogdd8GaDqybyFrVy58xZE8zYdEXDimG7T+seEke9DtNzywqFClerWWWZ96aNzj/66j+NHD9mUsfewddNabY78wYiJkPU0hGJhIVrzdz8aizLq9zBevHhIl94PA4d8jDYduuHq5UtmcxkyZob0a30lS54Chpa6SPEykGcxPe/77hD9+/PowQOzvjtGuEfVHVeVcyIBEiABEiABEiABEtAERLhs8WpnLFOmpF1ff1unrVq2CA2UplUEwrDCscMHtMCXUGnwrEOtek0glxHqNWoJMf0cqwRD0ViKUCzti9YxrFC2omW/7cnjR9Tey2y66JKF87RAKxrPn+fMRJvXuoc7Tqko2l/R9IqG7sK5M5jzzRdaoDP6F9Ni0Sx/27il0miexuJff8CrHXvo7FJlK+m7aI9F01u2oj9KlqmghSGjvnE/oQQ3Q9g20uSeN38hDBnzmXVSiLjsexXB9N/d21G/cStsVlroKtXqaMF9qzK/9a9RD//s3KrLSOW9e3ahep2GSJIk6KWApMt+WBEyTxyzmCZL2u1bNzUDmb/wXKI02jXqWgR9yZcgazRr+iRM/mqufuFgSQ36+VBpL2UPqLD/ac4MPc88al6H9v8bVMhO7PcFc9G09Wuo3aCZ1uKKMC/jO3smQJcWIdU6JEuWHIOVUCvB0JZvWLtSv+AwyolQ27DZq8iSNYcW3Ht3bo6WbbvoduX3pv/AYUZRt71TUHXbpeXESIAEYprAmWX+uB/oGg4JYpoF2ycBRwlka7gOyTNWc7Q4y5FAtBBo0KwNZn75iTY5FZNO2fs37ftF4bYtppW+SgMWXhBhJk++QtioNLUigC3/fT66v/EuZs+cEmZVQwB79PChWU7MckWgE1NYEZjEZFn2MYbnQEjMSFe+1OpeU06fJIj5qxGWLf4FoqGV+YtAZfDIrAQh0cAu37AXC376DvN//BZTPhmhBe5hY6egmdJMWofbiol3OAK+dfng8YpVa2C5GouY0sr+277vDIXsNx0/8j0MGjIOO7ZuwFilrZUg8yhYuHjwJvSzmP9aa4z7dW8Totw3c5eaabJfVcxzxUR61leTIS8X5CWGdZD9x0YQbbhochMkSGAk2b2LgCya3UWrdiBV6rRa2JaXIiKo3lUm5hLk5UV4YfH8H5BSadONEF/1K4KqjPGXZZvwm3qxIAKxvICQ0LXXW3hv2IRIOWUy+nD2u+3qOPtoOT4SIAEScDIC2SrMQPK0pZ1sVFEbzvWbt3HpyjVkzZQBXimSR60x1o42AmcvXEJ639RIkjix3TbDy7dbKZYTz+zoE8s9sjsSsBAoXLSkFlBEMMqsvMaK4CCavfBCthy5leC0PkQxcVIkAlWHLr3NvMYt2mLV0oUoWrw09inT1iqv1A5XUBUtqIS8BQqrPaFPdPyzGfO0MCkPki8OlTavW41a9Zvq/NB+iKD8zbxlZrZoJsXpTuce/bQG8mdlRisCb83y+WCYEv+hxtutzztaKM6WIxcGD/9EXyLgfvnpKAzq3xVVa9Q125SImKYGnDgK8YLskyqNmSfOpEQQbNW+q026WeBlpGwFf4j5rTgwknUQgTBztuy6TXEaJMJn6Zca3oyZs9rlL0LuJsXkrfdGmM3LHtVyShMsGtWL58+iY8ta+FZpT0eM/9Is8/38VVrgb1yjJL6ZNhG9+r9v5klE9geLJlOEQ/k9cSSsWfmbLvamci4lQQRimddHoycjU1aLllx+H4KbUYsDrOKlyiNbzty6nqx70RJldNz6x6NHD5Fcmfx27/Ouvq5cDsSvc7/FZ+OHoVylV1AzHPN167ZcLc49qq62YhwvCZAACYRC4OffVyNepjK4dsPyBtco9vk3P+n0Bw8fGUl27wePnkTpuq8hbaEaKPRKa3jn9cebQyaqt95PdfkOb3yk2/lr8y6b+lt379XpbXpZ/uC/PWySfpaxyJWhWB106j8Ul69eN+ulzOdvUyZr6QYYOWkmnj9/bpaxFzl97qKud+TEaZ1dpWm3EO0MmTAd9+47tm9HxiRjbNLZ1uHI4pXrbNqV8dZr3w979h8xh+XIPOu0fcOmHemrXINO+HPTTt3O2s07Q+Qb3C5csjg6+fK7+ShcrQ2ylWmIpDkqoVnXd3D4eIA5jvDyzYKMkICHE2ihNIPiSXb1isVo0rJ9CHNSe3jyKQFS9prKsTTW4ZsvP8XhA3utk1CzXlOsWPKr0nz9qDWXstc0vCDlJRh7PYOXFxNXP7V38diRA8Gzwn3Onb+gLhNw8pjeUyoa1y++mY8xSks44Yvv0Lr9/5Sp8GxdRjwjj3i/n9mmmPHKPkoJFy+cM9MlIvs/JezculHfjR9/rvwd82bPUGbLQVpJI8/6Li8NJExVgrBoeEVjKftLRUib8slw/ULB2I9avFQ5tWd1h3IMdc26CezbY9njKibKRpA2RFssZslF1MsCeYlw5NA+I1szlvZEMH5z0HB8OvYjvbZmARWRdZCXE44KqVJ34U/fa5bCVa5ZP6/Uwra8XJBjaERoFaHcOoiW/KN3X4dXypTWyXbjYgouLxeMIHtc+7z9ofq9yGJ6NTby3O1OQdXdVpTzIQES8FgCDWpU1nNf/udmGwa/Lv0TXV5tjGRJk9ikWz9cvX4TFRqpvS+li+Lm4fV4cmYHtiyZhe9+WYJRn32jixpC5MIVtn9wf/tjvU2+lKtfoxIu7V2Nc/+swOj3euO/A8dQsXFXPLJyCPLDFyNx4/A6BP63Gh/0/x+GTZyBbX8HfamwHp8RN7wjGs9yH9yvq+5L2pn75WiM/uxbiNDuSFiwbC28vZJj6ZqNuHLthlnF6EfmINePU0cjsTIzK1WnA0Sgl+DIPJ8pFgN6ddBtSDsnty9BzmyZUfvVPpAXB+rFvw6SHvzK4JsWm3f+i74fTsAXowfqNfln9Vw8VUcxiOAvIbx8XYg/SIAENAHx/itCjwiSDZqGNBO1h0n2topA8MHbPbTDI3GO8+u8WVj0y2y07dTTpooItWJWKmaz9ZT5r71wKfCiPuLl6KH9yhPsl1o4FI2ftXlpwMnjuozszxThUfaV+ivvr+EF0byJF1255MiVAa930EKSCGdLlMlo3UYttIdbMUmVq33X3vr4GhmLaObE7Fe878pn2+PHj5RToB90lzmVWbB1KFC4mDZvlv2eMkbpVxwhjfigPzp17xuuKars961Wq4FeC/FkawQjzb96kAZXGIug906fjnr/pnjXPbjvXwzs93KvZoXQz9RNl8HPxjTY6EfuPfsN0gLru307henN17qOaKPlpYX1dVxpnmXunbr300yFq3gRlv3LYg4sZ6WK86rvv/5cm5vL74842nr3jU66jLVALPtqrduWuGjUZa+wvGQQM3LRJMv6bPzrD+0tuUChYtZDdLs4BVW3W1JOiARIwFMJpPROgfbN62H+0jUmgvOBl7Fl13/o0CLsLznTZy+Aj7cXPhvxDnxSeiFhwgSoVKYYfvhilI2AK4LsDwuWKxO1Z7oP+YM5e/4yLeCanapI0iRJlJlqGmT2S48eHZpj3cIZOHn6PERoNoKYFadK6Y0M6dKgeX2L50VHNaFGG3IXQVP6knb8K5RCy4Y1sPKvLdZFQo1/+9PvGP9hf11ftKjBg7QrV5M6/lgye5Ke56QZc81ijszT2yuFbkPayZktkzrWwfIF1lrDLOnBrwQJ4uP4qbO6r5JF8+s1KVkkPyYOfQuNalm+nIWXbw6UERIgAWTPmUdr7UTjFty5TWh4xMvqtO8XIkAJFzXK5UXxXMoD8ICeWnNmaAat6zZu3lY/Vqtl9ZmrTEkliFferz7/GHUrF0aj6iUgmrIPRn6Kdp176XwxOZXQtnFVXaZV/YravHjClO9gry9d+OUPqSsmp9K2XP9rWx9yXIwcvyLHzIhwLfsdrUOhIiW0EL5q+SLtbEo0kHKeaYFMifU5quIQasYPv2tBUdnDWlfFEHWMjWhdZYxFs3tBzmwVRz+GcyabwnYeZJ+qBDHVNYIIyxLKv7xLXEyL5y/fokx5z0HOHi2UNZk6rqaMOi6oPGbMsZjcSjkJBj/LE/R+URH2jKNwjHS5J0qUGOM+n6UFw5lTPwlR17qsEReTZDEZtr7k2Bl5ORHcu3Odhi20YCrm0K8qZ1g93hiIN3u01b8/Mg8Rvod+PEU3bYx7YN/ONm1LPyvUXmcx6R4z6Wt91FDhrMn1+nz0zut454PRWjg2xueOd+5RdcdV5ZxIgAQ8loAIqo06vYUbt24jtU9KLFm1UQty1SqGvY92/5ETqOVfXv3xtv2z0LTuK5DLCP7lS2qBc9OOPaheuQx2/3dIaQYfokblsjhyIsAoFuKeJlVKVC5bHAeOWLSRUmD1hu16nPfvP8QiJSTmy5UNr1QsFaJueAmPHz/B/QcP1aHvz/HPvsO63U+HWTx7hlX30LFTunyrRjURcPYC5vy6HD1faxFWFdSrVhHL19pqrK0r2Jvn3Xv3IRprCWLOO232r8iVPTOyZ8mIYy8F0Z9+sxyVYbSVMb0vqlUqjcrliuukCg276JcNIohXLFMUQwf00Onh5Rvt8U4CJGAhsPCP7TYonikLhYNKY2kveHl7a2+0Yka6avMBXFIefB+q40Cyqj2a1k549hwPssbo9+5QyGWEn5dsNKJYsXGvGbcXEZNaOZPUXghvnOIZWK7Qgr12RUDauCfArDJs3Bd4a/BInD9zWu8ZFVNaI4jmz7oN33QZ8JUSFMUk94o6YiVLthwQT7YSxLmQaA3tBTFjTpcho3YEJM6ArIMIqNZ9GHkiEAs7Mb+W41yy58pj9iVlRBttr17TVh0glwRxGBXcKZQI/9b1rOO6ktUPqRu8vlV2iGgz5QFYLiOIGbUcKXPuTIA6ZiejNnU28sRJVlh9Szkx026kXoKcPX1KCbleETJNNvpxxbvtNxJXnAHHTAIkQAIkYBKo5V9OC6Zi/vtaywZau9q9fTOtjTML2YncUA6U/NKltZNjmyRfbDq0qIdFyvxXBFXRQnZs1TCEgGtby/IkGsWHjx6bWVt2/qcFRNHO7j98QpnWJsSpMxdQIE8Os4wjkeGffg25jNC7cyuI8BleEOGwcW1/pEubWmt0J0ybo8eTI2umUKumTZNK7X8N8s5pr2DweX761Y+Qyzr8NH2s9SMmTreY2BmJVcqV0IJq3pzZsH/dfLXn6XfMnLtYm0eLBnnqmPfQqXVDhJdvtMc7CZCAfQLPnj3F9i0hrSmktDgNkvNBJchnn5gAx1VwdJxRHZ8Ipz5FgwTU8NoTL7dyWQcxVw2NqThSEkE1MkGEY7lcNYggL0J3ZIPUF/NyTwoUVD1ptTlXEiABtycgHmFFcJS9l7X9K2D91r+1aWt4E8+dI4suG7yc7MeUNvp0aW1miZluw45vYtLwAfhx4Qp899lwvVfSLBBKRBwgNa4TtJ9oxMBeaFavmi4twmqTLm/j6x8X6XZDacJusuwB7dPZMj4REkWQCy+I9nXGD4u0Njh3xaZqP9YTXUW4vdu7Y6jVT54+h9LFCoSaLxnB5ynje79vF11HPCr3eHc0Phz3Jdo2DfI4+vcqW0FWF1Y/RBsrayMaYrlEIz1SHdvQ+c1hqFe9IpInSxpmvvBgIAESCJ2AHAMjZpnOHlxlnMJRTKxdgamzrznHB3CPKn8LSIAESMDNCLRrVhe/r9qg95KKiWnZEuG/wS2SPzf2HjqmjqUJ8swrWD5Rmr7/Dh6zIVSxtMV5w+SZ83Drzl21L9TiwdGmULAHaVuE3uKFgjwXWheRPbFFC+QJ0Zd1mdDivkrLKcKcXI4IqdKOmC7LHtEFMydg5icfYfbnI9CtXVPlPGppaN1o50dzF/2hBFWLx0t7Be3NU/aoitZWrvy5s+O9Nzpr82lr7bK9tiSt9/vj8MbgcWZ24fy51IsHi2dOOY4mvHyzIiMkQAIkQAIk4GIEqFF1sQXjcEmABEggPALiBEk0aQNHfY4R7/ZyyEmEeAUeN/V7dHtnpPIwO0jVT609536vBLfg2j4RKkVr+97oKcphRxPtDTf4mESAFc2iOFuSfZiiRWzTpDbEGZARzl28rMuINnXJ6g2YPmcBRg3qbWTH6F00weJ0qc4rFcx+Uvl4Q5wr7TsUtLfKOAZH9pjKfL1SJEPnNo3MOo7M0yz8MpIxg6+OWTuOEgE3eBCzXtmn2v2dUXp/qsSfKKcospdWQr5c2cPND94mn0nAHQhMmbfJHabBOZAACYRDgIJqOICYTQIkQAKuRkDc4cu+1LFTZuFVK/PSsOaRInkyLJ41EXJWaq4KTcyiMyd+hFJFLaau0q7s05LQokF15QnzV3W3eG6UNMk37nLWaoGqLfWzaHXFyZMcU2PUl4x+6tgVI2TJmF6b78r+0rCCdf2wyoWVJ46XRCD99evxNsVEiJZxyPE7xQvl1XnGHERTK2bK304aqj0VS6bM15F52vrKhHZyJfX/3LQDog2WULxmO323/vHf2p/QpU1j7fCpZpsgAV7WY+nsyVp7HF6+dXuMk4C7EOjfPmgLgbvMifMggdgk4Cove+Kps+JexCYY9kUCJEAC7kLgzDJ/+OZ4DcnTlnaJKYnprT1HQCJ7liluMQ+WPwnnA6/ovZs5s2YO1wlTTEzckXE60m90teNIXzFdRrw4B5y9iBxZM5qCrnWf4eVbl43L+JkdfeBbfjySZ6wWl8Ng3y5MoN/k9aCg6sILyKE7BQERVL94u5pTjCWsQVCjGhYd5pEACZCAGxHYuecALl8LOkbBmJpo/AxBVTSWolWMy+DIOB0ZX3S140hfMV1GjhqSK7QQXn5o9ZhOAiRAAiRAAs5KgIKqs64Mx0UCJEAC0UxA9qG6QoiucUZXO67AjGMkARIgARIgAXcjQK+/7rainA8JkAAJkAAJkAAJkAAJkAAJuDgBalRdfAE5fBIggbgj8PzxLZzZ3ivuBsCeScDFCCRIFLr5sotNhcMlARIgARKIYQIUVGMYMJsnARJwXwLxE/sgW4UZLuNMyX1XgjNzFQLiTImBBEiABEiABBwhQNNfRyixDAmQAAmQAAmQAAmQAAmQAAmQQKwRoKAaa6jZEQmQAAmQAAmQAAmQAAmQAAmQgCMEKKg6QollSIAESIAESIAESIAESIAESIAEYo0ABdVYQ82OSIAESIAESIAESIAESIAESIAEHCFAQdURSixDAiRAAiRAAiRAAiRAAiRAAiQQawQoqMYaanZEAiRAAiRAAiRAAiRAAiRAAiTgCAEKqo5QYhkSIAESIAESIAESIAESIAESIIFYI0BBNdZQsyMSIAESIAESIAESIAEScF8CDx7cx4ljh3Dj+lX3nSRnFmsEKKjGGmp2RAIkQAIkQAIkQAIkQAJxQ6BtE3/k80toXv4lc+Cz8cPw4P49PaCKRTJh5dIF5uACTh6DpHVv3wiPHz8y0+1Fbt26gbd6tkPxnClRv2pRlC/kh27tGuBy4AVd/Py507rfUyeO2KtuplmXu3b1sjlWY9wt61XAssU/m+UZcW8CFFTde305OxIgARIgARIgARIgARLQBHr1fx/b9l/A1n3n8en0HzBt8hgs++2XEHRESG3X5BWUKlcJX363AIkTJwlRxkh48eIFendqjsDA81i74yiOBj7Fqi0HcO/eXfTt1tpSTJVxKFiVk3YlzFmwRo95/vItKFK8NAb0fg2LfpntUHMs5NoEErr28Dl6EiABEiABEiABEiABEiABRwh4eXkhrW96XdQ3XQbUbdQCG//6A63b/8+sLlrP9k2ro5J/TYz/fBYSJkqk81YvX4wtG//EiPFfmmUlsmv7JuzesVkLp1mz59J5OXPnx6hPvsLPc742NbY2lSLwkCp1Wj1mGXeJ0uWROo0vPhs3DC1e7RyBVljUFQlQo+qKq8YxkwAJkAAJkAAJkAAJkEAECTx+/Biyj/Te3TvYuW0jNq9fg6rV6pitHDt8QAup3j6pMOGL700hVQqI+e+tG9fNskbkxNFDWpAU4dQ65M1fCEPGfIZkyVNYJ0c5XqFyNQRePIe7d25HuS024NwEKKg69/pwdCRAAiRAAiRAAiRAAiQQLQS+mDhS7yMtmSc1XmteA01bdUDdxi3Ntqd+OgqZsmRDwImjWP/nCjNdIo2at8VnX/9kkyYPt9X+VBFsYyuk9Emtu3r06GFsdcl+4ogABdU4As9uSYAESMCtCDx7Dly4DFy9AVjtMXLqOd5RDkTOXgQehuIkROYRqDxXXr/p1NPg4EiABEjAUQJdX38bf24/oq89x29g+Lip8Hkp+EkbDZq0xvxlm9Gw2av46J1euHnjWrhNZ8mWUwu2t27aaltF4/nttE8RPD3cBsMpcOH8GdMUOJyizHZxAtyj6uILyOGTAAmQQLgE/jsMfDTZtli5YkDTWkAxZaq1bjvwi3pz/tXIoDKzFwELVgEj3wRKFgpKDx4TAfXXlcDcJUE5fr7AgP8BBXNb0rq+D7RvDNSuHFTGXsy6XJ/hFiHSKJc5A+BfFmjTAEiYwEiN3F2E009nASfOBNVvXAP4XytL2yKgLvhDzUtdDx5ayiRLqvKV1qGev+V52x5g7FdB9SVf5tu5OZArqyV90ATg0ImgMkasUXWgV1vjKfz76s3AT8uA78ZZyrZRa9K7PVC9PDDxWyCx2j/Wv1P47bAECZCAxxNIkyYtsuV4+dlsh4ZoVxMkTKhNdmuWz4cRg/tj8ldz7ZQMSsqdt6B+2Ll1I2o3aGZm/Lnyd8ybPQMiHEenme7ShfNQskwFsx9G3JcABVX3XVvOjARIgAQsBAwN55xPgPjxLBpEEUwnzARmK2FKHCs+exZEyxBSx7ytBNkCQen2YvNVO8vXA+PeBQrlAW7eASRt2BRg5mjAx9terfDTnisBuKP6wlO3CnD3PrBpF7BM9XNZvd1/q0v49UMrcfsu8I4S+KqrLzljBgBJkwBHT1nGmyIZ0KGJRehe8hcwsJsS0gtbNMRb/rYIt4+eKAG/poWZ9PHjREtPh08CIlC+qeY8bTiQNaMlvXV9yxwsT5afyVU/EQnG+kWkDsuSAAmQQBQIpEmbDmMnz8SbPdqiXqOW2unS/v/+xtHD+0M4MSpQuBjqN26FcSMGIUPGzMhfqCj2/bsbIz7oj7feG4H48eNHYSTqneXpk0iiPqvv3buHX+d+q4/QWbxG/U1gcHsCUfvNcXs8nCAJkAAJuBGBVEpoFMExgy/QRGkQbymh8qzljDtzlt8tVILnBiXEDrIVUkV7eOCYWUxHxGR23lKgSwugcF4gnhKCU6e0PNdRAuaNW7blI/okgqOMV7SpbRspAfN/wNptwCVljhtaWLou5Dity65Qc5N2e7Sx3BOoP4OiCZW2RTMpQrEI8d3VkQpli1k0rIkSAtWU9rJtQ4sQay04yvjkKl8cGPIGkD8XsHhNUI8pvSy8hblxeacIymeMBEiABJyUgAifoiF9/61uuHH9KnZu3YAvJ42xO9ohYz+HOE9qVb8iimb3Ug6ZqqFl2y54tWMPS3n5++BIsCoX72X8DWXtUrdyYbSoUw4Xz5/FN/OWoXDRko60xjIuTkD99WUgARIgARLwCAKPHluESRFQV260CFjZMgEnz1mmP2uBRcga2D3IbNcAI5rIJ0+NJ8v90jXLvXAe2/QkiS2Cnm1q1J9EGJZwLtAi9FmebH/+exBIprSkRlnbXOC0EsyLFwxpPiyCplxHlGZUQqnClrv1TzGB/nm58hyiWIQWSqt6u/YF5R4LADbuCnqWmLQTEWFVzIqFqRF8lPBrPCdXecpMj4EESIAEwiPw8xL1uR9GkPNVg4cv5e/Cy/C/3gMgl70gR918Nec3vaf1yuVLyJItB5IlS24WzZwluz5f9Zmy3hFtq73g5e0N8Rws57AawTpupPHuOQT4181z1pozJQES8HQCrfsHEciRBejXUZkCx7ekidOgPzZZtJe//QlULg2IttEIYtobPNx/YEkRQSo2gmg8JTxW5reRDXeVAyXR+oYWbqt8CaJ1DR6MN/2hOV+S8iKAWufL/uDzl2xbypE5YoKqtJnKaszeSlA1BF25i8aXgQRIgAScgICceSpXaOHZs6fYvkVZvtgJ4pQp+BE3dooxyYMI8K+bBy02p0oCJODhBL4epQAo8ysRQNPb+SIx6i2lqVPCYD9VbpFypCT7K8MK6dJYckVrKGay1mGVEnrz5wREII6uYGgysytBzzqIw6Ix0y0poi3edxT4fpFFszpzjHVJIGM6S75tqsVx074jQIHclpwjat9qCaV5tQ4Hj1ue0qZSjpjOWucExUXgz5M96LlVPaBZraDnyMS8lDAqJsRGEEHb66WmQtKpUTXI8E4CJODkBBInToIebwx08lFyeM5CwOp1ubMMieMgARIgARKIEQJ+SkgTQc2ekCqeeg3BUhwKKRMuBJwLexgisIk2VbSG1uHiFWDqj0BEnQZZt2Evvnm3JVXGah3EcdG73SxX3hyA7I+VZ9EYBw8i5Mq8bt62zVm4Gjil0jOlt6TvUSbEwcO/h4Ci+UIXDEXTu36HElSzBa8ZtWfZW2wtnEtczH8lyL5X44WBJYU/SYAESIAESMAtCFBQdYtl5CRIgARIIBoJtKpr0YR++h3w9KmlYXFSFNyEVUxhxZHS72uBzX9bTF4vXrZ4x5X9nvYE4ogMU84vlT4DziuPv6r/6T8BfToEmSsbbYl2UbSfcom2UUxrJW7PY3HNioBvamDKHItTJjHTXbNFOWnaajl6RrwAy1E6i5Tgum4HcP8hIOetzl8JiKAqedZBxieXaHXlCCDZHyt9GEHOlRXB2PoSz8URCSIA51RzMoLM7/HLdUmh5m6YARv5vJMACZAACZCAGxBI6AZz4BRIgARIgATCImDsrQyrjHWemJK+1VldymxWNI2vNgC+/hkY1MOyh9W6bN2qliNjxn8dlCpC4uvtgp4jE5O9syIcyiVBvOl2bwPU97c8h/UzLOeSIoh+0FsJ09+q9j4MakW0r7lfakLlrFYJk2ZZ7vJTPPvKmbJFlEZVgtHH60Mtz6JZrlBCHU+juInwaITf/1SCvLqsQ6VSwOBe1ilhx8XbspxVK/UkiLZaxiuaZTGxlv20xpm1lhL8SQIkQAIkQAIuTyDeCxVcfhacAAmQAAnEAYEzy/zhm+M1JE+rHA95ehCPwnJsTBplDmzsnwzO5OxFW0dDZr6S+vJmN59iJSJ/+q4pja1oK8V81tpxlDEA0Safv6xMmJUQSvNag0qU7md29IFv+fFInrFalNphZc8l0G/yevRvr16QMZAACUSawJR5m/DF29UiXT+2KlKjGluk2Q8JkAAJuDMBOS5FjroJKxw9pfaGKmdHwYNofGNbUJU+xQQ4rCCa5ezhzCms+swjARIgARIgARKINAEKqpFGx4okQAIkQAIRIlCzUoSKszAJkAAJkAAJkIDnEqAzJc9de86cBEiABEiABEiABEiABEiABJySAAVVp1wWDooESIAESIAESIAESIAESIAEPJcABVXPXXvOnARIgARIgARIgARIgARIgASckgAFVadcFg6KBEiABEiABEiABEiABEiABDyXAAVVz117zpwESIAESIAESIAESIAESIAEnJIABVWnXBYOigRIgARIgARIgARIgARIgAQ8lwAFVc9de86cBEiABEiABEiABEiABEiABJySAAVVp1wWDooESIAESIAESIAESIAESIAEPJcABVXPXXvOnARIgARIgARIgARIgARIgASckgAFVadcFg6KBEiABEiABEiABEggtgk8e/Y8trtkfyRAAqEQoKAaChgmkwAJkAAJkAAJkAAJeA6BdbuOY8/h854zYc6UBJycAAVVJ18gDo8ESIAESIAESIAESCDmCRTIkR6HTl2O+Y7YAwmQgEMEEjpUioVIgARIgARIgARIgARIwAkITJm3KUZHEdPtx+jg2TgJuBEBCqputJicCgmQAAmQAAmQAAm4M4Ev3q4WpekdCriOY+duIlHC+CiayxdZ0nvZtLdow3HsPXEV128/QpkC6VG+kB/yZ0ttU4YPJEACsUOAgmrscGYvJEACJEACJEACJEACcUjg13XHcOL8LZTMlw6PnzzDFwv/RcOKOVGmYAbsPBiIHep69uwFbtx5hMEdyyBj2hRxOFp2TQIkQEGVvwMkQAIkQAIkQAIkQAJuTUC0pAEXb+O9DqURL148PdeyBTLg4x93Y/XO01pr2qxqbn3/ac0RHDh5jYKqW/9GcHKuQICCqiusEsdIAiRAAiRAAiRAAiQQaQJHTt9AWaU5NYRUachPaUxL5UuP3Jl8UKV4JrPtcsrc9+e1R1GrbDYzjRESIIHYJ0Cvv7HPnD2SAAmQAAmQAAmQAAnEIoH7j57i2fMXIXp89vw5kiW11dvkzuyDxGoP66HT10OUZwIJkEDsEbD9nxl7/bInEiABEnALAme293KLeXASJEACJOBuBO4+eKL3nu48eAnxEwBnLt3RzpG8kiXSUz2p9qvuVya+r9bMF2LqA9uXDpHGBBIggdglEO+FCrHbJXsjARIgARIggeglcHpJJaQpOgDeOVvh/sX1uPrPCGRruE53Yp0Xvb2yNRIgAWckcOTMDe0YaffhSxAz3vIF/ZA3ayqs2BaALfsuoEQe5Uzp6TPsPHQJHesW1N59nXEeHBMJeDoBalQ9/TeA8ycBEiABNyAgQur1fZO0oGo9nTunFuhHEWAZSIAE3JeAaE/Fa694700QP54WUFtVz4vkSYK+6jaomAPF8/jiuNKkJkoQH40q54JPisTuC4UzIwEXJxD0v9fFJ8LhkwAJkAAJeC4BEURFUBXBNEFSXxOEpIkQy0ACJOCeBA4rJ0kinP595LISTjOgtRJO82RJFepkM6fzglwMJEACzk+AgqrzrxFHSAIkQAIk4AABQ6uaruxYXZraVAegsQgJuCCBO/cfK+3pJS2gJlROj8orb76ta+RFMivtqQtOi0MmARIIRoB7VIMB4SMJkAAJkIDrEpD9qCmy1NX7VF88e2TuW3XdGXHkJEACBgHxwiuOkf45elk7RRINap7MoWtPjXq8kwAJuCYBCqquuW4cNQmQAAmQgB0CokW9+s9wnRM/UUpkb7LVTikmkQAJuAqB2/ceK6dHgVqDKkfGlFfOkURATZqYRoGusoYcJwlElgAF1ciSYz0SIAESIAGnJHBqYRE8uXMKGV+ZHcK5klMOmIMiARIIQeBQwHXtHOnf41e0117x3ivnmzKQAAl4DgG+jvKcteZMSYAESMAjCCTPWA237p2jkOoRq81JuhOBW6I9fem5N0niBNpzb7ta+SFxBhIgAc8jQI2q5605Z0wCJEACbkvgyq4PcPPITDx7dB3J/fzhW2oYRHBlIAEScF4CB19qT/cev6rNesW8N1cmak+dd8U4MhKIHQIUVGOHM3shARIgARKIYQKBm3vh+eNbSFdmDBJ6Zcedk7/gwobOyNn8byRJUzyGe2fzJEACESFw6+4ji+detf80mdpvKvtORUBNnIja04hwZFkScGcCFFTdeXU5NxIgARLwEAJP7p5BwOJSyNMhEPHiB+1qub53Ah7fPgG/KjM8hASnSQLOTeDAqWvac+++k6I99dNHy+Sk9tS5F42jI4E4IhD01zyOBsBuSYAESIAESCCqBJ7cOam0pkVthFRpM2m6crh7dmVUm2d9EiCBKBC4qbWngVpATZ40odacdqhbAOLFl4EESIAEQiNAQTU0MkwnARIgARJwGQKJvHPh0fV9ePH8qY2w+vDKTiT2yecy8+BAScCdCOw/qbSnyrT3gLqL9vQ1JZzmzJjSnabIuZAACcQgAZr+xiBcNk0CJEACJBB7BLhHNfZYsycSCI3AjTuPtOfeHcp7r1eyRC/PPfVDImpPQ0PGdBIggVAIUFANBQyTSYAESIAEXI8Avf663ppxxO5BYJ9oT5VwKh58yyvHSKJBzeFH7al7rC5nQQJxQ4CCatxwZ68kQAIkQAIxROD+xfW4+s8IZGu4LoZ6YLMkQAJC4Prth8q095Ly3huIlMkTm557Eybg3lP+hpAACUSdAPeoRp0hWyABEiABEiABEiABjyGw78RVfbTM4dOiPfVDl/oFkZ3aU49Zf06UBGKLAAXV2CLNfkiABEiABEiABEjARQlcE+2p0pzuPHgJPl6iPfVD1waFkCBBPBedEYdNAiTg7AQoqDr7CnF8JEACJEACJEACJBBHBPYq7akIqEfO3LAIpw0LIVsG7zgaDbslARLwJAIUVD1ptTlXEiABEiABEiABEgiHwLVbD/W+UzlaJpVXEm3e27VhYSSIT+1pOOiYTQIkEI0EKKhGI0w2RQIkQAIkQAIkQAKuSuC/4xbt6bFzN1GuYAZ0U8JpVmpPXXU5OW4ScHkCFFRdfgk5ARIgARIgARIgARKIHIGrtx7ofafiuTdNyqT6aJlujQsjfjxqTyNHlLVIgASiiwAF1egiyXZIgARIgARIgARIwEUI/Hvsij5a5rjSnorn3u6NiyBrei8XGT2HSQIk4AkEKKh6wipzjiRAAiRAAiRAAh5P4MpN0Z4G6qNlfH2SaudIPZSASuWpx/9qEAAJOCUBCqpOuSwcFAmQAAmQAAmQAAlEDwHRnopp78kLt7T2tGfTIsiSjtrT6KHLVkiABGKKAAXVmCLLdkmABEiABEiABEggjghcvqG0p8prr2hQ06VKprWnvZoWjaPRsFsSIAESiDgBCqoRZ8YaJEACJEACJEACJOCUBPYctWhPAy7eVsJpBohwmpnaU6dcKw6KBEggbAIUVMPmw1wSIAESIAESIAESiDSBp0+f4tSpU0iWLBkyZcqE+PHjR7otRypu2XdBHy3zejNqTx3hxTIkQALOSyBmPy2dd94cGQmQAAmQAAmQAAnEGAERUEeNGoVEiRIhX758yJo1K/LmzYutW7fqPk+fPq2cGMXDkSNHwhxD8HKFCxfW9aSuXPnz58fw4cPx5MkT3U7flsW1mW+YjTKTBEiABFyAAAVVF1gkDpEESIAESMBxAskzVkO2huscr8CSJBADBMaMGYOpU6di48aNeP78OS5evIgGDRqgXr16uHz5Ml68eOFQr8HLiQAsbV+6dAmHDx9Ghw4dMH36dPTo0cOh9liIBEiABFyFAE1/XWWlOE4SIAES8GACsW0+6cGoOfVoIHDv3j2t5Zw1axaqVq2qW/Tz88P48eO1hjUwMBApU6aMdE8+Pj5Inz69voYOHYoKFSqgbt26GDZsGHLmzBnpdlmRBEiABJyJADWqzrQaHAsJkAAJkIANgbgyn7QZBB9IIIIEZE+qBENINaonT54ckyZNQrFixYykaLn7+/vrdkTDykACJEAC7kKAgqq7rCTnQQIkQAJuSIDmk264qB4wpVu3bulZent7x8pskyZNqvt5+PBhrPTHTkiABEggNghQUI0NyuyDBEiABEggwgQM88lx48ZpzZQ4jjHMJ7t37w4xn4xKMMwnxRmNmE/+8MMPmD17tvbQGpV2WZcEsmfPriHs2rUrBIyZM2di7969IdKjknD16lVdvUiRIlFphnVJgARIwKkIUFB1quXgYEiABEiABAwCNJ80SPDuagTkGBrRpq5du9Zm6CdOnEDPnj0hL0miM8yfP183lytXruhslm2RAAmQQJwSoDOlOMXPzkmABEiABEIjQPPJ0Mgw3dkJyFmp4jipT58+qFSpkvb2K15/O3bsiKZNm0I0rgEBAZGexoULF/SxNo8fP8aGDRvQr18/7fk3QYIEkW6TFUmABEjA2QhQo+psK8LxkAAJkAAJaAI0n+QvgisTkONiBg0ahDZt2sDLy0ufoSpaVjmyRoKYsjsSgpdLmDAhxo4diwIFCminTHPnzsXkyZPx+uuvO9Icy5AACZCAyxCgRtVllooDJQESIAHPImBtPtmoUSNz8ob5pGikgp8xaRaKRITmk5GAxiqhEhCBUrSqcmSMmLHL73Pq1KnN8vIixvj9PXjwIGRPdvAgQmqZMmXMcpJ/4MCB4MX4TAIkQAJuSYCCqlsuKydFAiRAAq5PgOaTrr+GnAEgR9IULlw4TBQ7d+7E5cuXQ5QxBNUQGUwgARIgAQ8gQEHVAxaZUyQBEiABVyUg5pOiORXzSSPUrl072swnxYRSQoUKFWg+aQDmPdIEzl+5i50HL6H5K7kj1EaXLl0iVJ6FSYAESMATCMRTZicvPGGinCMJkAAJkIDrErh//75d80nrGYVnPmldlnESiE4COw4GagH18s37KF/QD40q54zO5tkWCZAACXgkAWpUPXLZOWkSIAEScC0CNJ90rfXyhNGe09rTQOxQGtRcmVKiSvFMKJk3nSdMnXMkARIggVghQI1qrGBmJyRAAiRAAiRAAq5OQGzQdirt6Y5Dgbh68wHKF/JDOXWlS5XM1afG8ZMACZCA0xGgoOp0S8IBkQAJkAAJkAAJOBOBs5dl76mY9wYid2YfLZyWoPbUmZaIYyEBEnBDAhRU3XBROSUSIAES8GQC9y+ux9V/RiBbw3WejIFzjyKB50p9Ko6RZP/p9dsPtXBavlAG+PpQexpFtKxOAiRAAg4R4B5VhzCxEAmQAAmQAAmQgCcQOHvpjjLtvaS1p3mzpEK1kllQPI+vJ0ydcyQBEiABpyJAQdWploODIQESIAESIAESiG0Cz5+/0JpT0aDeuGPRnr7XoQzS+iSN7aGwPxIgARIggZcEKKjyV4EESIAESIAESMAjCZxR2lPtHEkJqPmypUL10llQLDe1px75y8BJkwAJOB0BCqpOtyQcEAmQAAmQAAmQQEwReGZqTwNx8+4j7bl3cMcySJOS2tOYYs52SYAESCAyBCioRoYa65AACZAACZAACbgUgdOBL7Wn6miZAtlSo2bprChK7alLrSEHSwIk4FkEKKh61npztiRAAiRAAiTgMQSePntueu69ff8xyhf0wwcdy1J76jG/AZwoCZCAKxOgoOrKq8exkwAJkAAJkAAJhCAQEHhbC6iy/7RgjjSoVTYbiuZKG6IcE0iABEiABJyXAAVV510bjowESIAESIAESMBBAk+eKu2pMuvdoRwj3RXtaSE/fNi5HFJ7J3GwBRYjARIgARJwJgIUVJ1pNTgWEiABEiABEiCBCBEIuHjbPFqmcM40qKO0p0WoPY0QQxYmARIgAWckQEHVGVeFYyIBEiABEiABEgiVwGPRniqzXrnuPXyCckp7OqRrOaTyovY0VGjMIAESIAEXI0BB1cUWjMMlARIgARIgAU8lcMrUngYqrakv6pbPjsI5uffUU38fOG8SIAH3JkBB1b3Xl7MjARIgARIgAZcm8PjJM73vVLSnDx491drTYV3Lw4faU5deVw6eBEiABMIjQEE1PELMJwESIAESIAESiHUCJy/cMo+WKZbHF/Ur5kAh5cGXgQRIgARIwDMIUFD1jHXmLEmABEiABEjA6Qk8UtpT0ZyK596Hj59qz73Du1WAT4rETj92DpAESIAESCB6CVBQjV6ebI0ESIAESIAESCCCBE6cV9pTdbTMTiWgFlfa04ZKeyrnnzKQAAmQAAl4LgEKqp679pw5CZAACZAACcQZgYePDe1pIB4/fYbyBf0wQmlPU1J7Gmdrwo5JgARIwJkIUFB1ptXgWEiABEiABEjAzQmI9nTHy6NlSuZLj0aVc6JgdmpP3XzZOT0SIAESiDABCqoRRsYKJEACJEACJEACESEg3np3Hrqk958+UWegyrmno3pUhHdy7j2NCEeWJQESIAFPIkBB1ZNWm3MlARIgARIggVgkcPzcTcvRMmr/aWmlPW1cORcKZE8diyNgVyRAAiRAAq5KgIKqq64cx00CJEACJEACTkhAtKcW095LePbcoj0d07MSvJIlcsLRckgkQAIkQALOSoCCqrOuDMdFAiRAAiRAAi5E4JjSnhpHy5QpkB5Nq+ZC/mzUnrrQEnKoJEACJOBUBCioOtVycDAkQAIkQAIk4DoE7j98qT1Vpr1KearOPc2Aj3tVQgpqT11nETlSEiABEnBSAhRUnXRhOCwSIAESIAEScFYCR88a2tNA7RipuX9u5MtK7amzrhfHRQIkQAKuSICCqiuuGsdMAiRAAiRAArFM4N7DJ8q095Lefypdl1eee8f1rowUSbn3NJaXgt2RAAmQgEcQoKDqEcvMSZIACZAACZBA5AgcPXMDO14eLSPCaYtX8ijtaarINcZaJEACJEACJOAgAQqqDoJiMRIgARIgARLwFAJ3H4j2NFAfLRM/vtKeFvRDy95VkDwpvzZ4yu8A50kCJEACcU2Af3HiegXYPwmQAAmQAAk4CYEjoj1VAuruw5e0aW+r6nmQNwu1p06yPBwGCZAACXgUAQqqHrXcnCwJkAAJkAAJ2BK4e/+JMu0N1BrUBEp9Wk557m1dPS+SJeFXBFtSfCIBEiABEohNAvFeqBATHR7+Jl5MNMs2ScDjCBToHiP/RT2OY1QnzM+0qBJkfWclsO1RTzx4kQoFEq1CpgT/xckwfUsNh2+pYXHSNzt1LQL9Jq93rQFztCTgpAS+eLuak44saFgx+rq0QMPdQT3FQezp02c4dfY8kiVNikwZfBFfNtowRBsB8o02lKE2dHh5mVDzmBH7BOL6My32ZxxzPd5/8BCnz11EurSp4ZvGeU1LXWWcUVmpAmblNmYsNiNXj30dm92xLzcg0L99VaefxYMH93Hh3GmkSZsOqdP4Ov14wxvgkyePce7MKaTxTQ8fHx5FZfCKjnW+eOEs0iquiRMnMZqN8fuUeZtivI/o6MBpJbfcFZvivdFTbOb4+MkTpMznjwnT5tikB38QAWrU5G+QKFt55KvcAllLN0Deys2xdfdeXfTQsVOIl6kMqjTtFrwq6rXvp/P2HjqGy1ev67iUNa5yDTrhp99WmfVmzl1s5hll/Jv3wMGjJ80yoUV6DhyDTv2H6uy1m3eGaKdJ5wFYtyV8Yb9wtTY2dfNXaYHhn36NJ0+e6rYfPHxkk2+MU+6/Lv0Tvd//GKXrvhZimM26vqN5SIYwnPXzEl0mPL7h9ReiI6uE8Dhs3vlviLnI2PoMHod79x/olqy5/rBghS7//S9LrXoBOrzxET74+Etdz5qHdfwT9XtmbzxGmQuXrsCR8dh0zAcS8HACN27dxquvD0aK3FVQ6JXWSFeklv6ckf9PEozP1BHqM8w6GJ8r8jdAwuKV62w+CyRdPr/37D9iVpM04/+r3OWzYuSkmXj+/LlZJrRIeOMUIVvaPHLidGhNMJ0ESMAFCSz/7Rfk80uImzeu2Yx+9swpOv3hQ8t3DZtMq4dbt27grZ7tUDxnStSvWlTv9e7WrgEuB17Qpeb/+I1u54uJI61qAdKu9Fsyj0UIXLPiN/0saUa6tHNw379mPSlr5Mvdv2QOTP10VLifcSeOHdL12jaxfJ6aDaqI9CFtHTm4Tyffv3cX7/TpiMJZk6Nu5cIomz8dapbPh793bDGrhTeOj959HYP6ddHlf/v1Rz1Os7JVRMZjPR8jPvKDN61KhYxeu3o5RL2W9Spg2eKfzcLbNv0VoozRvqyNzOmTUYPN8hIR4VzmNvPLT3BevXSQ8qdOWP7GhLfO4fUn7c/9bhoa+BfDK6Vyoki2FOjTpQVOHj8sWQwvCTitoNq5dSPMW/wHrC2TN27fgzt376NlgxphLuCYz7/F1O/mY+Ni9YXk/C5c/HcVGtSorL7E9NXCp9Hmll3/4XzgZbOtq9dvYtX6beazYRS9dv50XNq7GtuWfofSxQqifZ8PYQg+0la+XNlw4/A6XD/0F45uWYRrN27hraGfmu2EFpEvS0Yfxl3GKn2d3L5EaRpSoW3vDyCCYVjh6dOnGPN+H13v8KaF6NCiPqbPXoAeA0frasZ8F8+aqNuVto2rQc3KaNO4Nv7ZdxgnAs6Z3dy6fRe/r9qA9s3rmWlGO47yDa0/s0E7EUc5nN61sF2vhQAAQABJREFUTM838L/V+O6z4Xq+n3/zk27RlqvFbLb/kE/0ulh3KfMZO/gNnN+zUl+1/curD+im5nPvzq3M9TF4Wd8z+KY1mwtrPGYhRkjAwwnI/7mmXd7B+YuXcWLb73hxYTfkM+vuPfW53n2QpmN8zsxZsNyG1tpNO/Wz/A2QYJSTz0u5fpw6GokTJUKpOh1sXhT+8MVI/fksnxUf9P8fhk2cgW1/W76A6Ybs/IjIOO1UZxIJkIALE3ilZn09+vVrVtjMYuXSBWjxamckTZrMJt36QT47endqjsDA81i74yiOBj7Fqi0HcE8Je327tdZFjc8uEdisgwg2Eu7dvaPvRrlt+y9ArolfzkGiRInRrHYZHD96UJeRH59MnY3dR65i677zeP3N9zHlkxH4d/d2M99exGj7n51bceniebPIjetXsWndavNZyv1PCa4njx3GkrX/4MjFJ7qv+o1boV3TV7Dv3yBlSljjeKG/777cxqTaFAEwtNCr//v4a+cxm6v/wKGhFdfpxnzmLFijWc1fvgVFipfGgN6vYdEvs23KBG9bntOmy4DmbTpi6aKfzL8tUmnXtk16Peo2bCF/dHQ78kP6c3SdQ+tPBP0Rg/tj6NjPcejcQ/y2Zrf6vv8UA/t2MfthBHBaQbV141o4p77M7P7vkLlOi1b8hQqliyJ3jixmWvCIaNVEmzjuw76oWr4k4sWLB7/0aTH+o/7o3r4ZAq8EvSGTtn7/Y4PZxLI1m3T7ZsLLSNo0Pkjvm0bnTR83GB+91Q1DJkw3iyVMmBCpUnojtU9K5M2ZDbWqlsMd9cUrMiG9b2rdV85smfBmj3ZasD547GS4Tfl4e+l6+XNnx9ABPSBfzmbPX4ZTZyxv8KSBzH7pIe1aXymSJ9OcZH4imBrhj/VbdbRJXdu3bRHhG1p/Rh9h3cPjIOaCMuYM6dJo3rLWAWcv2m1SXiQUK5gXH42fFiJf1i1ThnT6SpokCVJ6pzCfvVIkN8tbMzPiCRIE/feJyHjMRhkhAQ8jIC8bN+3Yg28nDUWu7Jn17OUza8aED1G2eCHTKqJQvlw4efo8xLLFCAtffv4bz8ZdPgfkalLHH0tmT9Kf05NmzDWyIf+P5f+5fFY0r19dpxvWF2ahYBFHxxmsGh9JgATcgICXd0o0btEOK5b8as5GhDkR6pq0bG+m2Yvs2r4Ju3dsxseTZyJr9ly6SM7c+THqk69QtERZPLh/T6flyVcIZ0+fNLWWkrhq2SKUKF1e51v/EJNQuWrWbYyv5vymy3z31WdmkRQpvJDSJxV8lbBVu0EznX7/ZT9moVAi0t+fqyzWclJk3ZrlNmMQ4Vnm/cmXs1GgcDH9nVr6eufDMShVrhJmfTXZbDkq4zAbUZE0adIiS7acNleq1EGKAeuyweNSTljJvEaMV1Zzb3+Iz8bZ7n0P3rY8J0iQAPWbtELgxXPY/9/fZrOrVyzWbWXLkdtMk4ij6yxlQ+vvdMBxyUbBoiWQQMkRhdT9/eETUL12Q53OHxYCMbpHNSqQC+bNiVJFC0CE07IlCmmt4o8LV2DCR2Gr/w3BTAQX65A8WVJMGj5AJxlmua0a1sTPv69WqnbLW64Fy9dC0raH87a9eqUyGP3Zt7h9x/KBI5rY735Zol+2iDnYlG9/Vm/3R1l373Bc9kPJXtor126oD6SF+gtY4Xy2/0Ecacy/Qild7PDxAP0FTR5W/rUFxwPOmtVFiG/btA4SJkyALm0aKRarMKBXB52/cPlfaNOktv6CZ1ZQEUf4yhwkhNafzgznR2gctv29V9cU5smSJtHmzTv27Ndfft/oalnH4E3Li4Rp495H8ZrtIJp6eUER0WBt7i11M6b3RbVKpc1mIjIesxIjJOBhBGTbhQiVIpxah8L5c2HK6IFmUorkSdGxVQP8tnK9fsn08NFjLFSfz8MG9Az387letYpYvnaz2dbqDdshZrz37z/EImUuLC+uXqlo+Xw0CwWLODJO+YxmIAEScE8CIqj2fK0JxLxT9mOuXbUUKby8Ub7SK2FO+MTRQ1pQEuHUOuTNXwhDxgQJl8mSJ0ez1q9hzcrfkL9QUTx69BCrli9Cv3eG4N+/d1hXDRGvWr0u1v8ZpO3dvGGNHudDtSd21fLFyJE7H8pVslUyhGjkZUK9Ri2xfPEv6NClt075Y+lCSJoxhoP792iBWwRr6yDfH6spzfOShRZLNsmLyjis296rtLTWJruSV6Wa+j7qoLBq3VaFytUwbfIY3L1z20wO3na6DBn1uubOWxCFi5bEasWwaIkyeKa0m78vmItBQ8aZdY2Io+ss5UPrr1TZSrq51g0qo4n6fStb0R8ly1RAX/U7wBBEwGkFVRlip9YNMXH6D9o8c+vu/7TZb4sGljfiQVOwjd26c1cneKdIYZth56lR7ap4d+RnkL1RIvQs/3MzJo8YoNPsFDeTUqdKqeMPHz3Sd9nLKns9JVy6cl3fDxwJXwuqCwb74Z036MNFtIAzJ36k3vQEae6CFQ/1MWmSxDrPGKM8zP51mY3gKe2KoCrhVXWXvb8BZy9o5yYyn9++C2m+HBG+YfWnOw3jR3gcspWxfeMkGphm9aqF2qKwfLtne/QaNBZ/r7I1twm1klWG/B5ahyrlStgIqhEdj3VbjJOApxAQgTFVSq9wp/vs2XO0UFs8xE+BWIjIXn2xWiheOF+4ddMqx0z3lFBqhC07/9Ofa7KFYv/hE8o8WO0xUpYmBfLkMIqEuDs6zhAVmUACJOAWBCr519SCqZj/Nm3VASuVdrVNh25a8xXWBG8rwdZbaRzDC8+fPUOdBs0xYfRgLZjs2LJeO10qULh4eFWVY6a0SjMbZLX3984tyslRAJ49e4pjhw9o82BxepQrT4Fw26pepyHGjRik988mSZZMC8AfjPxUp0nlG9euKQExjd124istpLUAGJVxWHewffM6BJw4ap2khPlikRJUU750+iQvAozw7TTb77aly1cxX0A0U+a/306bhAEfjMY/u7dps986DZsbVc27o+ssFULrL0euvFi+YS8W/PQd5v/4rTbZlpchw8ZOgYyDwULAqQXVVo1q6r2e4hzjtz/Wo2GtKvptfFiLlz1LRp29698DEEHUOoiTjvKliiCh+s8lwS9dWtSoUhZLVm1U5mHJtKYtS8YM1lXsxs+cD9TjEM2ABBGSVvw4xSwre1/FUdOb3duZ2kwzM5zIsa3KOZP6J1pOYy7hVLGbLRo+CUUK5Dbzf57+sdZOmwlWEdFei6ZBzH+lX28vtWleaSaCB2NMYfHNkyOrrhZWf8HbDf4cHgfZEyovF+TL519bduG1vkOUc5X1puAdvD15Fm3M3EV/YMYPC+1lh5kWnnAbmfGE2SEzScANCeTMlhlHT57B9Zu3keblCz+ZplinfP3jIrUXqqk5a9kz3lyVFeFStKmy9169xA83nDx9TvkSCPqCNmJgL/MllnxeNOnytu7LsLCx12BExmmvPtNIgARcm4B4X23W6jVljrsQlV+phR1bN2CgHc1a8FmKmacIWbduXodPqiABTwS6X36YiVbtu5pVpN2Ari1xVAmXYvYrZsWiqQwvnD19Su2/LGUWe3PgcNSqb/nsFC1gr07NVF/fYPCIiWaZ0CK+6fxQoUp1rTFOrkyIxWTWL1PQ9jq/TJn1PlQZv5hEWwcRrrPnDPqOGZVxWLfbs+9AdH39beukSMcvnD+jNdxiDmyExWt2GdEQd9EmjxkyAAf3/4s/V/6OarUa6PrBC0ZknUPrT5xUZcuRC4OHf6KvY0cO4kvlCGtQ/66oWqOu3X6Dj8MTniOuqotFKrLHUQTJBcvWagHjtZYNwu1djqERIWvtZttfRHEUJN5gZS+ndWjdqBZ+WbIa85f8iVeVqasjYe6ilagYhvlooXw5dTNHT552pDmbMrnUFznZg2sIhDaZEXiYv2SNLp0rW9AHTnjVO2vz39Xa3Fq+FBpaWet6EeVrXTci8fA4iHZFroxqvWWsImgfUWbOYQUfpcn5bOQ7GPzxVH0sRlhlI5oXmfFEtA+WJwFXJ1Awbw49hQ3b/raZiryInD5ngY22VfbPy/YD/fm8dA2a1g3b5E4aFM/A8jJKnN7ZC/ICsGiBPPjv4DF72WZaRMZpVmKEBEjArQg0at4Wf/6xBL8rp0ey31TMQcMLYj4qYefWjTZFReiZN3sGvFMGaVuTJU+BBk1aY8Xv8/V+2Jr1mtjUsfcgnoGXLJyHwsWCBFXrcrLXMX/Bojh04D/r5DDj4hhJxiBa4wZN29iULVzU0o/sybQOMg5xulSxag3rZDMemXGYlaMxslSxEnNaR0OGjJm14C4m0MJZtOn2QkTW2V59SRv23hsY8X4/M1vMwwcO+Vg/X7xwzkz39IhTa1RlcToq4bTr2yP0OjWsWSXc9ZL9neM/7K+PHalUphjEq+3Fy1fRsd9Q/UVHBEBjj6o0Js6C5HgWCSLE2Avi1EMc7Yhnym/m/abNfK01bGJeaxxRIHtUxZGHCMuivY2tcOHSVT2Gx4+fYMP2f9DvwwkQx0/WZsNHTgQgSZJENkMSR0LGGYbypfDDcdP0HrB1C2bYlDMeHOFr7FENrz+jzei4Z82UAbfvWvYMh9WemDqLR2Rx6BJ8H3NY9ayduhjlxHFWaMHR8YRWn+kk4I4EihfKB3GUJ1su5EVksUJ5IdYZfT8cj1GDeoc461p8BrTp9T6yZEyvX0aJ9UTwYHz2ihWJmAqLdYy8dDOCOOWTMqJNXbJ6gxaIpa+wQkTHGVZbzCMBEnBNAiXLVtRarfEj30P/gcMc0naKwyER/MScVoQe2X8qnnFHfNAfb703IsRnXN3GLZXjzLbwy5hF748Us9fgwTgORcxwJ4x+H6L5bN6mk1lMHABJGW1hphwjzZv9le7LLBBORJw0idAk4cNRk2xKi8OkMso0dtigN+DzdRqtyb1yORBjh76jTaPbd3ndLB+RcYigaxx/YzQg2kUJgcpxVfA8L29vZM6aQ+eH9UMcVCVR1nb37t3Dr3O/hXhqDq7RDN62tJc9Vx7Tm7PsHX7/zW66G9Go2gsRWefQ+iun9jt/qCz9RJMu8adPn2Dx/B90dzmVWTCDhYDTC6pN66m36MoCQLSpIvw5Enp0aK73JMkXHCOIGdnUse/pR8O0Qu4iqFUuW1y/iRcvlPJG3giGBUaLbkFOPsT8WMx8RYMnQdoQQbZA1ZZGNd3e2vlf6aMSzEQ7ERH6jGD0ZTxH5C7OgsZOmaUvqSfOgmSv7eudLGMy5ivCevAwdcwgvNHV8gZNTHbFcdXpc4FhCnGO8g2vv+BjkWdHORhzMtoQYVu8Nk8c+laIPwRGGUv78TDt4/dRtMar1smhxo3xiCOm4OG/tUFOBMIaT/C84O3wmQQ8icAXowehx7ujUb5hZ3Pa/bu1VY5LWuhn+f9ivGAzth/IMVnG/yPj74DxbHz2SrrsUxePwuLl1wjy0s4IIvD26dwacvRUeMGRcYbXBvNJgARcl4B8R2ut9qV+9fnHaNjMVtMY1qyGqONGPnqnF1rVD9o+1al7P7zasYeuJp9dsr9TQtVqFj8h4rzJ+EyTfYoSjGc5u1SCpNdWJr7iUVg87xrB+oxREXjFMZK1AGmUs74bbcs9vV8m7cH30YMHWnMsQqR1mD5nsZ5P28ZB2+nE6dCStX/b7BsNaxzxrL7vSttyBE/jGiWtu8HPSy1a2+9mfAa5rEPdRi3wxTfzrZNs4sZ83vhf0Ge7CJnfzFumXwBIYaNM8H4lb+lfe/RLBYkbmm3RphprIemqAX0zfjiyzlI2tP7kqKODe/egU6sga07hOuOH3237NTr00Hs8dRbQi5iY++Fv4qFAw90x0TRu3r6DYyfP2m1bvoiIOagE0eyJ04xMfr766Bi7FWIw0dFxhjeE6GonvH4imh8ZvuIkRc5stRfkaJjg3kDtlfOktMPLy6BA9xj5L+pJGKNlrjH5mRYtA3SxRuS86cDL1/RxWeKVPbaDWNZYO10y+pfvImXUUTlGiOtxGuNw5/vVY18DXpngW2qYO0+Tc4smAv0mr0f/9kFCUzQ163AzcoaptTMjo6IIQnJ2pxFu3riGK5cvqeNJciBZsuRGcqzdHR2nowMS4fL0qRNKs5nNZv+to/WjWi665xPV8Rj1o7rO4ln6/JnTyJwtu/YwbbQb0/cp8zbhi7erxXQ3UW7f6TWq9mYoJl7rttoXgv3VsTSGoCpffuTYg7gKjo4zvPFFVzvh9RPR/Mjwfaq80oW2djmzZqKgGtFFYHkScFECaVP7QK64Cjv3HMBlO0fMyDtza0E1rscZV3zYLwmQgH0Ce/fswrWrl0NkBhdU5TiVyBypEqLhSCY4Ok5Hmxftopz1GVchuucTXfOI6jrL8Uc+RVNH13Dcrh2X1Ki63SpwQiQQCgFqVEMBEwfJ1KjGAXR26REEqFH1iGWOtknGtUY12ibChkggDgm4ikY1aJNkHMJi1yRAAiRAAiRAAiRAAiRAAiRAAiRgEIhR01/RBjGQAAmQgLsQ4Geau6wk5+FsBHxLDXe2IXE8TkxAtEEMJEAC7k8gRgXVmHKm5P7LwhmSgIUABSPn+k3gZ5pzrQdH4x4EtOmve0yFs4glAnHpTCmWpshuSCBGCbjKyx6a/sborwEbJwESIAESIAESIAESIAESIAESiCgBCqoRJcbyJEACJEACJEACJEACJEACJEACMUqAgmqM4mXjJEACJEACJEACJEACJEACJEACESVAQTWixFieBEiABEiABEiABEiABEiABEggRglQUI1RvGycBEiABEiABEiABEiABEiABEggogQoqEaUGMuTAAmQAAmQAAmQAAmQAAmQAAnEKAEKqjGKl42TAAmQAAmQAAmQAAmQAAmQAAlElAAF1YgSY3kS8HACT58+xbFjx3Du3Dk8f/7cw2lw+iRAAiTgGAF+djrGiaVIgARIwCBAQdUgwTsJkECYBORL1qhRo5AoUSLky5cPWbNmRd68ebF161Zd7/Tp04gXLx6OHDkSZjvByxUuXFjXk7py5c+fH8OHD8eTJ0/CbIeZJEACJOAKBPjZ6QqrxDGSAAk4IwEKqs64KhwTCYRC4Oo/I0LJifnkMWPGYOrUqdi4caPWpF68eBENGjRAvXr1cPnyZbx48cKhQQQvJ1/ipO1Lly7h8OHD6NChA6ZPn44ePXo41B4LkQAJkIAzE+BnZ9RW5/KN+3ju4N+XqPXE2iRAAs5GIKGzDYjjIQESCJ3A1X+Gw7fUsBAFbh6Ziev7JuPxzUNInKog0hR9G6nyR5+gd+/ePa3lnDVrFqpWrar79/Pzw/jx47WGNTAwEClTpgwxLkcTfHx8kD59en0NHToUFSpUQN26dTFs2DDkzJnT0WZYjgRIgAScigA/O0Nfjht3HmHz3vO4fOMB0qdOhirFMiO1d5IQFUbP3onP33wlRDoTSIAE3J8ANaruv8acoZsTECH1xv4pyFjlaxTo/kLf5VnSoyucOnVKN2UIqUa7yZMnx6RJk1CsWDEjKVru/v7+uh3RsDKQAAmQgKsS4Gen/ZU7c+kOxv24W1nnAKXyp9d3eZZ0+yGe/WSmkgAJuDUBCqpuvbycnCcQEE2qX+XpSOZXRU9X7vIs6dEVbt26pZvy9vaOribDbCdp0qQ6/+HDh2GWYyYJkAAJODMBfnbaX51lW0+hSZWcaFo1F0rmTafv8izpwYO2+qWcGhwLn0nAIwjQ9NcjljnkJO8/eIjT5y4iXdrU8E2TKmQBpjgNgcPf2P6FDv4sAzWEVGPQ8ixmwPbKGmUics9e76wuvmvXLjRq1Mim6syZM1G+fPkomf7aNKgerl69qpOKFCkSbXMI3gef3ZcAP99cb22n7iqLhHt3WgZu9ZFnFYXytqbzbdIkRSUET1Ou2UIkmmXMiFHENsHqKag/M9ESCfYYVE7HLGOS1ttUzq5T4uKz88tF/+mBODJWzcsY+8v7S9w2qbotqwyzbSn18sEm7eU62KYBR8/cQM8mRWzaLl/ID7/+dQzfLT8Yoq3ZK1Qag0sQePDgPi6cO400adMhdRpflxgzB+m8BCioOuHaVGnaDVt2yR8YS8iSMT26vNoY7/ftghTJkyFDsTqYOmYQWjeupQscO3UGVZp2R+liBbB41kQkSZzYqBrifuPWbbz+3seYv2SNmVe3WkXMmjwUmTKk08JrjnKNcXjTQuTPbfkDaxa0ioiQa5RL7eOtx2SVjbIlCuHtnh3Qrlld62TGI0FAzHmNIIKn9bOkn1xQCA8CN9sIq/Ise1VztYqeP+5yDI1oU9euXWsjqJ44cQI9e/ZEQECAw86UjLmEdZ8/f77OzpUrFxLkDZp/WHViOi+6hP6YHqezt8/PN2dfobgZX7si+5G6UF+Y/9vNCILSZGgvnepYZVsGrBKCp72QlGCJ5qMZMYq8TFA3qywTRpAvn6BcHQt6tK33MjOTn3ecfXbWTHzLzpjszE+NVbMyZ/uyjNXcJMvyqAubJW2K2GYF1bApZKl67OxN3H3wBKm8gvakynPSxAlRPK8Sbl7WkdvfRy6jaO4ggUeeGSJHoG0Tf/yz0+KpX1rwy5gFLdp2Rq9+g5AseQpULJIJQz+egvqNW+kOAk4eQ7smr6BwsVKY9v1CJE4ctF7BR3Dr1g0MG9gHK5b8amZVrV4HH0/+Bun9MuG8El6rl8mNVVsOIGfu/GaZ4BHrcil9UusxWZcpWqIMuvZ6C42at7VOZtxNCVBQddKFHdyvK97q0U7/TT5yIgCvtOiJHFkzoVu7pjYjNoTUymWLY960MWEKqeJttWmXd7TH1hPbfkeu7Jlx5MRpdBswEi27D8K2pd85LGxYe241/oCvnT8dRQrkxsnT5zH712Vo3+dDPHr0WAvZNoPmQ7QSEMdJgVt6m+a/IqTKs6RHV4gfP752nNSnTx9UqlRJe/sVr78dO3ZE06ZNkT17di2sRra/Cxcu6GNtHj9+jA0bNqBfv37a82+CBAki2yTrOTEBfr458eLE0dDSJnsA39TJ46j3mO1WnM7FxWdngexpYnZiUWj9xPlbWLktAO1qBwksK7cHoGzBDCiVL73Zsgiqok0trfaxGuF7alcNFJG69+r/Prr07K+/7506cRQdmlVH5qzZ0br9/2zaM4TUUuUqYdL0H8MUUuU7Ye9OzZV35udYu+MosmbPhVMnjmDw2z3Qt1trzF++Rb18sPPGwqbHlw9W5YzvmnMWrEHeAoVx9vQpLJ4/BwN6v4bHjx+hxaud7bXANDciQEHVSRfT2ys50vta/shkSJcGLRvWwMq/ttgIqiJk+jfvgVpVy+H7z4Yr76uW5Vy04i+s2bgD08cNtpndxu17sGnHHq0tFSFVgmhNZ0z4EDN+WIh79x/YlI/oQ9o0ynOrGrNcFUoX1SbFQyZMp6AaUZARLG949724uWeMef2VIclxMaI5bdOmjTnC2rVr6yNrJEHOQHUkBC+XMGFCjB07Vl9SXzz+Tp48Ga+//rojzbGMCxLg55sLLhqHHGkC/OwMia5ltTzaxHfU9zuQydcLF67eRZZ03mhXK0hw1bVEtnHsT0vITphil4CXlxfS+loEf990GVC3UQts/OsPG0FVhMz2Taujkn9NjP98FhKq89MlrF6+GFs2/okR47+0aXvX9k3YvWOz1paKkCpBtKajPvkKP8/5Gg/u37MpH9GHVKnT6jHLuEuULq9Nij8bN4yCakRBumB5CqpOumiPHz+B7LN69uw5/tl3GKs3bMenw4I0ZPuPnEDfDycgVUovzJkyEgkSBPnFeqTqXr95O8TMDh07pYXI4Ca9hfPnwpTRA3X5K9duhKgX2YTqlcpg9Gff4vade0jpnSKyzbCeFQHfUsOtnoKiIqwaAmtQavTGRKAUzYAcGSOeLDNlyoTUqVObnYhW1Xj7efDgQcixDMGDCKllypQxy0n+gQMHghfjs5sT4Oebmy8wp2dDgJ+dNjjMh64NC+Hs5bu4dusB6pTLjqzpvcy8oMgLpEvlnpr2oDnGbkwsl2Qf6fNnz3Bg3x5sXr8Gg4d/Yg7i2OEDGDm4P7x9UmHCF9+r75dBlk2ixbx147pZ1oicOHpIC5LBTXrz5i+EIWM+sxS7dsUoHuV7hcrVMG3yGNy9cxte3pE/Gi/KA2EDMU6AgmqMI45cB8M//RpyGaF351Zo1aim8YiRk2bqfaC7/j2I5Ws3o0kdy3EeUkD2hdrbGyr7U0Wwja2QOpXlw+Pho0cUVKMJur0zVKOpaYebkSNpChcuHGb5nTt34vLlkPuIDEE1zMrMdHsC/Hxz+yXmBO0Q4GdnSCginNoXUC1l5W/GkC7lQlZkSqQJfDFxJOQyQvsur6Nu45bGI6Z+OgqyD3Tfv7ux/s8VqFm3sZkn+0Lt7Q29rfanimAbW0H2rkp49OghBdXYgh5H/VBQjSPw4XU7oFcH9OncWhcTU1oxlbMObZrUxtypo9Gx3xD0eHc0Km/4FWlT+1gXCRHPmS0zjp48o7WtaV4KkVJINJ5f/7gI/wu2/zVEAxFMOHM+0DQFjmBVFndxAl26/J+9M4GLqnr7+MMim+wgIirgvu+7uaWm5p6ZlZZZWprbm5W2mJlli/0ry0ortUXLstJccylz3/cdNxAUBRTEBUQEfM9z8A4zwwADzMC9M7/j5zp3OctzvudyZ577POc5wzTeA4hvTQJ4vlmTLurWMgE8O7U8etqQ/dlRE2iIUE45sSttWU/DZed69n2MPp29kF4d+wy99cpIaibmqLLrbX6pUmgVOi/mu15PTiIf35y50WzxXLxwLg0c/Gx+xQt97VJsjM4VuNCFUUBTBHL8RTUltu0Ly0vGVAuvJDdjJZV7P7BXF3J2dpIuu7fFWpNj35xRIJQ6NcJlns079xvkXbZ2E81Z8KfFra2/LF1DbcRcVSQQAAEQ0CeA55s+DeyDAAiAQMkR8PcPoNDwanIzVlJZCrauOompPuyym5Z2m6YJN+CCUrUadWSWPTu2GGT9d81yWvTTt+TlbVlr68oli6hJ89YGbeHANglAUdX4uPI6qPM/fZt+W76elqz+T/Zm3+ET9OPilbl61qhuTbmkzavvfk57Dh6nNBGRl4MrjZ08g8YPf4I4smtxEkf75QBP+4+cpBdf/5D+WPkvvf3y88WpEmVBAATsmACeb3Y8+Og6CIBAqRLgdVA/mDmXVi9bTOtWLZWyHDu8n5Yu/imXXLXrNZRL2nw0bRIdObhXuuRycKVpb46noSPGFvv35YXoSBlF+NiRAzT1tTG0ZuWfNOaVKbnkwAnbIwDXXxsYU15P9ZFlD9KzE96hjm2a0uadB2j2T3+YjLb75fRJ0lW4Va+ckN6spL7w1ABJwjgia1549PMpwV4HDJ+oy96razv6++dZ1LRBbd057IAACIBAYQng+VZYYsgPAiAAApYhwOuprurZn15/aTi1bNuB9uzYTL/8+I3JaLtTPvhCugoPfLiNrvGhI8bR40/fN1goPxZ1V/PY0cun/NYc81z2uq5colPXnjRv0Sqq16BJHhXgtC0RcBBROs1c2Khw3Y6Y50C1e+0rXCHkLjECideuU1xCIlUJDSEPd7dc7SrRhnNdECc4gq9x5GBT+XCu+AQiVjen2iOs8idafOHsrAY807Qz4Hi+aWesWNKrZ0TgQM8QUkOwOG2Rs09px83cROMHt7fPzmug18nXEulKQjxVCg0nd3fD+CosfqaINnxCRBs2lTy9vOSyNqau4ZxlCcxatJW+nNDJspVaoTZYVK0AVQtVcuCl/IIvZWRm0MYdpl80VKkcAkVVC4MMGUHATgng+WanA49ugwAIlDoBDryUX/ClTPH7ctf2jSbl5KBMxkvcmMyIk3ZDAIqq3Qx14Trq6uJCk0YPLVwh5AYBEAABDRDA800DgwQRQQAEbJKAi4srPT8mZ6qYTXYSnbIYgeJFz7GYGKgIBEAABEAABEAABEAABEAABEAABLIJQFHFnQACIAACIAACIAACIAACIAACIKAqAlBUVTUcEAYEQAAEQAAEQAAEQAAEQAAEQACKKu4BEAABEAABEAABEAABEAABEAABVRGAoqqq4YAwIAACIAACIAACIAACIAACIAACUFRxD4AACIAACIAACIAACIAACIAACKiKABRVVQ0HhAEBEAABEAABEAABEAABEAABEICiinsABEAABEAABEAABEAABEAABEBAVQSgqKpqOCAMCIAACIAACIAACIAACIAACIAAFFXcAyAAAiAAAiAAAiAAAiAAAiAAAqoiAEVVVcMBYUAABEAABEAABEAABEAABEAABKCo4h4AARAAARAAARAAARAAARAAARBQFQEoqqoaDggDAiAAAiAAAiAAAiAAAiAAAiAARRX3AAiAAAiAAAiAAAiAAAiAAAiAgKoIQFFV1XBAGBAAARAAARAAARAAARAAARAAASiquAdAAARAAARAAARAAARAAARAAARURQCKqqqGA8KAAAiAAAiAAAiAAAiAAAiAAAg4WxNBxOrm1qwedYMACIBAiRKwl2fa7jvDycMhiRq4/FWifNFYwQSOpA+gm/eCqZnLz+TmcKPgAhrJEdj0HY1ICjFBAARAAARKioDDPZFKqjG0AwIgAAIgoF4CxyITacW2SKoU5En92lUlH09X9Qqbj2SplzfR1QPTKLTXxnxyafPSrdS7tHZPNO0+fpm6twqjrs1DtdkRSA0CRSQwbuamIpZEMRAAAX0CX07opH+oyn0oqqocFggFAiAAAiVH4GZqulBQoyjyUjL1FQpqo+rlSq5xK7Rky4qqguvS1RRatzuaLiTclAprq7rByiV8ggAIgAAIgIBNEICiahPDiE6AAAiAQNEIbD96SVpR29YPob7tq5JD0apRVSl7UFQV4KdirkmFNUs4R3VvGUZ1wv2VS/gEARAAARAAAU0TsOocVU2TgfAgAAIgYMMEYq/ckgpqekYWvdi/IYVX8Lbh3tpu12qF+hFve0/G05LNZ6nCsbLSwlqpnKftdho9AwEQAAEQsAsCUFTtYpjRSRAAARDIIfD3zvP0774Y6ebbqUmlnAvY0yyBFnXKE2//7b9AX/5xiJrVLk89xBxW77Iumu0TBAcBEAABELBvAnD9te/xR+9BAATsiMCJ80nSihrs7yHdfP293Gyy9/bk+mtqAG/fyaB1IuDS5oOx0rrKLsEOtuDTbaqzOAcCIAACIGCzBKCo2uzQomMgAAIgkE0gJe2uVFBPx2QHS2pSU9vBkgoaV3tXVBU+CddS5fzVMxeTpcL6QIMQ5RI+QQAEQAAEQED1BOD6q/ohgoAgAAIgUHQCO49dlkpqSxEV9q1hLcnJEaa1otPUVskgPw96ukcdOhd7ndaKCMF8L7B1tUG1QG11BNKCAAiAAAjYJQEoqnY57Og0CICArRO4nJgiFdTUtAx6vm99qhriY+tdRv/yIFCtog+NGdCQDp6+Qqt3nqcdrLCK+avhwQiglQcynAYBEAABEFABASiqKhgEiAACIAACliTA1rO1u87LYEmdm1W2ZNWoS8ME2OWbty2HYmnu8mNUv2qAVFj9vW1zrrKGhwqigwAIgAAICAKYo4rbAARAAARshEBE9DVpRQ30dZNKaqCPu430rHDdwBzVgnndFcsSccCldeKlBltX2SW4jLNjwQWRAwRAAARAAARKiAAsqiUEGs2AAAiAgLUIpIkoryu2R9KxyCTq174qNasVZK2mUK+NEGCltHfbKtS2fgWprE6dv0sqrB0bV7SRHqIbIAACIAACWicARVXrIwj5QQAE7JrA7hNx0oratGYQTRHBkmAVs+vbodCdZ7ffJx+qRW3ibkiFVQm4ZOuRoQsNCgVAAARAAARKnAAU1RJHjgZBAARAoPgE4pNSpYJ6IzWdhvWsSzUq+Ra/UtRgtwQ4sNLIfg3o6Lmr0iV4x7FL0sJavSLuK7u9KdBxEAABEChlAlBUS3kA0DwIgAAIFJbA+r0xtGpbJPUVbr5dm4cWtjjyg0CeBHjpGt52HL1MC9ZEiBcgPlJh5aVukEAABEAABECgJAlAUS1J2mgLBEAABIpB4PQFDpYURb6eLmJN1FYU5GefwZKKgRBFzSTQtkEFasPzV0XApQ8X7qOOTSrKgEvurvjZYCZCZAMBEAABECgmAXzjFBMgioMACICAtQmk382Ubr6Hzl6lfu2qUos65a3dJOoHAXJwIOohIgLrB1ziYyx5hJsDBEAABECgJAhgeZqSoIw2QAAEQKCIBPaejJcRfRsKd8y+Qkl1LeNUxJrspxiWp7HOWF+8cksGXLqcmCKtq3hhYh3OqBUEQAAEQCCbACyquBNAAARAQIUEriTfllbUpBtp9FS32lQr1E+FUkIkeyJQqZwnDe9dj06eT7ofcOmynL9aG/emPd0G6CsIgAAIlBgBKKolhhoNgQAIgIB5BDbsuyCV1F5tw6ViYF4p5AKBkiFQJ9yfeNsjlkb6fcNpqhzkJRXWkMCyJSMAWgEBEAABELALAlBU7WKY0UkQAAEtEDh7MVm6+Xq6udAbQ1tQsD8irWph3OxVxpZ1g4m3f/fF0MzFB6hVvWDpEuzl4WKvSNBvEAABEAABCxKAompBmKgKBEAABIpCICMzS1pQ90UkyHmorcUPfiQQ0AoBXiKpbf0QOX916vxdMgBTt5ZhWhEfcoIACIAACKiUAIIpqXRgIBYIgIB9ENh/KkEqqXWFKyUHS8LyH8UfdwRTKj7DotYQl5QqFdaoy9eldZWXuEECARAAARAAgaIQgEW1KNRQBgRAAASKSSDxepp0800QP+yf6FqT6oT5F7NGFAeB0ifA7urPPFyHzlxINgi4VL9KQOkLBwlAAARAAAQ0RQCKqqaGC8KCAAjYAoGNBy5KK2q3lqH0bM+6ttAl9AEEDAjUqOxLvEmPga2RtPNodoTg0PJeBvlwAAIgAAIgAAJ5EYCimhcZnAcBEAABCxOIvHRdKqhuLs40cXAzQpRUCwNGdaoj0KxWEPG26eBFmvPXEWpUo5x0CfbzclWdrBAIBEAABEBAXQSgqKprPCANCICADRLIyronFdRdx+Oob/uqIvAM5u3Z4DCjS/kQ6NSkkrzv1+2OpndEwKXurcLk5uTokE8pXAIBEAABELBnAgimZM+jj76DAAhYncChM1ekklqjkq8MllTWvYzV27T3BhBMSd13wNXrt2XApZPR16R1tX2jEHULDOlAAARAAARKhQAsqqWCHY2CAAjYOoFrN+9IBfXS1Vv0aKfqVA/BZGx9yNE/MwkE+rjTkG61KerSjfsBly7JJW0aVS9nZg3IBgIgAAIgYA8EoKjawyijjyAAAiVKYLOYj7diexR1blZJRkAt0cbRGAhohECVEG8a1b8BHT57VVpYd9wPuFQ1xEcjPYCYIAACIAAC1iQARdWadFE3CICAXRE4H3dDWlGdHR1pwqAmVCnI0676j86CQFEINKoeSLxtO3KJflh9gmqF+UmX4HK+7kWpDmVAAARAAARshAAUVRsZSHQDBECgdAms2BYpf2j3bVeV2jXEnLvSHQ20rkUC/HfTRgQa44BL03/aQ12aVZYBl1zLOGmxO5AZBEAABECgmAQQTKmYAFEcBEDAvgkcEW6LrKSGCzfGfkJJ9fJwsW8gKug9gimpYBCKKULyrTtSYT0ogpF1bxlGDzatVMwaURwEQAAEQEBrBGBR1dqIQV4QAAFVELieki4V1Bjh7ttPLDnToFqgKuSCECBgCwR8PV3p8S41s5e02RNNO49dltZVXpMVCQRAAARAwD4IwKJqH+OMXoIACFiQwNbDsVJJ7dC4EvV5oIoFa0ZVliAAi6olKKqrjuNRidLCWsbZSSqsNSv7qktASAMCIAACIGBxArCoWhwpKgQBELBVAhfib0oFNUt0cNzAxhRa3stWu4p+gYCqCPDyTrztOh5Hv/5zisIqeFEP4RIcHFBWVXJCGBAAARAAAcsRgKJqOZaoCQRAwIYJrNoRRZsOXCQOltShcUUb7im6BgLqJdC6XjDxtn5PDP3v1wP0QIMK0sJa1q2MeoWGZCAAAiAAAkUiANffImFDIRAAAXshcCwyUVpReakZVlJ57hySugnA9Vfd42Mp6W7dvivdgXceF/NXhXX1oRahlqoa9YAACIAACKiAABRVFQwCRAABEFAfgZupd6WCGnkpWSqojaqXU5+QkMgkASiqJrHY7MnLV1NorQi4xK753VuFUau6wTbbV3QMBEAABOyJABRVexpt9BUEQMAsAtuPXpJKatv6IVJJdXAwqxgyqYQAFFWVDEQJi3Eq5pq0sGZm3ZMKa91w/xKWAM2BAAiAAAhYkgDmqFqSJuoCARDQNIHYK7ekgpqekUUv9m9I4RW8Nd0fCA8C9kSgVqgf8bYvIp7+2nxWLGlTVroEs9s+EgiAAAiAgPYIQFHV3phBYhAAASsQ+Hvnefp3X4y0oHZqUskKLaBKEACBkiDQvHZ54u2//RfoyyWHqFmt8kJhDSUfzC8vCfxoAwRAAAQsRgCuvxZDiYpAAAS0SODE+SRpRQ3295BKqr+3mxa7AZn1CMD1Vw+Gne+mpWcId+AY2njwgrSu8hxWR/jy2/ldge6DAAhohQAUVa2MFOQEARCwKIHUNA6WFEURMUnUr101alITwZIsCrgUK4OiWorwVdp0wrXbtE4EXDpz4Zqcv/pAgxCVSgqxQAAEQAAEFAJw/VVI4BMEQMBuCOw8dllaUVuK6KBThrUiJ0dES7KbwUdH7ZJAkJ87Pd29Np2LvS4DLu04Kpa0EdbVhtUC7ZIHOg0CIAACWiAARVULowQZQQAELELgcmKKVFBT0zJoRJ/6VK2ij0XqRSUgAALaIMB/86MHNKRDZ64Qz0vnl1a8BisCp2lj/CAlCICAfRGAompf443egoDdEli7O5rW7jov56F2blbZbjmg4yAAAkSNa5ST25ZDsTR35TGqVyVAKqwBPpijjvsDBEAABNRCAHNU1TISkAMEQMAqBCKir0kraqCvm1RSA33crdIOKlUPAcxRVc9YaEGSjMws6Q68TrzM6iasq+wSXMbZUQuiQ0YQAAEQsGkCsKja9PCicyBgvwQ42ueKbZF0LDJJKqjNawfZLwz0HARAIE8Czk6O1KttFWpTv4IMuDR1/i6prHZsXDHPMrgAAiAAAiBgfQKwqFqfMVoAARAoYQK7T8RJJbVpzSCppMI6UsIDUMrNwaJaygOg8eaj427IJW0Sb9yWCis/R5BAAARAAARKngAsqiXPHC2CAAhYiUB8UqpUUG+kptOwnnWpRiVfK7WEakEABGyVQFiwN73Qrz4djUyULsFKwKXqeJ7Y6pCjXyAAAiolAEVVpQMDsUAABApH4J+9MVJJ7deuKnVtEVq4wsgNAiAAAkYEGlQNIN54KZuF6yJklHCOEFze38MoJw5BAARAAASsQQCKqjWook4QAIESI3D6QrJUUH09XcSaqC0pyA8/IksMPhoCATsg0LZBBeKNgy3N+HkfdRBzVzngkrsrfkLZwfCjiyAAAqVIAE/ZUoSPpkEABIpOIP1uplRQD529KuehtqxTvuiVoSQIgAAIFECAlVPjgEtdsNRVAdRwGQRAAASKTgDBlIrODiVBAARKicDeiHhaKSL6NqgaKJVUVxenUpIEzaqRAIIpqXFUbEum2Cu3pIU19mqKtK7iRZltjS96AwIgoA4CsKiqYxwgBQiAgBkEriTfllbUpBtpNKRbbaoV6mdGKWQBARAAAcsSqFjOk57rXY9ORicZBFyqHYZnkmVJozYQAAF7JgBF1Z5HH30HAQ0R2LDvglRSe7YNp+HiByISCIAACJQ2gTph/sTbHrEk1h8bz1DFcmWJAy6xIosEAiAAAiBQPAJQVIvHD6VBAASsTOBsLAdLiiJPN2d64+nmFBxQ1sotonoQAAEQKByBlnWDiTd+ofb574eoVd3y0iXYy8OlcBUhNwiAAAiAgI4AFFUdCuyAAAioiUBGZpa0oO6LSJDzUFvXC1aTeJAFBEAABHIR6NK8cq6AS2xhRQIBEAABECg8AQRTKjwzlAABEAABEAABEAABEAABEAABELAiAUcr1o2qQQAEbJhARkYGnTlzhi5evEhZWVk23FN0TQ0EcL+pYRQgQ1EJ4P4tKjmUAwEQsGcCUFTtefTRdxAoAgH+wfXee+9RmTJlqGbNmlS5cmWqUaMG7dixQ9YWHR1NDg4OdOrUqXxrN85Xr149WY7L8larVi1655136O7du/nWg4u2TQD3m22Pr633DvevrY8w+gcCIGBNAlBUrUkXdYOADRJ4//336auvvqItW7ZIS+rly5epZ8+e1KNHD0pISKB79+6Z1WvjfPyDjuuOj4+niIgIGjJkCM2ZM4eef/55s+pDJtskgPvNNsfVXnqF+9deRhr9BAEQsAYBBFOyBlXUCQI2SiAlJUVaOb///ntq37697GVwcDDNmDFDWljj4uLI29u7yL338fGhoKAgub399tvUunVr6t69O02dOpWqVKlS5HpRUJsEcL9pc9wgdTYB3L+4E0AABECgeARgUS0eP5QGAbsiEBUVJfurKKlK5z08POizzz6jhg0bKqcs8tmhQwdZD1tYkeyPAO43+xtzW+ox7l9bGk30BQRAoDQIQFEtDepoEwQ0SuD69etSci8vrxLpgZubm2wnLS2tRNpDI+oigPtNXeMBaQpHAPdv4XghNwiAAAgYE4CiakwExyAAAnkSCAvLXg9w7969ufLMnTuXjhw5kut8cU5cvXpVFq9fv35xqkFZjRLA/abRgYPYkgDuX9wIIAACIFA8AlBUi8cPpUHArgiEhIQQW1M3bNhg0O9z587RCy+8QDzH1JLp999/l9VVrVrVktWiLo0QwP2mkYGCmCYJ4P41iQUnQQAEQMBsAgimZDYqZAQBEHB0dJSBk0aPHk1t27aV0X456u/TTz9N/fr1I7YgnD9/vsigLl26JJe1SU9Pp82bN9O4ceNk5F8nJ6ci14mC2iWA+027YwfJiXD/4i4AARAAgeIRgKJaPH4oDQJ2R4CXi2FldNCgQbq+P/TQQ3LJGj7Ba6Cak4zzOTs70wcffCA3Ls8Rf2fOnEmjRo0ypzrksVECuN9sdGDtpFu4f+1koNFNEAABqxBwEGsZmrfooVWaR6UgAAJaJZCamkoc1ZLd2/z8/Ex248SJE8RLNBgnVlKbN29ufBrHIJAnAdxveaLBBQ0QwP2rgUGCiCAAAqojAIuq6oYEAoGANgjwkjT16tXLV9g9e/ZQQkJCrjxQVHMhwYkCCOB+KwAQLquaAO5fVQ8PhAMBEFApAVhUVTowEAsEQAAEQAAEQAAEQAAEQAAE7JUAov7a68ij3yAAAiAAAiAAAiAAAiAAAiCgUgJQVFU6MBALBNRM4FhkIn2wYC8tWHuSkm/dUbOokM0OCaRe3kQxqx+0w56jy/ZK4Nbtu7Rk01l69aut9M/eGHvFgH6DAAjYGAG4/trYgKI7IGBNAvxjaMW2SDp7MZn6ta9KjaqXs2ZzqBsEikSAFdWrB6ZRaK+NRSqPQiCgVQKXE1No3e5oio6/Sd1bhlHresFa7QrkBgEQAAGCooqbAARAwCwC249ekkpq2/oh1LddVbEMjVnFkAkESpwAFNUSR44GVUbgdMw1WrsnmjIz70mFtW4Vf5VJCHFAAARAoGACiPpbMCPkAAG7JhB75ZZUUNMzsmhU/4ZUpYK3XfNA50EABEBA7QRqhvoRb/si4umvLWdpxzEP6t4qjCoHealddMgHAiAAAjoCUFR1KLADAiBgTODvnefpXzHfqa9w8+3UpJLxZRyDAAiAAAiomEDz2uWJt40HLtLXS45Qk5rlqIdQWH08XVUsNUQDARAAgWwCcP3FnQACIJCLwInzSdKKGuzvId18/b3dcuXBCRBQKwG4/qp1ZCBXaRJIS8+U81c3Hrggras8h9XREXM4SnNM0DYIgED+BGBRzZ8ProKAXRFITcuQCmpETJJUUJvWDLKr/qOzIAACIGCrBNxcnGQQvLYNKkiFder3u+T81XYNQ2y1y+gXCICAxglAUdX4AEJ8ELAUgZ3HLtOK7ZHUsk4wTRnWipzwpt1SaFEPCIAACKiGQDlfd3qqe206F3ud1omAS/zsZ+tqw+qBqpERgoAACIAAE4CiivsABOycAC9nwEvOsDV1RO/6VK2ij50TQfdBAARAwPYJ8LN+9CMN6dCZK7Rm13kRcEkorGL+KgLm2f7Yo4cgoBUCUFS1MlKQEwSsQIDX2/tb/EDpJ5ab6dysshVaQJUgAAIgAAJqJtC4RjnibevhWJq/8hjVDQ+QCmuAD2ITqHncIBsI2AMBBFOyh1FGH0HAiEBE9DVpRQ30dZNzUQN93I1y4BAEtEsAwZS0O3aQvHQJZGRmyfmr7BL8UItQ6RLsUsapdIVC6yAAAnZLABZVux16dNweCaSlc7CkKDoWeVUqqLxsARIIgAAIgAAIMAFnJ0fq1bYKZQdciiEl4BKWJ8P9AQIgUBoEYFEtDepoEwRKgcCeE3HSitpERPLtK1x9yzg7loIUaBIErE8AFlXrM0YL9kEgOu6mDLiUeP22tK42rYVI8PYx8uglCKiDACyq6hgHSAECViMQn5QqFdQbqen0TM+6VKOSr9XaQsUgAAIgAAK2QyAs2Ite6FtfeOEkSoVVCbiE7xHbGWP0BATUTACKqppHB7KBQDEJ/LM3RiqpbEHl+UZIIAACIAACIFBYAvWrBhBvrKj+vC6CqoX4yIBL5f09ClsV8oMACICA2QSgqJqNChlBQDsETl9Ilgqqr6eLWBO1JQX54ceEdkYPkoIACICAOgm0rV+BeOOI8TN+2UftG1WULsEebvg5qc4Rg1QgoG0CeLJoe/wgPQgYEEi/mykV1ENns4MltayDYEkGgHAAAiAAAiBQbAK83mp2wKVomjp/F/UQx12aY4mzYoNFBSAAAgYEEEzJAAcOQEC7BPZFxEsltX7VQLkuqqsLlhTQ7mhC8uIQQDCl4tBDWRAoHIHYK7fk/NXYKynCuhpKLesGF64C5AYBEACBPAjAopoHGJwGAa0QuJJ8WyqoSTfSaEi32lQr1E8rokNOEAABEAABjROoWM6TnutVjyKik4TCGiPnsbLFtU6Yv8Z7BvFBAARKmwAU1dIeAbQPAsUgsGHfBamk9mwbTsN71ytGTSgKAiAAAiAAAkUnUFsoprztORlPf248SxUDy8qAS6zIIoEACIBAUQhAUS0KNZQBgVImcC72ulRQy4oAFm883ZyCA8qWskRoHgRAAARAAASIODYCb/wi9Ys/DlELsd+9ZRh5l3UBHhAAARAoFAEoqoXChcwgULoEMjKzpIK6LyKBeMmZ1vUwF6h0RwStgwAIgAAImCLAwZXaNKhA60WE4HdEwCV2B+YNCQRAAATMJYBgSuaSQj4QKGUCB04lSCW1dri/VFI9XPGeqZSHBM2rlACCKal0YCCW3RKIT0qVAZfYG4itqxwxGAkEQAAECiKAX7oFEcJ1EChlAokiSNKKbZGUIL7oH+9Sk+oIRRUJBEAABEAABLRCoLy/Bw3tUYfOXkyWa7DuOHZZWlcbVA3QShcgJwiAQCkQgKJaCtDRJAiYS2DjgYtSSe0mQv4/27OuucWQDwRAAARAAARUR6B6JV/i7cDpBFq1PZJ2HmWFNZTCgr1VJysEAgEQKH0CUFRLfwwgAQjkIhB1iYMlRZGLiyNNHNyUQgIRNTEXJJwAARAAARDQJIGmNYOIt80HL9K3y49Rg2oB0iXY39tNk/2B0CAAAtYhAEXVOlxRKwgUiUDWvXvSgrrrWJych4p5PEXCiEIgAAIgAAIaINCxSSURcClEugPrB1xydnLUgPQQEQRAwNoEEEzJ2oRRPwiYSeDQmStSSWW3KI7o6+lexsySyAYCIKBPABvv4lUAAEAASURBVMGU9GlgHwS0QSDxepoMuHQ8KlFaVzs0rqgNwSElCICA1QjAomo1tKgYBMwjkHzzjlRQY6/eokc7Vad6VRBcwjxyyAUCIAACIGArBAJ83GjwQ7Xo/OUb0sK6837ApcY1ytlKF9EPEACBQhKAolpIYMgOApYksPlQrFRSOzetREMfrmPJqlEXCIAACIAACGiOQHgFbxrZvwEdOXc1O0KwDLgURtUq+miuLxAYBECgeASgqBaPH0qDQJEIRMfdkAqqo6MjvTSoCVUOQrCkIoFEIRAAARAAAZsk0LBaIPG2/cgl+mnNCapR2U+6BAf5udtkf9EpEACB3ASgqOZmgjMgYFUCvCbqNvHFy/NQ2zUMsWpbqBwEQAAEQAAEtEzgAfE92aZBBWld/WDhHnqwSWW5pI2bC37CanlcITsImEMAwZTMoYQ8IGABAuzGxEpquFgvjpVU77IuFqgVVYAACBgTQDAlYyI4BgHbIHD91h0RcCmG9p+Kl9bVzs0q20bH0AsQAAGTBPA6yiQWnAQByxG4kZIuFdTzwt23n1BQGwhXJiQQAAEQAAEQAIHCEfDxdKVBnWtQm/rZFtadx/YI62oYNa9dvnAVITcIgIAmCMCiqolhgpBaJbD18CWppHZoHEJ9Hqiq1W5AbhDQFAFYVDU1XBAWBIpM4MT5JOkS7OToIBXWWqF+Ra4LBUEABNRHABZV9Y0JJLIBAhcSbkoFNSuLaOyjjSgs2MsGeoUugAAIgAAIgIB6CNQN9yfedh+Po8UbTlPl8l7SJTgksKx6hIQkIAACRSYARbXI6FAQBEwTWL0jiv47cFG6+WLBctOMcBYEQAAEQAAELEWgVb1g4u2fvTH02eID1KZeBWlh9XQvY6kmUA8IgEApEIDrbylAR5O2SeBYZKK0olYSS81wsCRfMZcGCQRAoOQJwPW35JmjRRBQC4GU23dFwKVo2s7rr7YMo24tQ9UiGuQAARAoJAEoqoUEhuwgYEzglvhS5Gi+Zy8mSwW1cY1yxllwDAIgUIIEoKiWIGw0BQIqJXA5MUXOX42OuymXs2ktrKxIIAAC2iIARVVb4wVpVUaA39iyktq2frBUUh0cHFQmIcQBAfsjAEXV/sYcPQaBvAicvnBNKKwxdDcjU7oD16sSkFdWnAcBEFAZAcxRVdmAQBxtEIi9cksqqOkZWTSqfwOqUsFbG4JDShAAARAAARCwIwI1K/sRb/siEmj51kjaeSzbJZgDLyGBAAiomwAUVXWPD6RTIYE1u87TerHgOM9DfbBpJRVKCJFAAARAAARAAAT0CTSvHSTWWw2ijSLY4dd/HaEmYpoOr8GKeBL6lLAPAuoiANdfdY0HpFExAV6vjd18g/09pJLq7+2mYmkhGgjYLwG4/trv2KPnIGAOgTvpmTLg0ob9F2TAJVZYeS1WJBAAAXURgEVVXeMBaVRIIDUtQyqoETFJUkFtWjNIhVJCJBAAARAAARAAAXMIuLo4ye/zNvUryIBL78zfJa2r7RqGmFMceUAABEqIACyqJQQazWiTwK7j2cGSWtTODpbk5IQ3rtocSUhtLwSu7H2Tkk/Npcw7SeQR3IECm04ljwqd7KX76CcIgEARCEReui4V1pupd6XC2qh6YBFqQREQAAFLE4CiammiqM8mCHBYe3bzZWsqz0WtVtHHJvqFToCALROI2zaSstKvU7nm75OzZxjdjFxMlzY/Q1Ue2U+u/o1suevoGwiAgAUIHDpzRboE+5R1FS7BoVQlBN/9FsCKKkCgyASgqBYZHQraKoF1u6PpbxEwiRXULs0q22o30S8QsCkCd2/F0Pm/mlL1IXHk4JgzqyXpyMeUfuMcBbf71qb6i86AAAhYj8DWw7FCYY2hOmF+0sIa6ONuvcZQMwiAQJ4Ecr7N88yCCyBgHwQiYq5JK2qgCJI05ZmWFOiLLyb7GHn00hYI3L0ZKaymDQyUVO6XW7mWdOvCGlvoIvoAAiBQQgTaN6oo1kcX81eFsvreD3uoS/PKUmF1LeNUQhKgGRAAASYARRX3gd0TSBPR/9jN91jkVWlFbV67vN0zAQAQ0BqBMl5V6U7SUbqXlWGgrKZd2UMuPjW11h3ICwIgUMoEnJwcqWebcDIOuNSpCZalK+WhQfN2RACuv3Y02OhqbgJ7TsRJJbWxiOTbT7j6lnF2zJ0JZ0AABDRBAHNUNTFMEBIENEkgJv6mDLh0Jfm2tK42q4UVADQ5kBBaUwSgqGpquCBsUQgcj0qkW7fvUqVynlRRbJzir6VKBfXGrXRpRa1R2bcoVaMMCICAyggg6q/KBgTigICNETgWmSgDLrEbcPeWYcS/H/g3xro90RQlogeXdStD7JnVog68s2xs6NGdUiAARbUUoKPJkiEQl5RKP6w+QZ7uZcjPy5VOX0imBtUCyNfTVSqpHCzpoRahJSMMWgEBECgxAvE7xtL1sz9TzaHJJdYmGgIBELAvAjuPXZbKaWiQF126mkINxJI2jcWWLF6Ac1DGhmK/R6sw+4KC3oKAhQlAUbUwUFSnHgKf/36QmgqX3g6NK0qhsrLu0ey/jhB/PtG1JgX5eahHWEgCAiBgMQJRS+pTugiuFNJxAXlVGWixelERCIAACBgTmL30CAUHeNCAjtV1l67dvENT5++iD0e1lRZW3QXsgAAIFIoAJuQVChcya4VAgnDtTb51R6ekstyOjg7UWSw34+DgACVVKwMJOUGgkARuRv0pS7iI4EpJRz8rZGlkBwEQAIHCEci6d4/qhgcYFGIvruqVfCj2SorBeT64npKe6xxOgAAImCYARdU0F5zVEIGrIrCBcbqbmUWmwsi7uTjR3YxM4+w4BgEQsBECrJx6VXmMnNzKyR4piquNdA/dAAEQUBkB77IulHgj9++QZGFV5alH+ulyYopY7ma3nNOqfx77IAACpglAUTXNBWc1RGDequN04HSCgcRlnJwoNS2DTom1UfXTnpPxVDPUT/8U9kEABGyEgKKUelToKHvk3+BlWFVtZGzRDRBQK4GWImjS2l3RdCHhpk7Ev3eeJ3dXZ1q84TSdOJ+kO89zV7uJeavGCqwuA3ZAAAQMCGAdVQMcONAiAV5WZvF/p6lRtXLk5ORA/+6LkcGSmtUqL+ekdhMBk/y93ehk9DW6kXKHxj/WWIvdhMwgAAIFEGBrKiunSuL5qXyOFVjMVVWo4BMEQMCSBGqH+VOP1mH01ZIj5C9cfm+KCMCVxQoDLz7SUPzuSKKlm8/SzmNlqXaYH0XH3aRhPetasnnUBQI2TQDBlGx6eO2nc7/9e5pS72RQ8s008vRwkUvOBPt7ELvZ7BVW1Fup4oujvCe1b5QdWMl+yKCnIGAfBFgZZaU0rO8OSr28ia4emEahvTZKJVU5bx8k0EsQAIHSInAx4Ra5uzlTgHg5rp/+239BvkCvVtGHhj5cl3yEuzASCIBAwQTg+lswI+RQOYEMMR/VUdzJh85cEeuZ+dELfesTK6mcKgSUlUrr4G61oKSqfBwhHggUh4CxNVWpS7GkKm7Bynl8ggAIgIClCVQK8sylpHIbPmJZPL4WWt5LRgNmV2ERgwkJBECgAAKwqBYACJfVTWD/qQT5lrJuuD9VCPSk/RHxNOHxJuoWGtJpmsCZi8k0649Dmu6DrQnv7xhNjV1+p//SJsquVXQ6RCHOh2nvnWfkcTXnzeTqkEIn7va0ta5ruj/VKvrSS4MwFUPTg1gKwo+buakUWkWTIGB7BL6c0En1nbLaHNWIeQ6q7zwE1D6B1anf0QMucyk0ai9RFFHW7ffp19kzqInLYu137n4Pao/Aa1e1DWZosC/179xAbWLp5LmenERXr8RThZDK5FHWU3fe1naysrIo9sJ5cnWtRkHBT1F9XQfby702RsdddceF28nMyKALMVHk5u5OQeVDhAdHbmeku3fT6aLI4x8YRD4+6g3Ydvt2Kl26GE3+AeXIzz+wcCAsmDs2/jodioixYI2oyp4IjB+c/TeuhT4fOhVLF8X93rtD7rmpavl7LAmOKbduUnxcLIVUCiM3N3erNcnt8Pdfpcrh5ORcdDWnpOS1GogCKp61aGsBOdRxuegjaIb8tXvtMyOX7WVJvZ1G0RcvU7kAPwr097W9DpZyj/T5vi35ztFJ5Hsjixbuak9d275C5Txz/5jUZdTITsTq5hqRFGJagsDU18bQkQN76K9/xIsXvTR62AC6cyeN5v/6t97Z3LtnT5+giWOeoeNHD+ouDh0xjl6f+jE5lylDTar7EX/5HjiTRJ5e3ro83331MX0y/U2a+tGXNGTYi9SzQ0PiupQUXq0m9XnkCXrx/96Q9Zw7c5Iebm+oqFevWZdefnM6de3RVylm8nPn1v/omce6GVzr3K03DRv5ErV+oBP9vfx3mvzKSDp41jBiNzOoHFaV3pj2iXCZu0fffTmDvpk1Q/aHKyvr6UWvvT2Dnhj6gqx72R8/06Rxw+ijL+bTgMezLat84ZXRT8sfSq8IWZ/o24EO7Nkh8+v/99RzY+jtD74gVlC/mfURffHxO7rLLMP/vvqJmrbIVoNTU27RlIkv0sqlvxrk+XjWD9Ss1QPyXJv6IfKFwd9bjgilOnvuWuTZCOrRrr4ci35dm9OF6Ehdef2d31dvF+1Ppe2b/9U/TQ0aN6dX3nyf2nboYnC+T+cmQmE+T7tPxJGLi6vu2vXr12jqxNH094o/dOfaP9iNPpw5T/Js3yRMd95453RchvEpHIOAXRNYvWwxTRg1hHglAV+/nDVUf5o7i96f8jIdOX9Tp4w1rlVReHzlPG8ZXH5/j0HBIfT7z/PorVdH0bhX35abAjst7TY1DPeSzzt+Rv7z9zIa89xA5bI8z8+mV978gOo2yPZWUJ77SqbgCpVo0FPDafSEySZfuin5lLaUY/7k587jT40Q5UdQ/OVY4ufG6s1HqEatHCV84fyv6NefviN+3nGKjjpLL7/4FB09lKMTtG73IM2Y9b18mRpz/hx1bV2LHhk0VJ6ThcR/f/wyn35bOJeWrN1Fpr43lHzbDsWIF5UhdPnSBXpLfHds3bheuUQP9xlI734yR748zMzMpDoVc56JnIm/N1q17UiT3/tMfr/wuYLkvXE9mZrXCiR+Njdu1oqLyPTjd1+IcZsv+21KXv3vOaUMPgsmoP1f8gX30ewcvy1fTw4hzSnx2nWDMl/M+1Wev512x+C88cG16zfo8VFvUNlq7ahux8eoXP2u1GPwOLoUf0VmnfvLX7KeaZ9+Z1CU6+V2vWt2kOf/WrNRHvM55TzXc/DYKV05zqtc58/KzXrSu5/NJbYwFJQ47/e/rZDZ2vUbnqueKR/PoZTU3GuC6debcDXJoBzL0LLnUPp12Tpdtg3b9uTKo8jMTKq16UevTZ+ly8876XfvSg4fz14glX3Of+pctMxTEF9ur0LtljRpWAcKqtnSoG1lDAwawwEIqIzAw30fk0omf3Er6eaN6/Tv2hVCUXxSOWXy81rSVXqs5wPii7M17T+dSCcvptFvK7fSkt9+pK9nvm9QZuumnC9yvqBTsu5PmsrIzKCX33hPRKq8ROu2H6e+A56kRT9+IxVIzs+KIqd/dkbQvlNXafOBKGrYpAWxMskWgvySUnb7kYuy/v/2nJHWvQkjB0vFULmeXx2sOLKS+tmcn+nEhdt0LCaFps34mt6eNJr4x4JM92V8b/JLlHwt0bC6+9f45MjxrxPLoL+Nn/i2zD/78w/o5+9n06Llm+jU5bvEMnfs8jANf7InJV5NkByeE/uRZyJoxYYDMg/z4B9HT/braPDDjBXR+bM/1cmh38/Fq7YS/9jijdP7n36rO67XsAnxD6xnR02QvHhMWNbKoVVo2KDuxD8mlXTqxFHijV9G6Cu23NaLQx+hOGHN2LD7NLHiyeOaIpTsscMfo8CgYF178xatktWt/O+g7pxSPz5BAASyCfBzgNOmfwxfHq5Z+ad8MWZsMSwf4JVdUPxf0N8jZ1SeD/zCTT+xAsSJ/8Y5Kfn4ucDbJ18voDJlXKj/Q80NXjbyyzV+Nu04Gkuj/u91mvW/aXRo3y5ZR17/KXV/s2CZrHvrwWga8MQzUoHmF233xD9TSf936JX4y0KWFlS1ei35POFnDz+/yogXpwO6tSJ+0aekv35fQHt35Vj5lPb5urKv/5xW9gPKlaf09DviBWh3+UKQn6MnY+8QP8OOHTlAr417VmlCfs6at1j3LP1zzQ46c+qE7rutMPIaVKonI59X5M3re864LI7zJgBFVY9Nz87Zb79X/7tN76x4q7PyXxr2eB8Ryc3wTYx+Jr4p+w17hWIvJ9C5ncvp3qV9FLF1Cd1KSaVHR0ySWZUbd8Gfq/WL0oate+TxzVvZP/CUfPFH1hNvP381nVzEH3XTbkPoxOlIXdmFX75L1yI2Utzh9fTm+Odo6iff0s79R3XX89tR2uA8b4g/Ym6H6/nl6+k0/XPxFkso7fkl5Xfeht/nyLI7VwrrQcM6NHj0ZPpx8UpZVMkTuWsFGW/lAwPEQ6U3Lfprre4Pmgtt2XWQmMOjPTsbnDePb7bExm3xMbeHBAJqJ9CiVTsKEK6jG4RiqqStG7Nf/nTu3kc5ZfKTFUkvLx/5ZtjL20e6PPGbdf6B4uaWE4GS3wCvXfGnrg5+e8zKTa26DXTneIfrYFmqVKtFY1+ZIuvhHxLs3qokzuPt4yvfivPbYk5309OVy/l+ct28VRIK1zPPj5eK39nTJ/MtwxfZEjFbKN5vCsvqgw/1khZethz2fXQwjXn5LWn9VJ5vbAnmfs38KFvxNFW5v3+AlIHlUDa2kNxOTaEvP3mXXn3rA2ouxsXBwYHKCYVu4pQPadCQ4XQ1IV6+5WeL7P++/olq12so8zCPVya/T01btqXvv5mpa/Kxwc/R5zOmkv5LCOVioPihxRYB3jixS65yzD86OXmKN//6zJ4cNkqeZ4VZSfzCoVf/x6VlYsWSRcpp+eNv3+5twno6V2c14HF973/fCAtJC0oX1nqlPXZd5lSufLDunK4i7IAACEgC7JHSR7zA0/dQYAsjPw/4WZRfYmUsv79HfvZwYi8VfsHFz2clrVu11MCKp5xXng1dxPcEK5b8nP/hm8+Vy1RWTAHhZxM/ax7q2V+eT73fji5THju+vv7y2VO+QkV6cuhIaYVUFOY8iuhO/7rgO/m9NF28fFOeb/ycZYWan126l6SiBD8j2ZuGp1HklZRntP6nk5MT8fOOlUz2EOF2+Bw/+/llJsvNiqySeGqGwqtajTriefk0nT93Rl4ujLxKffl9Ku2wvIX5nsuvTnu7ZlXXX63B9PYqS4Mf6UG/r/yHhj7WS4ofG5dA2/cepndeHZlvd1jB2rr7oFROq4ZlL4FSq1oYffvxZPp24RKdhbJuzapS2Txy8gw1rFND1rnk7/+odbMGtMtIyQwK9JfX+3brQLy16fMsffbtLzTv0ynyvGdZD/L1zn5L98jDD9LoNz7StZOvsEYXvTw9SGmrfDl/erRXZ1rz33ZhNehnlDP3YYC/jyzL5bkP7OrMFllW7JVUJTT7x5dyrHw+1qerVK73HT5JLRpnu40svc+iWnglOn/hkpJVKrDm8OUCebWnqww7IKBSAjyfht1UVwm3MragceIfJj2FpZV/ZOSXzkQcl26g7OKrn9gVV98dt0fvR+mjaZPoA/FGnt2eWCnm+tnall9q0SZ7Tljk2VPCdTZUZuUfB6ysJiVeod8WzJXuYAXJqbSRJiyvDmKuJ5f9dcG38odDdeE+xi7HbC1gd2T9dFZYLdntNursaXm6nXBbNU7tOj5EX382XdbJ15ydnGnaR18Tu8OyW5m+m5ZS9ohwR1v112/Kofxs1+khSoiPk/uspOond3cP6X7M5+bN/kTKxD8o9RMrtZ2ExWXFkl91p1mp5n5Nf2sCffdzzosIXYYCdtj6yVZzTglxl2nRD3Nk2xXFfC9O7KbM1vP3P/tOuvO98FRfoYjOkS7e58QLAP7BxMqpfmJ3vSnv5/yY1b+GfRAAgfwJsKLKf2f88oyVnw3rVupcSfMrae7fo7uHB/V/7Cn6Z80yqXTx9I91q5fSOPHi8ND+3fk1Qe0f7E6b/s2x9m7b/I+Uk5+761b/RfwSr2XbDvnWoVxkrw32lOGy7GrMzzF23VUSu+gGBpVXDmnPji26/SMH99KD3XrppjwoF/hlHNdxTjzX27TvLE+/+NIbtLXfg7Rg7pc0fPQrSlaDT+NndbnyFaTrbsTxI9RG1KdMaeHnYda9LOn+zC7Qzs5ldB6H7LrLz1J+ocnfZyvEC77O3bNftJojr4FABRzk9T1XQDFc1iMARVUPBu+yotp76EvEbqZ+Pt60Yt0WYkWuU5tmRjkND0+eiZIKGyun+qlerao0a3p2JEo+X9bDjZ4e2JOWrdkkFdW0O+m0ZPUGmvryC7kUVf16eL9Hpza0ekOOtXf95l1SztTUNFoq3IVrVg2ljm2aGhcr8Dg9/S7xvM9MsczLgaMRxPV+OjX7R3KBhY0yPNi2ubTI3riZ/UaQL+u7A/NxhaBA6tS2GdWpUYWaNqhNrJyyopqRkUk/L/mbPn7r/zibQTKXLxfKqz2DCnEAAiol0LP/IJr79f9kkCAOeMOuZLN/XFqgtPxjiV04C0qsDLJitUVYatlFdbWYEzpizKvEc6vyS8rcyjtpabps/61fJedBsvsWK5xsLeQfNcZub7oCejuNq+Uo3vzmm9+481twJen/2OFz/Lack+LG6+2dU15eEP+x4stJsUjwPtf9rJj/OmXiKFq23nDuL1/ftW2jeJuerfzyMadadRvSLeFyzYmV+bzStcREMT8t+4WicR5H0ZdbN28YnH592v+oQ5Nw+WOvag1DpdEgo4mD7+d8Rrzpp5nf/KI73L1js2TPSrbiesfjw9adG+Le8CrgRYeuIuyAAAiYRYDnh/Pzgd1/+w0cQmvE/G/2tigogI+5f49ZwuW/W89H6OPpb0ivlt3bN8lpErXrNSpQPj/hKXI7NdtLjzPv37Ndzl3PFNM6+KUme2qwd0zV6rULrIunGCiJX3ixxwhbIuMuX5SnjxzaKzw+cubgxggrML8k5JQoghrVyUNedv9VXJg5Lwf+e/vDWXIKycP9HuNTuZL+9Am+2Ey8SOQ5pjw/1UvvO4Ets0sX/6Qr/+vyzdS4eWt5PG7EIN15ZWfeLyvlbmHkVcrm91nQ91x+ZXEtmwAUVaM7oWuHllIxZfffpx7tKa2rIwb3F29jcn5AGRWRh6zY+np7mrpkcI6VwQHCrZXnZr798vO0cfs+GXSpUb2aBvlMHQQIa2WKUEqVtH3PYWl1ZAXvWMQ54R7sTFExl6h29XAli1mf74g5s7wp6cVnBtLA3l2Uw0J9+vlmP6zS7uS4WXwyZ6FBHe1aNpaKKp9kyzVf/+CNMbRj32Hp9jugZ86bOqWguXw5f37tKfXhEwTUSqBegybybTfPS2VrGf8Q4qA3BaXQ8Gq0e8emXNnYQslKDAdJUlKfAU/QupVLqEGjZnIeJVsiC1JUFWtejdr1xEulu7Kqz79dJH848QFf5yBM20Qgi64PF+yNwfNb2fLIP+oUq6AiH/dZmSupnOP5r5w46i6nwyLolHEgof17sl/ksauXfmLXZbb+/rYw5zmnXH9h7ESd9Vo5x5/KjzAOAMLWUP3EgU4aNW1FwSEVJT9WSJU3+Uo+/lEZVqWacig/OYgJB7biubTfLlxucK2gA7awjxw3SWbjqM6TXx5Jn304Rbr68sllfyyUP/r0g1xxn1lRZbczVsa5nI9w41MSy71YBCsZOPhZg/PKdXyCAAjkTYCnHPQf+JTwellCD3TsKp+zE6d8lHeB+1fM+XtUKuF6zz/7KJ0WyiV71/DfMz83C0oXoqOofqOmumz/N/Ed3XOZrY0jh/YXf/vzdN4huowmdviFGAdR4hRSMVROt9DPxlMI9IMp8XcJ182pQsXKJr+X2L2Xgx699No0/aqk90+nrj3pw6mvUvtOub/3jAMNKoX52apvQeYpGqMnvCle3qVR706Gij3PUW3ZpoO0qF6OvUBPP9qV5ouXgBznwBx52Y2ak/4LUT6+I17S6luW+Vx+33N8HalgApijasTI1cVFWDx70Z+rNlD8lSTatGM/PdEv522SUXbdYZXQinQ6MoaSkg3foLNlkRUn/fMPdWgl87JyydbUIQMeFg8eXVV57kRGXxTzQHPefk2bOJL+/nkWrf/ta4o9sIYa1KkuXMoKtrwYN/DyyCF0dscyud04vYVmf/i6tCYb5zPnOCY2TucKrOTfv+5n0t++eO9V5ZJUiC+Keb0cKGrZ2k3Uq2s7nRuyLpPYKQxf/bZ4X789/TqxDwJqJTBAzJnhqJLr//5L/jBRrJn5yVtTKJA8l4nD8uuneV9/SuwWpZ+69Ogn51ZxoA6eW8ruuwUlZS4Wu9+aSuzKFSwUxDOnjpu6nOsc18PKtbGSmiuj0YnwqtXlmW2b/jG6QrRjywb5dl2Z16lk4P5xVMdP3p9MsWJpFnMSK8SsMBvPxWKrMUfj9PT2pnoNsn8I6gcA4brZqsw/whSXNv32nh4xVlo3OZJvYRLPUWULO2/swvuCUFp5/hq7A7JVgseSIxVzICbeeH/Lf2vl/cDWD07GVup/1yynRT99a2CJKIxMyAsC9k6gt4iGzi8Vl4u/P36mKQpdflwK8/fo7lFWTs3gaOj8DO5SQFR1bpefP/ySql7DHEVVXx5+OVirTgM6efyw/uk893mZM35W82Y8tSTPQvcvNGraUropK54wSv6jB/fJ3RZCYTRO/KxmpZzdnM1N/P3Hz8NLsTGyCFt+Wd6bws3XOLGbNj9HOU998bKWX+KeOpk9D9gceSU/4alz8tghg6o5KFNt4Y2jn4r6Padfh73vQ1E1cQc82b87LV+3mRaKoEc831SZP2kiq+5UnRrhcn/zzv26c7zDytecBX8aWFvLerjToL4P0eIV66XFtl/3jgZlTB1wZOBflq6VAYtMXWeLb4Pa1enwiTOmLud7jueV8pxQ3tjNuTjpl6VrqI2Yq2puqhgcRJ3btZAvBrh/bMU2lQrD11R5nAMBLRHg6L88B4mVj579crspmeoLz23lt8pvTnheunTx294/Fn0v3Z+UJVuUcvylznOUOPJjD+H+ayrFi3mQUedO0emTx0Tk269p2uvj5Btnfffc85FnZR6e18PXeVmcDvejYZqq0xLn2D2Ml2zg+aHL//xFuteypfCbLz6UkW7HTTStAHKQIXZBM16OJk4EQGEFX3/jtVl5rdSJb30oowiz+zXz5MBTr44ZKt/6s4LNAZN4DuvUSWPowN6dMmAHK8K8BA4ruYPvBzzS7zcr0e9+PNtgCQX96+bu89wsTiwX/1Dm9p54+gU574vnfj3+9PPy3HoxH40DPbGbN89N5rFi5ZaDuUx7czwNFYqzqXVhzZUD+UDAngk0EQHrWOGZ8e5rMiiPOdbOwv49du/zqAwgx8Hy2OPGVOJnNW/8fGNXXX5O8rx8JbGHCF9nZepbseTWop++IQ68ZO3E3z38bOJnIj8/M8TKDieOHqKJ44bJZ1WL1rnXww2rUp3Gi+c4v+wzTvrPaWWfFfO+wvWax+FtsQQXK6s8p5Zf9r4hPBcLShw4TnFBNlfeFq07iO+GWfL7kdvn5ywHhmJFF8myBJwtW51t1Na2eUNp1Zv43hc0TQRRMufB06huTeLgQK+++zmx8tWwbg3ae+g4jZ08g96b9GKuHwIDe3WhQSNfp0oVguQ8zf+25547pSzLcjUpWboKe5Z1p2cGZU/4ZtJsieQ87Pq7Yv1mqRBzWyWZIqNjyc3VVUY3nrdomYyQzFZM/cSBo4xTjSqhuijKTwvl9NkJ2e4fvboYBi5RyhWGb0HtKXXiEwTUSoC/qPnN/KWLMVIRMkdOfvM++8cl9LL4QdC5ZQ1dEbaumfpxw+uiclTbTl0f1uVVXDt4fhErfrxx4iBEb777KT35zEh5rDwTn+iT8yOD573y2qGm2pKF7v+nlNU/p79f0HXOO/qlN2WRiWOf0RXlHynf/7ZGunTpTurtcL3vCNcuYzewH779nHjTT917D6Av5/0u1wuMvRBN//f8E7rL7IrH86iUNGfBX3LtPn0WzGDFhv0G6ysq+fmT14vlQCz6ES/1r5uz73N/zilbkVcs+UX+KNW3drBCzMrpiqWLpMI8RVhYeY3BgQ+30VXPa+yyQosEAiBQNAL8kucxMS+Vn5W9RHwBc1NBf4/8vOJ57pwUF1h+ZijPR1b+OCnH3R+oJ4/5/ENi6gVH+NYPbPfum/8nr/N//EKTrYimXqTpMokdpW79c/r7DlSwKyBPNeD1RvkZ+lCbHI9A7sv0T77Rr85gn4Mp8ZqkSlJk4cB4xomXoeFYBHPF0lqTxg6jTs2yvX6YBQdo4mkYSnkuq7/PxxzlnZVefkFZsXK4WfKyazHP8e39YGOuQqaR417TTcUwbkPJg8/CE3AQUa/uFb5YwSUi5jlQ7V7Zpv2Cc6svx+SPZtMHYjFiXmLGOEBSXtKyq/Dzr06nlf9s0WUZP/wJ+mjyOKmU8TqqvO35ewGxS7BPrY40abRY4Pit8cRrgD7y3KvErre8juqA4TkBmNjK2b9HJ5r8f8N1svA6qspyNtwYK7zsQvzupFFyKRudACZ2eB1VjmLMUX15HVV2t+UlagqTeB3V8g0N5w9wPWOGDaKHO7eVVXGfug4abbLawxt+1UU95vmn/nU6S2sqL7mjpOiLlym8ZR/dGBTE19z2lPq18BmxujnVHmGVP1EtdF+VMp65mEzLtp6n/p3N9xywREd4Lc0TwmJpKnl6eekiuvIjPV5E8E27fVuutVlQYA9T9RXnnLlyFqcNpSzPc4oSywpw/3nulLUSv52/GHNeLHtQQUb3NNUOv5GPjjonfuiEqnq+J7vgXRFL61QKDSeOYFxaKTb+Oh2KiKGXBuX80CstWdCutgiMm7mJxg/OeUmmRuk5NoB+MCNFRlZg2N1USaX992iunIq8xfnkaSm8rFeYmL5hrWcPf/8lxF2S7s/s+lschdEcefm5z4Gc+OWy8ZST4rAqibKzFm2lLyd0KommitUGFNVC4OM1TPWDGSlFeX5p80Z1lUNKvHad4hIS5TIpHu5uuvMltWOunAXJY6l6CmqnsNdLm29h5S1OfiiqxaFnnbKlpajyOnB5BTzi4BxsPVND0oqcamBlzzJAUbXn0S9e37WgqHLEWf01jpUes+I0YnROnA7lfGl9akXO0uJjy+1qRVGF628h7sI9B49TQuK1XCXY+UFfUQ3w8yHeSiuZK2dB8lmqnoLaKez10uZbWHmRHwQsQYAjTD4/JsfTwhJ1WqMOrchpjb6jThAAARBgAhwzQAtJK3JqgSVktA4BKKqF4DrscetPPC+EOHlmtZSclqonT0FxAQRAAARAAARAAARAAARAAARMEICiagIKToEACIBAfgQSkm4Ru80ggQAIFJ1ASGD2eoRFrwEl7ZUAnr/2OvLot70RsKqiyvPrkEAABEDA1ggE+XuWeDAlW2OI/tg3AWWOqn1TQO+LSkDtwZSK2i+UA4GSIqCVlz1WVVS1HPW3pG4UtAMC+RHAy5786OAaCIAACIAACIAACICArRJwtNWOoV8gAAIgAAIgAAIgAAIgAAIgAALaJABFVZvjBqlBAARAAARAAARAAARAAARAwGYJQFG12aFFx0AABEAABEAABEAABEAABEBAmwSgqGpz3CA1CIAACIAACIAACIAACIAACNgsASiqNju06BgIgAAIgAAIgAAIgAAIgAAIaJMAFFVtjhukBgEQAAEQAAEQAAEQAAEQAAGbJQBF1WaHFh0DARAAARAAAXUSuKdOsSAVCIAACICAighAUVXRYEAUEAABEAABEAABEAABEAABEAABIiiquAtAAARAAARAAARAAARAAARAAARURQCKqqqGA8KAAAiAAAiAAAiAAAiAAAiAAAhAUcU9AAIgAAIgAAIgAAIgAAIgAAIgoCoCUFRVNRwQBgRAAARAAARAAARAAARAAARAAIoq7gEQAAEQUDuBe/fI+Uo8lbl0kRwy7qpdWs3L55ScJHjHWa0fxa3f6Vpi9r2QmWk1GVExCIAACBSFwO3bqXTuzEm6lnS1KMVRBgQMCEBRNcBhPwept9Po5JkoupqUbD+dRk9BwAoEPA7tpRq9WhlsIe++Su5H9svWvP5bQ2EvPGbQcuAPX8v8Hgd2G5w3dVB21xaq9lhnqjKsL4U//yhVfaIbea9focta5Zk+4nil7jivnaAvP6TgT9+Rl8t9N9NA3qpDeshrTsnX8ipe4HnnxCsGdRoz4Qq4Hc9tG3R1lbl0QZ4LmTqBHO6m684Hzp8l63ITP3b0E5cPHz6AHNJz8rpcPC/zOqamELNmHvmlsru3yvy+y37Nlc39xGFZf9UhDwve/ajawAcpYMEcoqwsmdfUWCv9dDbjR1lB9Rckf9l9OySvqk/1lPdC9b5tKWj2/wSPO1I+n7XLco1BpUkjySUmyqCvPM4sN9+n+qmg9vXz6u9b+97Sbwv7IAACRSfwRN8OVDPYWbd1aBJOn8+YSrfF85NTm/ohtGbln7oGzkeekedGDO5N6fefM7qLRjvXr1+jl154khpV8aaH2zegVnWDafiTPSkh7pLMGXsxWrYbde6UUUnDQ/18iVcTdLIqcj/aozWt+us3w0I4slkCUFRVOLTt+g0nh5Dmuq1ys5405eM5lJJ6W0pbvmE3+mPlvzrJz0TFEJ/r+dR4uqP3A06XQW/n2vUb9PioN6hstXZUt+NjVK5+V+oxeBxdir8ic0VfvCzbPXUuWq9U7l39fAlXk3SyKnK37DmUfl22LndBnAEBmyOQvSJk5M9/U+Qva+n8939Rpo8vVZgxmRyExctBWEP5U0mspPr9uYBiP/iaUpu2Uk6b/PQ4vI9C3ptIV0a+QmeXb6dzf26S++W/eJ8MldyCV6V0YGVLySZkSmneVsobtWAVJT49ilyizlDlV8SzR09hNClUHicz/AIoauFquV2aNlPmivnqF90542KspFae+DzdrtOILk+eQffKuMgsDhkZ5LPmL8py9yDPrTnPOaV8mbhY8lv6s3KY0ydxRrIuwOLsLZRZrtv731U5dYg9tlZXmvgC3ejWh84u3Sy3uNffJ//FP5LvisX382YD5DE23jJ8/Q3qMz4wp/785PfYv5NYob/26NN0bskmOrNyJ134ZC7x+QofTdY1l14xlM79/i+dW/wvnZ/7JzndvE7lvvtMd513PLdvkAxYaXcSPy6VlF/7Sh5Tn0W5txxMVYRzIAACVicwcvzrtPPYJdpxNJY+nbOQZs98n1YtU55xOc2zkvpk347UtGVb+vqHP8nFxTXnotHePfGd8uLQRyhOPJ837D5Np+MyaN3245SScovGDr//olbkMSvp5eN6OS348x8p8++rt1P9Rs3o5RefoqWLfzKrOmTSNgEoqiodvzfGPUvxR9ZT3OH19MvX02n65/Ppt+Xrc0nLSmq7fiPogRaNaOn8T8jVJfvHXq6M4gT/wfcb9grFXk6gczuX071L+yhi6xK6lZJKj46YJIsoDwVT5fXP6edTnikbfp8jZd658gdq1rAODR49mX5cXLClR79e7IOAVglk+voRb3fLh1By3yeIrVbGlqzA778kn9V/SgUjtVFzXVcrTH+N3I8f0h0rO/6/zqebnR+mGw/1pnvOzkK5cJf7V4ePJ0fhXlWcxIohy5sRUI6u9+hPsR/OIVYC9S2exvWzcuyzbrnx6exjR0fK8A/M3u4rbRn+Abpz+oVcxJt1VlJTG7ckVgbv6T23PA7toXuurnT1+ZfIe8NqAyWf67jRrS8FLPyWyly+qF+lWfustHH/4l95h1yjzhqMT8Cv88SLg9aU9Pizon03ubEyH/fqO7ncrXmMjTcS/c8vFaZ+U/X4//YD3ezUna4NGEJZbu5icTlHSqvTkBLGvU6scOruNScnyirrRVmeXnQ3pLJkbHyv+KxbQVefHSvH33PnZlPNFetcUe6tYjWIwiAAAmYT8PT0pIDAIAosV55atG5P3XsPoC3/rTUoz1ZPVlLbduhCX3z7K7mKZyKn9av/oqmvjTHIywd7d22lfbu30Ycz51LlsKryepVqtei9/31DDRq30FlscxU084SveBHKMjdu1oqmzfiaRk+YTJ9/NNXM0simZQL5f7NquWcal93L04OCAv2pfDl/6tC6KT3aqzOt+W+7Qa/Y6slKatf2LWnxNx+Sm2u2krr07//oxdc/NMjLB1t2HaStuw/S/M/epqphFeX1WtXC6NuPJ1OLRnV1FttcBc08EeDvI2Vu3awBzfnoDXrrpeHSEmxmcWQDAU0TcEy7Qw530sg5IU5YBJdKJeDO/S9s7hi7s/ot+ZkSxr8pFQz9zjrdSDZpyXQ9G0H6Cq1ShpWVWw88qBxa5DPTy5tu121ErtFRedbnciGK3I8dzPO6ORdcz5+jSq+NpEyhTMUJhZEVcP3ktXEt3ejck2617SSVfeP2Ulq2o1vtu1K5bw2thPp15LXvuX0j3alSnW616Uh3xI8ofaXc9ZR4+y8UUyWxZZfnA3Nbyf0HK6flp9fm9aS/uR89YHDd1EFh6s9VXljD2W04pVX7XJdu128qz7nERstPvpe8/1kl3cEDfv5OWoOTe+e4nrtcOE+u4kforXad6UbX3uS14e9cdVr6hDn3lqXbRH0gAAKmCaQLzzueR5py6ybt2bmFtm36h9p36qbLfCbiOA3u9yB5Cc+gj7/8kZzLlNFdY/ff69eSdMfKzrnTJ6UiycqpfqpRqy5Nef9zcvcoq3+62PutH+hEceJl5a2bN4pdFypQNwHDXwjqltWupEtPv0s8jzQzM4sOHI2g9Zt30afC7UtJx06do7GTPyZfb09aMOtdcnLKeedwR5RNSs79x8tzUln5ZeVUP9WrVZVmTZ8oT11JzHED089TlP0H2zaXluAbN1PI28uyD6miyIMyIGBNAtUGdtJVz8pQ/HjhjnnfysaWSnZnZbdM378WCSWzM90Tli8lXfz4W2VX98nuwmwJy7LwF7yuARM7mT5+uvmOJi5b5BRbidNq1iW30yeo7N7tBsqXY8pN8tq0ji58/iNlevlIxdFzyz+5lPUrI/5PzkX13LmJ0iuFmy2X9z8rpXLGBW527CaVuKQnhwufYQdyiY0Rlsic51SVZ3pLRVmpnF1tlcQvHPTT7XqN6XaDbIVR/7z+fmHq1y/H+zz/lpPpeyHbNc4hLXtqCFvyFQXcWQRd4uQSEyk/+T9WsFnh5bG+1aaTcENfSGXiLwsLcQVdHmvslMS9ZQ25UScI2BqBLz95l3hT0uBho6h7n0eVQ/rq0/eEFbQ5HT20jzb9+zd16Z4z77/3I08Qb8bphphCwIptSSVv8fzidEe8HPYUL1mRbJcAFFWVju07n35HvCnpxWcG0sDeXZRDevezudSicV3ae+gErd6wjfp266C79mT/7sSbceL5qazYllTy881+eKTduQNFtaSgo51SI3B+7hKh8AgXeydnyggKziVH7PtfCRdXVwodO0RaVpMGPZMrj/4JVmTvBlckt4hjwrpoaD3leYmsyLJ10ZKJrXLGVju2LLLSxslB/C2z8uxxYJc8jn3/a7oTXk3um/sfWyjjJr5L5T+ZSuVnvU/R3yyWSimX99yxWVYTfH/OJSv4PJ/0ysiXJTuljQzhAsbuz0FffUSXpn6qnM73k+fEMkuu03flH3JuJveFFea0WvXkSwQ3YVVlKyOnGKEsc9/ZJbv8zPcM6o6ZtcDg2JwDfklhbv3G9WWVzX5us/z6Vl/O53r2lMyeUS6Y2KU6PbQKKXOE+QJbYnnubXK/JyjT21da+3kcZVCq+/N5Pbf/J12KZUVW+s/UvWWlplAtCIBAPgSeHTWBhgjllBO705YV0wT0U8++j9GnsxfSq2OfobdeGUnNxBxVdr3NL1USz53z507TdREx3Udvvj5bPBcvnEsDBz+bX/FCX7skXiyy7Lwh2TaBHDOcbfdTc717eeQQOrtjmdxunN5Csz98nfx8ct4aDer7EO1Y8QM90a8bPf/qdEq8dr3APlYJrUinI2NyWVvZ4vmJmFBvygpbYKX5ZIiJjZMWXLbiIoGArRO4W0HMW6xQyaSSygonK0NsaU186gUK+Gm2nCNZEJM7VWpIq6NBvntZQsH7oNhzVA3qFAfKnM07VWsYXGKFmRVL3tgKya7IyvFdEwq5QWETBzeFyynXeWXUK1LxLSei1ipJWjzFHFR2j+Yt9r1Zsp9l92crxko+/kzuO0i6DwcszHmhp3/deJ8tiezuGzdpuqz78pT/yWMvYbHlxNfK7tmmK8aKH4+nc+JV3bni7BSrfmHxTW3Sksruylbk9eXwENGlWZnne8VUuhNaVZ5miy4r3WxxvfzmR5JB/MtT5Zxf5m7NlNe9Zc02UTcIgIBpAv4idkCoeMHIm7GSyiXYuuokpmSwy26a8NSY9sZ40xXpna1Wo4482rNji95Zon/XLKdFP31LXuIlmSXTyiWLqEnz1pasEnWplAAUVZUOTKC/L1ULryQ3nq9qnAb26kLOzk7SZfd2WhqNfXOGcZZcx3VqhMtzm3fuN7i2bO0mmrPgT4tbW39ZuobaiPmqSCAAAjkErj02VCqs5T+dqgvS47vyd2kNy8mVvZc0ZIQMkhPwy1ziuYccoTVozqfkKCIpsttmcZJj6i3ZJs9Z5GA8Fd8aK+dj3qla07BaVpJE0CPe2FqXKYIvKcemXVENi+d1xK6g8S+9Rawo8tzRMvGXpCKV3PdxqQyzQsxRkVNad5DuwMb13HMuQwljX9dZd5XrbC1kxUh/c7ydQrx0CwdikvVy3WK70aUXeYvgUGydviYs3M5iKQSe1+ko5m7xWqW+yxdnL0+jVH7/U79uZV9ZIsYoq+7Q3PpNyi9+LF577BnZp8AfZ0vZeD40L13ELz34nlKsrrx0D1tWeePgVxVmvCUVWX5RwhGPeW4zc1U4JPceKO8xnjvMKa/2dR0xY8fse8uMupAFBECgdAj4i2f9ByI40moREXjdqqVSiGOH95uMtlu7XkN6uM9A+mjaJDpycK90yeXgStPeHE9DR4wVs2CKp25ciI4kDvB07MgBGcyJl9AZ88qU0gGDVkuUAFx/SxS35RsrF+BH8z99mwaNfF24BneVQZf2HT5BxyLO0bDH+xg02KhuTXqsT1d69d3PqWJwEDWsW0O4Dh8Xc11n0HuTXiz2gyQyOlYEdHKVUYTnLVoml9DZv+5nAxlwAAK2R8ChUF1iBSt+wtsUOn6onB+Y9MRzVO6bTynutelivqXh/HG2knHU2aCvPyb/RfNkO2ydjX3vC4NIueYIcE/8UNBJKpRPXvombOQgXZ03O3anxKHCHUxcyy/dcyjeDw79um+16yIV7vIz3xUBi56U7rdsddZPN8V8Xl7/VZmnqX/tdsNmMhIuz2tVErvzsnu1fmKFlpXQWyJAk35KadVOLt3CwZBSRWTKuEnvEa8JyvNoObGL8aW3P9FbbzSbjXH9nJeX4jGWnc8rSY5lgfWL+agm5OdlaFixvPzWDCr/6TTy++MnpVoRvXeMXLJGOcGuzcq48jkOkMVLIYmAB3L93ctvGAba4xcT3E92/+V7K6/2OcJwXslS91Ze9eM8CIBA6RBg5XNVz/70ugiO2bJtB9ojpmf88uM3NODx3FNXpnzwhXQVHvhwG52wQ0eMo8effj77uIDvFl0hvXwO9/fHPDdQd7lT1540b9Eqqtegie4cdmyXgFg2TVlcxLKdjJjnQLV77bNspXZSG6+j2qtrO+IlakwlXjP1q/cnSaVTuT5g+ET6d+tuity1gn76fRXN/ukPuQSNcl35jL+SJF2FV/6T454xfvgT9NHkceTu5kq8Pmp4yz5y2RrjoEtKHfypn8/Px0uu46p/neUfM2wQPdw5J4qm/nXsm0cgYnVzqj0iO1iKeSWQy9oEzlxMpmVbz1P/ziXnLcAWP2dhceQ5rrycjCll0vlKPCnBc4wZsCVULmlifAHHuQjoWIslYHi5HXMTB4Jyib1gMjsrgkpdRa1fV7Fw/ebgRw5378rlZ/SDcunyWHjHGvdWbPx1OhQRQy8NamxhaVGdrRMYN3MTjR/c3ta7qdn+JQtvlCsJ8VQpNJzcxbQE45Qpvs9OHDUdPd7Ty4uMIwcbl8exZQjMWrSVvpzQyTKVWbEWWFStCLeoVW9bnv02P6/yvL6qcVo6P2ee1yujniLeTCVe7mbFT5/JOa1xCYlUJTSEPNzddFnDKlWQ66tytGEO1GQqcQRfVmJ5HVYl6e8r5/AJAiBgGQIysFJI5Xwr43VFOTCQqcSKEhRVU2RynzOHde5SJNyyr5O7mC9qKt2u30SnqBa1fl29wqLNls+STLi3SpI22gIBbRPgwEv5BV/KzMygXWK6h6nEQZmgqJoiY7/noKja6dgH+PkQb3mlDPEg2bgjRxHVz1elckiuJW70r2MfBECg5AmwGyxvSKVD4G5IJbo28OnSadzKreLesjJgVA8CdkTARXgGPT9moh31GF0tDgEoqsWhZ8NlXV1caNLooTbcQ3QNBEAABEAABEAABEAABEBArQQsFxVDrT2EXCAAAiAAAiAAAiAAAiAAAiAAApoiAEVVU8MFYUEABEAABEAABEAABEAABEDA9glAUbX9MUYPQQAEQAAEQAAEQAAEQAAEQEBTBKCoamq4ICwIgAAIgAAIgAAIgAAIgAAI2D4BKKq2P8boIQiAAAiAAAiAAAiAAAiAAAhoigAUVU0NF4QFARAAARAAARAAARAAARAAAdsnAEXV9scYPQQBEAABEAABEAABEAABEAABTRGAoqqp4YKwIAACIAACIAACIAACIAACIGD7BKCo2v4Yo4cgAAIgAAIgAAIgAAIgAAIgoCkCUFQ1NVwQFgRAAARAAARAAARAAARAAARsnwAUVdsfY/QQBEAABEAABEAABEAABEAABDRFAIqqpoYLwoIACIAACIAACIAACIAACICA7ROAomr7Y4weggAIgAAIgAAIgAAIgAAIgICmCEBR1dRwQVgQAAEQAAEQAAEQAAEQAAEQsH0CUFRtf4zRQxAAARAAARAAARAAARAAARDQFAEoqpoaLggLAiAAAiAAAiAAAiAAAiAAArZPAIqq7Y8xeggCIAACIAACIAACIAACIAACmiLgrClpISwIgAAIqIBATFwyzVq0VQWSQAQQ0C6BahV9tSs8JC9VAnj+lip+NA4CJUbA4Z5I1mgtYp6DNapFnSBgdwRqj7DKn6jdcUSHQQAEQAAEQAAEQAAEtEPAaoqqdhBAUhAAARAAARAAARAAARAAARAAATURwBxVNY0GZAEBEAABEAABEAABEAABEAABECAoqrgJQAAEQAAEQAAEQAAEQAAEQAAEVEUAiqqqhgPCgAAIgAAIgAAIgAAIgAAIgAAIQFHFPQACIAACIAACIAACIAACIAACIKAqAlBUVTUcEAYEQAAEQAAEQAAEQAAEQAAEQACKKu4BEAABEAABEAABEAABEAABEAABVRGAoqqq4YAwIAACIAACIAACIAACIAACIAACUFRxD4AACIAACIAACIAACIAACIAACKiKABRVVQ0HhAEBEAABEAABEAABEAABEAABEICiinsABEAABEAABEAABEAABEAABEBAVQSgqKpqOCAMCIAACIAACIAACIAACIAACIAAFFXcAyAAAiAAAiAAAiAAAiAAAiAAAqoiAEVVVcMBYUAABEAABEAABEAABEAABEAABKCo4h4AARAAARAAARAAARAAARAAARBQFQEoqqoaDggDAiAAAiAAAiAAAiAAAiAAAiAARRX3AAiAAAiAAAi3kuLLAAAQ+ElEQVSAAAiAAAiAAAiAgKoIQFFV1XBAGBAAARAAARAAARAAARAAARAAAWcgAAEQAAEQAAEQAAEQAAEQsCyBcTM3WbZC1AYCNkrgywmdTPYMiqpJLDgJAiAAAiAAAiAAAiAAAsUjMH5w++JVYKXSmRkZdCEmitzc3SmofAg5Otquk+Xdu+l0UfTVPzCIfHz+v707j9epWgM4/rh0b3SOMTmmMmTONZRQF6eIzISSIVEuGbohopR0FZEhfZDQLXRE5jFk6JozpAjHlOmQkEgZCnc/K2t73/ccr5Occ7a7f+vzeb17r7322mt/1/nnsYY3UxKJhq/251M/ydEjhyVX7jySOg3hV6DW0JhlgadBx/+/f5VBr8kJAggggAACCCCAAAI3vkDlsgVlwL97BL2IBmOl7swko4YNCMoPPdEAddigPlIk181S9b4iUrFUHnmofGHZsHaVKbprx1YpGJVGGtepGHqrPPV4DXMtdssmOXb0e3OsZe2nwcPlZPa0j937Jo0f7V6zZZrUjZad27e4Za50oM+39+i3tnPIm73k9C8/m1vUYOK4UUG3f7PpS3PP8R+Omvxffj4lXdo1l2K500m1+4tJmUJZRe9bv2aFe1/5u3KYvLNnz7h5u3duM/Wc+umknDlzOqgdgW2aN2uye8+VDg4d3G/ctG/UWd3/1bqxnDhx3Nxy/vz5ePVr2bZP1JP9e3ebMquWLY5XRq+vXrHUXLfO77z1mjm3/9i2a32abLnAdwjsD3UJvGbdX+3ewXW3dSfXN4FqcknzHAQQQAABBBBAAAEE/qRA/Ueby6ypE+TixYtuTWtXLRMdtatW8xE3L6GD4UPekPHvD5eYGUsl9tCvsuLrA1KpcnUTTGnwaevc8MVKOXwozq1Cg79lSxa457bc2MkLZdXmgzJpzgq5q8Td0vmZZjJ14oemnJbJk7+grIs9Kmtjj8iClVvlx+M/yOsvd3brCXfQ5tnupu6Vm+Jk4IhxMnzw6zJ7+kT3FtsGN+PSgebrp5UTWO/esU1mLtpg3lXbUb12Q3m8biXZtHGde5sGhGOGD3TPA+u1x8P/M0UWf7Ej6BPtuIVL586dlRaNqkm6WyJk+cZ9sjXurMxa/KVs/nqDvNCxZdCtQ0dPNO+qlpPnrZQdsVvkpS5tTBnbBu0rva7tyJwlq3Rq00T0Px7s9emfjA+qUwNcTfp3oUnLJaY/lq7f7br3e3uMxHzwrnw4aqipI7n/IVBNbnGehwACCCCAAAIIIIDANQpUr9NQvjt0QDZ/td6tYcHcaVLy7rJye578bl7ogY5G6qjb8z3fkHvK/kNSpUolWW+Lkq4v95VHmz4lR78/7N6idX02f6Z7vmThHFO/m3HpIGOmLJLFmVKr5Xu/OUzadXpJhvTr5RZLkzqNpM+Q0Uy5zZOvgNxXsbIbOLmFrnAQERFh6r41azYpU66CVKv1iPx38adXKB2crUGaBtsDhn0ohYv93byrtqPLS69L6Xvvk/ffHeze0KhJKzNau2/PLjcv9CBb9pyS6/a8QZ+06W4JLRZ0PnNKjBw5fEj6Dh4tt0XlkNSpU0uhosVl0IjxovVpIGuTTklWR/3kL1BE9D8j9uzaYS+bb3td29Gi9bNmVHvn9q3m2p0Fi5oRWB3ttmn+7Knx+iwx/aFBsD5L3bW/9G/lwP69ttpk/WaSdLJy8zAEEEAAAQQQQAABBK5dQAOZYsVLyYI506R4yXvMqNqMyR9Jt5f7ha10/7495roGHoEpbdp00qP3WybLTst9uFYDmTNtojR98hmT/+msKaJ5G9evCbw13nG5+6PNyKdOm9WkI7FTPv7AjOYdPLBPxo5+R94aNjbefQllnDt3Tk6f/kUuONNjdVrv8qULpcerl6c2L/1srpw8+aN763cHL48Ab9n8peS+I59oABeYNDjXkdCZUya42Q88VNMEz316dpL3xl8Ozt0CzsHni+bJ3m93ullaT816j7nnCR1s++ZrKf+PByQiMr25rKOfFy5ekKLFS5pPmjQ3yYULF8y1kyd+NFY66rl7Z6zMdEbMH6xWK6jaM45FKmct8Q/HjsiEsSNNMHlnoaJOn6yWtOnSSb1GzWThvOkmGNapzPPnTJWOXV4O6rPE9IeWufnmtPLbr7/KVxu+kHVrlkuzVu2C2pJcJwSqySXNcxBAAAEEEEAAAQQQuA4C9ZwRtzHDB0nnF/vIhnWrTKBVtWb9sDWfOnnCXL8lIjJsOb34QNWa0q93N/n+u4PyN2fDJQ0KX3xtoMkLd3P6S5sV2TWfOp143szf13IeczYT0qTTWhOTdPQ3cN1lkyfbSrXaDdxbd+/aLr85wZ9NJy+t+9Tz48eOScZMme2loO+/OCObNpC2F7r3HmDWwS6cO13yFShks93vaZPGSfr0GdxzreNqgaquT41Mn9G9R6fy2mnRmjlhxudS8p5y5nrHpx91y9mD0R/Nsofmu2T+y3XpyGyfgSPNKK1e1GC+ao360r9PD+ngBKdrnPWrOjJauFiJoDoS0x+VSucNukeD/SrV6wblJdcJgWpySfMcBBBAAAEEEEAAAQSug4CObupazy2bN8pn82ZIdJUaZoQtXNU5ct9uLuv6TB1FDEy60U6J0mWdHWlTm+xbs0ZJOWc0cNH8WWaNpU7tjcqRK/CWBI8Pxu0z7dCpo5o0yBkdM9stq9NxdaOkFq07mqml7oUEDlq27eSM6LY1V7S+0AC7VZvnpPET/3Tv1FHX+g+VMedROXKadagakNoRTVtQg7g78gZPkY7Knku69+ovr3RrJyPHzbBF3e8hI2PM6LWbkYgDrVMDfJt0inW7Ti86GzSdkVrRwQGkrlG9t3xFM/J8KG6/NG9QRcaMGGSmU9v7F67aZqYw667BOXPdYbPd7/srVZE9LRvI9m3fiE77rdOgiSnvFnAOwvWHLadrVHVEVUeAVy1fIs+3f0I0gL9aYG7vv57frFG9nprUhQACCCCAAAIIIIBAEgvoGkcNJHVKrq6FrNuw6VWfqD9Do8Ge3WTH3qBrM3s+31Yi0v8+RdXm68ZDc2dMckZEP5EadeOP+Nlygd+znLaUujRKGJhvj/MXKmIO9+wOXn9prwd+Z86cxay51XW3oUFqYLmEjosVL22y165eFnRZd8LVTaHKV3gwKF9Pmj/dQSKddaxv97+8xjZeoT+QUbBwMbNuVIN3TRps67v85EzzDU26RtWuDdVNqXTKdezWy+tNtbxOZdb7EwpS9bquma1Rp5Hps7lOn1V+uI5mh00J9Ye2Qz9Zs2U3wa5OM9fpyCmRCFRTQp1nIoAAAggggAACCCDwJwR0TeLIof3Mpjo6onq1pL+V2rVnX/ngvbdFf1pFN1fSdZc6YlbFCWpCA6DK1WrLmpWfy+IFs0WPE0q6Y+63u2LNTra9Xmhv6m3vTD21SacA63X96BrTzm2bmqCzROl7bZEk+dYNk3Qtbq9u7c1P7+jGRXEH9pqfq9GgV6cRh6abbvqrvNZ/eNDuxraMBmq6UVHgR9dyhkt1nP880OD0la7tRINVXW87x9m1uEfn1uFuM9eyZotK9KZTgZXp1GjdHTkyMoNZxxx4TY+vpT+y58wtpy7tHBxaX1KfM/U3qYWpHwEEEEAAAQQQQACB6yxgR8x0NDWxI46PNXta4pwdXPW3PG3SKaOv9B1qTnWTIE36rTvVasB39vRpM5qno5E22XLtWzW0WWb6sU7z1RE4TVpGA1n9DVObtD79SRsNCpMq2baNGDtNejrrQhvXruA+Sts2c9F6Z/1qFjcv8EA3g6r9yOPm538039bVtUOLwGLmuJdj1rTllTcZ0k2qRjke3To8KdF35zP3aD8981wPs4bU1q0XAo/1XNunQXHc/j3xrun1wKT36ppZTRWiq5pvfQdbp/3b0PPE9Ie9z1Tk/JMp862iuz7r1OjQa7ZMUn2ncnaXuphUlVMvAggggAACCCCAAAJ+FOg4eKk82+RykJQcBrp7bODutIHPjHKmC+t0Tk06unfA2QX4tqjs5qdjAsslx3Fi23k92qK/I7r3212S01mjmyFjwhssXctzzjsbGG1x1sUmlCIiIyVv/t83ZdJQSzel0kBfp+4md7CXUPu8lDc0Zpm80yk6wSYxopogC5kIIIAAAggggAACCNxYAjoddfWKJQk2uky5im6gqqN9BZyfNkmplNh2Xo/26Yii/iTM9U7nz/92RWv9rVMbqGpgqmuKSX9cgBHVP27GHQgggAACCCCAAAIIhBVIiRHVsA3iIgIeFAg3ospmSh7sMJqEAAIIIIAAAggggAACCPhZgKm/fu593h0BBBBAAAEEEEAgyQR0tIiEAALXJkCgem1u3IUAAggggAACCCCAQFiB5N5MKWxjuIiABwXC/WcOU3892GE0CQEEEEAAAQQQQAABBBDwswCBqp97n3dHAAEEEEAAAQQQQAABBDwoQKDqwU6hSQgggAACCCCAAAIIIICAnwUIVP3c+7w7AggggAACCCCAAAIIIOBBAQJVD3YKTUIAAQQQQAABBBBAAAEE/CxAoOrn3ufdEUAAAQQQQAABBBBAAAEPChCoerBTaBICCCCAAAIIIIAAAggg4GcBAlU/9z7vjgACCCCAAAIIIIAAAgh4UIBA1YOdQpMQQAABBBBAAAEEEEAAAT8LEKj6ufd5dwQQQAABBBBAAAEEEEDAgwIEqh7sFJqEAAIIIIAAAggggAACCPhZgEDVz73PuyOAAAIIIIAAAggggAACHhQgUPVgp9AkBBBAAAEEEEAAAQQQQMDPAgSqfu593h0BBBBAAAEEEEAAAQQQ8KAAgaoHO4UmIYAAAggggAACCCCAAAJ+FiBQ9XPv8+4IIIAAAggggAACCCCAgAcFCFQ92Ck0CQEEEEAAAQQQQAABBBDwswCBqp97n3dHAAEEEEAAAQQQQAABBDwoQKDqwU6hSQgggAACCCCAAAIIIICAnwUIVP3c+7w7AggggAACCCCAAAIIIOBBAQJVD3YKTUIAAQQQQAABBBBAAAEE/CxAoOrn3ufdEUAAAQQQQAABBBBAAAEPChCoerBTaBICCCCAAAIIIIAAAggg4GcBAlU/9z7vjgACCCCAAAIIIIAAAgh4UIBA1YOdQpMQQAABBBBAAAEEEEAAAT8LEKj6ufd5dwQQQAABBBBAAAEEEEDAgwIEqh7sFJqEAAIIIIAAAggggAACCPhZgEDVz73PuyOAAAIIIIAAAggggAACHhQgUPVgp9AkBBBAAAEEEEAAAQQQQMDPAgSqfu593h0BBBBAAAEEEEAAAQQQ8KAAgaoHO4UmIYAAAggggAACCCCAAAJ+FiBQ9XPv8+4IIIAAAggggAACCCCAgAcFCFQ92Ck0CQEEEEAAAQQQQAABBBDwswCBqp97n3dHAAEEEEAAAQQQQAABBDwoQKDqwU6hSQgggAACCCCAAAIIIICAnwUIVP3c+7w7AggggAACCCCAAAIIIOBBAQJVD3YKTUIAAQQQQAABBBBAAAEE/CxAoOrn3ufdEUAAAQQQQAABBBBAAAEPCqTxYJtoEgIIIIAAAggggAACN7zA0JhlN/w78AIIpJRAqotOSqmH81wEEEAAAQQQQAABBBBAAAEEQgWY+hsqwjkCCCCAAAIIIIAAAggggECKChCopig/D0cAAQQQQAABBBBAAAEEEAgVIFANFeEcAQQQQAABBBBAAAEEEEAgRQUIVFOUn4cjgAACCCCAAAIIIIAAAgiEChCohopwjgACCCCAAAIIIIAAAgggkKICBKopys/DEUAAAQQQQAABBBBAAAEEQgX+BwjUbOaTvu8eAAAAAElFTkSuQmCC;" vertex="1" parent="YX8aRbytLqZ86VxBtwbp-1">
          <mxGeometry x="10" y="10.999999999999998" width="324" height="166.84" as="geometry" />
        </mxCell>
        <mxCell id="fcbu2P2p9YJt0vswSHqb-1" value="1" style="whiteSpace=wrap;html=1;rounded=1;arcSize=50;align=center;verticalAlign=middle;strokeWidth=1;autosize=1;spacing=4;treeFolding=1;treeMoving=1;newEdgeStyle={&quot;edgeStyle&quot;:&quot;entityRelationEdgeStyle&quot;,&quot;startArrow&quot;:&quot;none&quot;,&quot;endArrow&quot;:&quot;none&quot;,&quot;segment&quot;:10,&quot;curved&quot;:1,&quot;sourcePerimeterSpacing&quot;:0,&quot;targetPerimeterSpacing&quot;:0};" vertex="1" parent="YX8aRbytLqZ86VxBtwbp-1">
          <mxGeometry x="392" y="274" width="46" height="30" as="geometry" />
        </mxCell>
        <mxCell id="fcbu2P2p9YJt0vswSHqb-3" value="" style="edgeStyle=entityRelationEdgeStyle;startArrow=none;endArrow=none;segment=10;curved=1;sourcePerimeterSpacing=0;targetPerimeterSpacing=0;rounded=0;" edge="1" parent="YX8aRbytLqZ86VxBtwbp-1" target="fcbu2P2p9YJt0vswSHqb-1" source="YX8aRbytLqZ86VxBtwbp-10">
          <mxGeometry relative="1" as="geometry">
            <mxPoint x="823" y="467" as="sourcePoint" />
            <mxPoint x="948" y="395" as="targetPoint" />
          </mxGeometry>
        </mxCell>
        <mxCell id="fcbu2P2p9YJt0vswSHqb-4" value="&amp;gt;1" style="whiteSpace=wrap;html=1;rounded=1;arcSize=50;align=center;verticalAlign=middle;strokeWidth=1;autosize=1;spacing=4;treeFolding=1;treeMoving=1;newEdgeStyle={&quot;edgeStyle&quot;:&quot;entityRelationEdgeStyle&quot;,&quot;startArrow&quot;:&quot;none&quot;,&quot;endArrow&quot;:&quot;none&quot;,&quot;segment&quot;:10,&quot;curved&quot;:1,&quot;sourcePerimeterSpacing&quot;:0,&quot;targetPerimeterSpacing&quot;:0};" vertex="1" parent="YX8aRbytLqZ86VxBtwbp-1">
          <mxGeometry x="387" y="211" width="53" height="30" as="geometry" />
        </mxCell>
        <mxCell id="fcbu2P2p9YJt0vswSHqb-5" value="" style="edgeStyle=entityRelationEdgeStyle;startArrow=none;endArrow=none;segment=10;curved=1;sourcePerimeterSpacing=0;targetPerimeterSpacing=0;rounded=0;" edge="1" parent="YX8aRbytLqZ86VxBtwbp-1" source="YX8aRbytLqZ86VxBtwbp-13" target="fcbu2P2p9YJt0vswSHqb-4">
          <mxGeometry relative="1" as="geometry">
            <mxPoint x="497" y="314" as="sourcePoint" />
            <mxPoint x="448" y="299" as="targetPoint" />
          </mxGeometry>
        </mxCell>
        <mxCell id="fcbu2P2p9YJt0vswSHqb-6" value="1" style="whiteSpace=wrap;html=1;rounded=1;arcSize=50;align=center;verticalAlign=middle;strokeWidth=1;autosize=1;spacing=4;treeFolding=1;treeMoving=1;newEdgeStyle={&quot;edgeStyle&quot;:&quot;entityRelationEdgeStyle&quot;,&quot;startArrow&quot;:&quot;none&quot;,&quot;endArrow&quot;:&quot;none&quot;,&quot;segment&quot;:10,&quot;curved&quot;:1,&quot;sourcePerimeterSpacing&quot;:0,&quot;targetPerimeterSpacing&quot;:0};" vertex="1" parent="YX8aRbytLqZ86VxBtwbp-1">
          <mxGeometry x="392" y="331" width="46" height="30" as="geometry" />
        </mxCell>
        <mxCell id="fcbu2P2p9YJt0vswSHqb-7" value="" style="edgeStyle=entityRelationEdgeStyle;startArrow=none;endArrow=none;segment=10;curved=1;sourcePerimeterSpacing=0;targetPerimeterSpacing=0;rounded=0;" edge="1" parent="YX8aRbytLqZ86VxBtwbp-1" source="YX8aRbytLqZ86VxBtwbp-14" target="fcbu2P2p9YJt0vswSHqb-6">
          <mxGeometry relative="1" as="geometry">
            <mxPoint x="497" y="314" as="sourcePoint" />
            <mxPoint x="448" y="299" as="targetPoint" />
          </mxGeometry>
        </mxCell>
        <mxCell id="fcbu2P2p9YJt0vswSHqb-8" value="" style="edgeStyle=entityRelationEdgeStyle;startArrow=none;endArrow=none;segment=10;curved=1;sourcePerimeterSpacing=0;targetPerimeterSpacing=0;rounded=0;" edge="1" parent="YX8aRbytLqZ86VxBtwbp-1" source="YX8aRbytLqZ86VxBtwbp-7" target="fcbu2P2p9YJt0vswSHqb-9">
          <mxGeometry relative="1" as="geometry">
            <mxPoint x="507" y="324" as="sourcePoint" />
            <mxPoint x="458" y="309" as="targetPoint" />
          </mxGeometry>
        </mxCell>
        <mxCell id="fcbu2P2p9YJt0vswSHqb-9" value="&lt;font color=&quot;#ff3333&quot;&gt;1?&lt;/font&gt;" style="whiteSpace=wrap;html=1;rounded=1;arcSize=50;align=center;verticalAlign=middle;strokeWidth=1;autosize=1;spacing=4;treeFolding=1;treeMoving=1;newEdgeStyle={&quot;edgeStyle&quot;:&quot;entityRelationEdgeStyle&quot;,&quot;startArrow&quot;:&quot;none&quot;,&quot;endArrow&quot;:&quot;none&quot;,&quot;segment&quot;:10,&quot;curved&quot;:1,&quot;sourcePerimeterSpacing&quot;:0,&quot;targetPerimeterSpacing&quot;:0};" vertex="1" parent="YX8aRbytLqZ86VxBtwbp-1">
          <mxGeometry x="388" y="138" width="52" height="30" as="geometry" />
        </mxCell>
        <mxCell id="fcbu2P2p9YJt0vswSHqb-10" value="1 + 1 + 1 + &lt;font color=&quot;#ff3333&quot;&gt;1?&lt;/font&gt;" style="whiteSpace=wrap;html=1;rounded=1;arcSize=50;align=center;verticalAlign=middle;strokeWidth=1;autosize=1;spacing=4;treeFolding=1;treeMoving=1;newEdgeStyle={&quot;edgeStyle&quot;:&quot;entityRelationEdgeStyle&quot;,&quot;startArrow&quot;:&quot;none&quot;,&quot;endArrow&quot;:&quot;none&quot;,&quot;segment&quot;:10,&quot;curved&quot;:1,&quot;sourcePerimeterSpacing&quot;:0,&quot;targetPerimeterSpacing&quot;:0};" vertex="1" parent="YX8aRbytLqZ86VxBtwbp-1">
          <mxGeometry x="889" y="274" width="113" height="30" as="geometry" />
        </mxCell>
        <mxCell id="fcbu2P2p9YJt0vswSHqb-11" value="" style="edgeStyle=entityRelationEdgeStyle;startArrow=none;endArrow=none;segment=10;curved=1;sourcePerimeterSpacing=0;targetPerimeterSpacing=0;rounded=0;exitX=1;exitY=0.5;exitDx=0;exitDy=0;exitPerimeter=0;" edge="1" parent="YX8aRbytLqZ86VxBtwbp-1" target="fcbu2P2p9YJt0vswSHqb-10" source="YX8aRbytLqZ86VxBtwbp-2">
          <mxGeometry relative="1" as="geometry">
            <mxPoint x="1009" y="293" as="sourcePoint" />
            <mxPoint x="1470" y="384" as="targetPoint" />
          </mxGeometry>
        </mxCell>
      </root>
    </mxGraphModel>
  </diagram>
</mxfile>
